<svg xmlns="http://www.w3.org/2000/svg" width="47.145" height="41.73" viewBox="0 0 47.145 41.73"><defs><filter id="a" x="23.006" y="0" width="24.139" height="33.076" filterUnits="userSpaceOnUse"><feOffset dy="3"/><feGaussianBlur result="blur"/><feFlood flood-opacity=".161"/><feComposite operator="in" in2="blur"/><feComposite in="SourceGraphic"/></filter></defs><g data-name="pink buttfly"><path data-name="パス 9233" d="M0 6.577s1.739-2.666 1.91-3.108c0 0 22.945-7.4 24.267-.582 1.25 6.445-14.845 16.142-18.335 14.519C5.655 16.389 1.042 10.275 0 6.577z" transform="rotate(-74.3 28.156 -2.71)" fill="#fba4b2" filter="url(#a)"/><path data-name="パス 9234" d="M29.328 27.042s10.47-4.052 11.112-1.689c.663 2.45 3.35 8.337 1.81 8.814s-12.922-7.125-12.922-7.125z" fill="#fba4b2"/><path data-name="パス 9235" d="M28.716 27.05s-1.894-2.56-2.09-2.993c0 0-23.344-6.022-24.26.862-.863 6.51 15.782 15.234 19.167 13.406 2.123-1.145 6.363-7.522 7.183-11.276z" fill="#fba4b2"/><path data-name="パス 9236" d="M28.716 27.05s-6.237 9.333-4.066 10.475c2.246 1.182 7.405 5.089 8.206 3.69s-4.14-14.166-4.14-14.166z" fill="#fba4b2"/><path data-name="パス 9237" d="M21.797 20.354a.664.664 0 0 1 .5-.297 2.6 2.6 0 0 1 1.551.802.4.4 0 0 1 .074-.078.351.351 0 0 1 .05-.031c-.246-.57-.61-1.682.076-2.11a.1.1 0 1 1 .102.164c-.564.353-.216 1.372.009 1.888a1.629 1.629 0 0 1 1.226.744 1.61 1.61 0 0 1 .41 1.389 27.48 27.48 0 0 1 2.717 3.111c1.594 2.06 2.726 3.86 2.519 4.019s-1.667-1.381-3.262-3.44a27.411 27.411 0 0 1-2.334-3.409 1.608 1.608 0 0 1-1.243-.744 1.712 1.712 0 0 1-.432-1.32c-.12-.115-.887-.837-1.443-.79a.472.472 0 0 0-.363.213.1.1 0 1 1-.157-.111z" fill="#97600a"/></g></svg>