<svg xmlns="http://www.w3.org/2000/svg" width="12.791" height="13.74" viewBox="0 0 12.791 13.74"><g fill="#f9687d" fill-rule="evenodd"><path data-name="パス 9559" d="M5.385 3.981a2.937 2.937 0 0 1 .007-.855 3.538 3.538 0 0 1-.029-.573c-.007-.028.03-.065.023-.093a4.153 4.153 0 0 1 .036-.676c.006-.085 0-.227.061-.266-.019-.019-.044 0-.038-.024.1-.182.1-.393.193-.56.049-.092.141-.156.187-.241.024-.045.018-.109.042-.153s.083-.109.117-.159c.079-.115.194-.215.276-.329.193-.055.495-.1.634.057-.011.017-.029 0-.042.01a.485.485 0 0 1 .439.06c.121.086.289.148.409.22.2.121.406.3.626.464a.917.917 0 0 1 .329.6c.007.022.044.047.047.065.016.078-.007.168 0 .251s.042.174.043.242a8.317 8.317 0 0 1-.094.855c-.016.044.02.075-.026.127a10.043 10.043 0 0 1-.393 1.133c-.012-.066.088-.186.027-.269a.786.786 0 0 1-.27.4c.007.109-.121.164-.161.257a1 1 0 0 1 .128.331c.029-.051.044-.144.117-.159a4.38 4.38 0 0 0-.213.565l-.008.013a2.873 2.873 0 0 0-.189.526.137.137 0 0 0-.005.122 1.025 1.025 0 0 1 .288-.178 9.781 9.781 0 0 1 2.269-.836c.419-.012.854.047 1.266.005a8.313 8.313 0 0 1 .927.294 2.187 2.187 0 0 0 .234.218 4.82 4.82 0 0 0 .148.72 5.773 5.773 0 0 0-.231.679c.036.024-.037.075.01.1a.412.412 0 0 1-.13.151c-.085.3-.146.806-.5 1.028-.042.026-.108.014-.166.04a5.542 5.542 0 0 1-.561.275c-.088.026-.192.017-.274.044-.1.034-.184.049-.307.095a2.545 2.545 0 0 0-.573.071c-.392-.015-.794-.075-1.194-.121-.022-.009-.014-.026-.03-.036-.17 0-.354-.055-.526-.061a8.122 8.122 0 0 1-.864-.112.214.214 0 0 0-.018.114c.237.173.3.389.508.569a1.787 1.787 0 0 0 .313.429.977.977 0 0 1 .176.254 4.58 4.58 0 0 1 .733 2.376c-.026.016-.056.011-.074.062.109.158 0 .431-.087.59.1.116 0 .276-.058.43 0 .018 0 .047.017.029a.633.633 0 0 1-.124.227c-.071.064-.18.059-.293.1-.051.02-.086.07-.124.084s-.089 0-.129.009c-.128.04-.291.221-.472.134-.075.041-.175-.035-.245.025a.072.072 0 0 0-.076-.047c-.007.016.008.015.013.008-.007.037-.109.062-.171.019.01.064-.127.026-.176-.057-.088.013-.172 0-.157-.116-.045.014-.1-.016-.088-.055-.181-.033-.25-.154-.346-.038a.167.167 0 0 0-.134-.012l-.026-.016c.01-.04-.129-.117-.083-.177-.071.013-.039-.033-.093-.076.037-.031.031 0 .038.024.031-.012.033-.055.086-.054a.178.178 0 0 0-.048-.12c-.1.02-.079-.021-.172-.09.031-.168-.117-.293-.1-.457a.273.273 0 0 1-.093-.076c.011-.178-.083-.426-.233-.361 0 .033.029-.023.051.032-.042.073-.091-.047-.084-.035a3.258 3.258 0 0 1-.092-.416c-.147-.5-.123-1.078-.242-1.584a4.507 4.507 0 0 1 .182-1.444c.09.015.16-.066.239-.1.034.014.013.041.055.053.1-.095.245.079.366-.022.087.1.122-.04.2.018.029-.034.079-.119.094-.066.01-.031-.01-.064.027-.072.021.021-.044.024.022.05.1-.06.314-.183.326-.351-.051-.074-.039-.076-.037-.166-.062.051-.071-.053-.122-.059.084-.084.116-.122.2-.213.192-.008.263-.27.283-.4.462-.141-.282-.6.125-.818a1.116 1.116 0 0 0 .111-.289c-.172.025-.153-.185-.28-.229-.095.073-.262.268-.221.381-.089.074-.178.151-.3.061-.078-.094.093-.153.125-.226s-.025-.111 0-.164c-.057-.056-.077-.117-.141-.2-.151.1-.172-.155-.327-.1a.218.218 0 0 0 .108.193c-.007.056.016.106-.017.168.048.025.046.062.085.089-.031.127-.063.19-.085.3a.164.164 0 0 1 .077.3c-.032.07-.13.1-.125.172-.075.051-.119-.052-.191.023.013-.066 0-.106-.1-.152.085-.013-.009-.077-.077-.1.008.039.017.025-.02.059l-.008.013-.016.026c-.018-.052-.066-.056-.061-.128-.066-.023-.108.05-.159-.028.034-.034 0-.052.036-.085-.052.01-.093.07-.162.006-.047.136.176.088.159.225.04.016-.008-.032-.009-.042s.068.01.034.057c.063 0 .084.021.121 0 .055.041-.027.116.045.154-.062.036-.034.26-.154.19-.018.033-.037.063-.061.069-.033-.031-.143-.035-.095-.131-.082-.027-.037-.041-.106-.084a.429.429 0 0 0 .09-.087.215.215 0 0 0-.167-.015.341.341 0 0 0 .029.18c-.025.029-.049-.03-.022-.05-.024.005-.046.022-.079-.014-.012-.023-.028-.044-.006-.075a.712.712 0 0 0-.122-.059c.012-.026.021-.106.064-.1-.045-.034-.013-.192-.092-.219a.663.663 0 0 1 .1-.188c.023-.04-.1-.074-.031-.091-.04-.011-.2-.017-.14-.087a.293.293 0 0 1-.291.015c.036.036.068.137.007.13-.007.056.065-.015.063.04-.018.066-.058.034-.091.032-.045.044.014.063-.031.106-.007-.027 0-.054-.043-.045-.049.037.019.046-.015.08-.031-.04-.043 0-.067-.006 0 .051.008.11.069.115-.044.008-.034.109-.093.121.023.02.041.022.054 0-.007.2-.221.193-.417.187-.163-.005-.287-.045-.38-.041a5.292 5.292 0 0 1-.691-.164 8.07 8.07 0 0 0-.98-.237 2.912 2.912 0 0 1-1.311-.75l-.013-.008c-.034-.062-.115-.169-.183-.186-.016-.007-.021-.017-.017-.029a1.39 1.39 0 0 0-.2-.324.292.292 0 0 1-.052-.086c-.055-.075-.1-.152-.159-.225-.012 0-.009-.012 0-.021a1.4 1.4 0 0 0-.138-.23C.096 4.609.12 4.57.101 4.542c0-.193-.086-.367-.091-.559a.445.445 0 0 1 .043-.152.675.675 0 0 0-.023-.3c.011-.014.011-.024 0-.034 0-.063-.034-.116.033-.194.073-.1.209-.211.174-.249.095-.035.117-.164.214-.117.008-.013-.009-.02-.017-.029.085.019.095.033.157-.027.015.017-.008.011-.016.026.068-.018.066-.043.077-.095.036.03.115-.035.164-.094a.109.109 0 0 1-.056.09c.069-.01.038.087.1.03a.06.06 0 0 0-.031-.091c.045-.039.025-.066.074-.061-.013.072.087.087.053.141.034.005.062-.016.1.009a.179.179 0 0 1 .1-.1c.032.093.181-.047.271-.01.053-.049.063-.1.1-.133a.1.1 0 0 1-.076-.047c.062-.182.2-.119.316-.2.032.011 0 .036.022.05s.051-.035.078-.041a1.075 1.075 0 0 1 .259.234c.027-.023-.033-.078.027-.072.047.026-.022.032-.015.08-.018.035.033 0 .051.032a.512.512 0 0 1 0 .285 1.112 1.112 0 0 0 0 .251c0 .012.041.032.042.045.009.064-.027.147-.008.21a.287.287 0 0 1-.055.341c-.013.04-.042.008-.062.015a.23.23 0 0 1-.026.127c.194.188.261.38.471.6-.045.088-.063.061-.127.118-.066-.094-.185-.112-.283-.2-.028.02 0 .078.022.05.017.047-.06 0-.071-.027-.036.041.01.118-.065.1.024.1.16.091.138.23a.225.225 0 0 1 .159.225c.029.033.044 0 .071.027.02.06-.017.068-.005.122.016.007.015-.008.008-.013.141.109.01.262.183.383a.1.1 0 0 1-.028.072c.063.053.113.048.173.09.042-.042.031-.1.065-.1-.041-.053-.042.073-.083.02.014-.1.125-.06.171-.161-.042-.034-.027-.081-.048-.12.02-.024.05 0 .07-.028.023-.045-.085 0-.035-.057.045.036.1-.019.118.038 0-.025.018-.055-.006-.075s-.063.064-.054 0c-.059-.038.033-.02.045-.043.021-.067-.047-.113-.029-.18-.081-.045-.029.058-.073.062-.03-.081.056-.091.075-.2-.049-.041-.068.054-.121 0 .1-.015.229-.109.325-.012.007-.016-.016-.025-.03-.037a.215.215 0 0 0 .26-.106.463.463 0 0 0-.13-.243c.039-.01.03 0 .045-.043-.045-.055-.062.013-.1-.03.02-.038.066 0 .053-.056-.019-.018-.03-.005-.042.01 0-.034.044-.056.031-.106.044-.018.084-.08.116-.017a.154.154 0 0 0-.083-.177c.066-.162-.045-.281-.009-.436.066.015.088-.033.09-.087.049.047.122.022.183-.011.059.051.1.04.16.083.189.155.371.238.541.374a9.824 9.824 0 0 1 .827.876c.011.012.072.058.076.048.081.075.129.2.239.293 0 .045.074.07.09.11a1.336 1.336 0 0 0 .258.377c.092-.135-.049-.215-.061-.325a2.459 2.459 0 0 0-.162-.782 1.384 1.384 0 0 0-.113-.558zm.295 2.711c-.03-.022-.049.009-.075.007.048.014.005.05.026.07.032-.048.038-.029.049-.078zM.418 3.073c.026.012.019.032.042.045.1-.035.119-.055.188-.187-.155-.021-.095.104-.23.141zm1.978 2.135c-.018.022 0 .037-.02.059.031.025.052.008.07-.028zM5.57 6.981c.024-.031.011.031.051.032.04-.042.08-.083.027-.127-.015.015-.034.013-.045.043.019.014.03.037.022.05s-.084-.027-.056.001z"/><path data-name="パス 9560" d="M4.87 7.223c-.047.023-.11.048-.146-.02a.586.586 0 0 0-.1.134c.029.064.061.1-.014.134a.223.223 0 0 0 .193.086c.054-.087.073-.085.134-.185-.068-.039-.006-.109-.067-.149z"/><path data-name="パス 9561" d="M5.695 7.793a.372.372 0 0 0-.227-.088c-.08.16-.035.273.152.292.063-.053.031-.125.075-.204z"/><path data-name="パス 9562" d="M6.659 6.874c.012.008 0 .022 0 .034.046-.008.07-.111.114-.126.058.009.217.01.228.143-.065.1-.121.183-.229.2.01.028.05.086.076.048.041.031-.024.144.019.138-.03.133-.26.128-.316 0 .083-.036.07-.207.167-.182a.475.475 0 0 1-.059-.255z"/><path data-name="パス 9563" d="M3.248 7.532a2.281 2.281 0 0 1 1.2-.307 1.08 1.08 0 0 1 .018.226c-.124.037.018.187.063.237-.058.02-.061.062-.093.121a.2.2 0 0 1 .1.152c-.016 0-.073.054-.049.077.024-.022.037-.015.046.011-.062.074.055.127-.03.16.019.014.045.026.022.049.076.055.088.008.147.075.013-.062.128-.116.166-.04-.011.05-.04.019-.058.035.011.023.028.044.006.076.072.027.15.055.189.064.009.027-.011.061 0 .088.015-.029.049.022.071.027.045.013-.034-.092.036-.085.036.106.127.1.239.1a2.517 2.517 0 0 1-.228.449c-.4.63-.913 1.312-1.231 1.826a7.265 7.265 0 0 1-.791 1.009 4.705 4.705 0 0 1-.471.386c-.024.014-.066 0-.1.012-.052.023-.1.09-.139.11-.017.008-.062-.01-.087 0a.969.969 0 0 1-.489.105c-.224.114-.592-.065-.784-.24-.021-.48-.418-.871-.5-1.336a2.672 2.672 0 0 1 .314-1.093c.121-.021.132-.21.2-.179a1.11 1.11 0 0 1 .232-.427c-.02.1.074-.041.029-.018 0-.051.028 0 .051.032.051-.032.011-.1-.027-.07.018-.019.111-.2.233-.23.015.017-.008.011-.016.026.05.028.067-.09.11-.092-.009.065.038-.05.123-.084.032.01 0 .036.022.05.075-.039.136-.139.227-.109.028-.043.06-.087.039-.119.027-.01.047-.051.083-.019.1-.181.27-.065.379-.211-.006-.044-.049-.12.022-.148-.081-.1-.09-.049-.025-.213.248-.162.502-.314.751-.483z"/><path data-name="パス 9564" d="M5.481 7.318c-.031.036.052.046.039.078a.649.649 0 0 0-.113.18c-.086-.051-.069-.041-.177-.111-.011-.075.01-.24.12-.247.044.018.032.059.076.048l.008-.013c.042-.009.038.037.047.065z"/></g></svg>