<svg xmlns="http://www.w3.org/2000/svg" width="146.501" height="142.724" viewBox="0 0 146.501 142.724"><g opacity=".599"><g data-name="グループ化 231"><g data-name="グループ化 226"><g data-name="グループ化 223"><path data-name="パス 459" d="M55.487 4.594c-7.65-4.526-7.96 6.605-7.96 6.605s-4.725-10.212-9.916-3c-4.527 7.65 6.827 7.724 6.827 7.724s-10.212 4.722-3 9.916c7.652 4.526 7.879-6.723 7.879-6.723s.016-.006.023-.007l-.01.016s4.725 10.213 9.916 3c3.746-6.334-3.39-7.474-5.956-7.679l2.584-2.149c2.137-1.864 3.78-4.705-.387-7.703z" fill="#99cf16"/><path data-name="パス 460" d="M47.194 17.263a7.9 7.9 0 0 1-1.377 2.944c-.983 1.589-2.424 1.775-1.272.168a20.542 20.542 0 0 1 2.649-3.112zm3.028-.825a24 24 0 0 1 4.011 1.746c1.911 1 .709 1.521-1.062.453a10.993 10.993 0 0 1-2.949-2.201zm-3.454-2.4a25.482 25.482 0 0 1-3.971-2.427c-1.866-1.342-.52-1.727 1.191-.336a11.521 11.521 0 0 1 2.78 2.76zm3.035-.555a8.8 8.8 0 0 1 1.391-3.375c1.016-1.817 2.607-2.023 1.4-.185a21.856 21.856 0 0 1-2.791 3.557z" fill="#fff"/></g><g data-name="グループ化 224"><path data-name="パス 461" d="M60.148 10.742c1.9 5.563 6.852 0 6.852 0s-2.13 7.2 3.581 5.8c5.562-1.9 0-6.852 0-6.852s7.106 1.938 5.707-3.772c-1.1-3.213-3.212-2.718-4.8-1.725l-1.855 1.224c.362-1.664 1.008-6.4-3.719-5.242-5.563 1.9 0 6.852 0 6.852h.012a.129.129 0 0 0-.009.013s-7.167-2.01-5.769 3.702z" fill="#99cf16"/></g><g data-name="グループ化 225"><path data-name="パス 462" d="M86.376 21.959c7.109.823 3.6-7.525 3.6-7.525s6.795 6.114 8.251-.892c.825-7.108-7.525-3.6-7.525-3.6s5.854-6.79-1.153-8.247c-4.105-.477-4.669 2.1-4.411 4.371l.372 2.68c-1.638-1.27-6.5-4.462-7.708 1.338-.825 7.108 7.526 3.595 7.526 3.595v-.015l.009.017c.003.005-5.967 6.82 1.039 8.278z" fill="#4dac27"/><path data-name="パス 463" d="M87.496 17.022c-.186 1.58-.943.688-.665-.79a6.356 6.356 0 0 1 .778-2.5 16.557 16.557 0 0 1-.113 3.29zm-4.19-5.713c-1.633-.325-2.066-1.286-.386-.845a19.278 19.278 0 0 1 3.334 1.137 8.859 8.859 0 0 1-2.948-.292zm9.457.6c1.773.1 2.364 1.06.527.846a20.53 20.53 0 0 1-3.679-.71 9.274 9.274 0 0 1 3.152-.136zm-4.388-5.472c.28-1.746 1.115-.761.733.87a7.086 7.086 0 0 1-1 2.762 17.6 17.6 0 0 1 .267-3.632z" fill="#fff"/></g></g><g data-name="グループ化 230"><g data-name="グループ化 227"><path data-name="パス 464" d="M6.547 53.366c-7.745 4.362 1.74 10.2 1.74 10.2S-2.92 62.552.732 70.655c4.362 7.745 10.1-2.05 10.1-2.05s-1.016 11.2 7.089 7.553c7.745-4.363-1.882-10.185-1.882-10.185v-.024l.01.017s11.207 1.015 7.555-7.089c-3.612-6.411-8.167-.8-9.628 1.318l-.569-3.313c-.542-2.786-2.181-5.629-6.86-3.516z" fill="#99cf16"/><path data-name="パス 465" d="M13.363 66.878a7.9 7.9 0 0 1 1.861 2.665c.885 1.646.325 2.987-.49 1.186a20.579 20.579 0 0 1-1.371-3.851zm.8-3.035a23.919 23.919 0 0 1 3.518-2.6c1.822-1.154 1.672.146-.138 1.146a10.99 10.99 0 0 1-3.38 1.458zm-3.8 1.791a25.466 25.466 0 0 1-4.087 2.226c-2.095.944-1.756-.413.3-1.2a11.506 11.506 0 0 1 3.787-1.026zm1.038-2.906a8.8 8.8 0 0 1-2.227-2.892c-1.066-1.788-.448-3.268.541-1.306a21.863 21.863 0 0 1 1.685 4.198z" fill="#fff"/></g><g data-name="グループ化 228"><path data-name="パス 466" d="M14.2 52.399c5.77 1.132 3.434-5.928 3.434-5.928s5.172 5.445 6.816-.2c1.133-5.768-5.933-3.429-5.933-3.429s5.232-5.185-.413-6.829c-3.332-.655-3.96 1.423-3.895 3.3l.132 2.219c-1.26-1.146-5.038-4.073-6.4.6-1.133 5.769 5.933 3.429 5.933 3.429v-.012s0 .01.006.015-5.325 5.19.32 6.835z" fill="#99cf16"/></g><g data-name="グループ化 229"><path data-name="パス 467" d="M37.028 35.294c4.268-5.745-4.719-6.876-4.719-6.876s8.692-2.827 3.353-7.592c-5.743-4.268-6.876 4.72-6.876 4.72s-2.953-8.465-7.718-3.125c-2.465 3.317-.512 5.1 1.579 6.006l2.507 1.018c-1.919.783-7.115 3.4-2.7 7.344 5.743 4.268 6.876-4.72 6.876-4.72l-.011-.01h.019s2.925 8.574 7.69 3.235z" fill="#4dac27"/><path data-name="パス 468" d="M33.313 31.857c1.276.951.125 1.161-1.017.181a6.35 6.35 0 0 1-1.775-1.923 16.553 16.553 0 0 1 2.792 1.742zm-7.043.772c-1.1 1.252-2.147 1.146-.925-.089a19.268 19.268 0 0 1 2.651-2.318 8.848 8.848 0 0 1-1.722 2.406zm5.249-7.889c.973-1.485 2.1-1.518 1-.033a20.514 20.514 0 0 1-2.454 2.831 9.26 9.26 0 0 1 1.454-2.8zm-6.933 1.064c-1.373-1.116-.1-1.346 1.12-.2a7.086 7.086 0 0 1 1.891 2.249 17.61 17.61 0 0 1-3.011-2.051z" fill="#fff"/></g></g></g><g data-name="グループ化 240"><g data-name="グループ化 235"><g data-name="グループ化 232"><path data-name="パス 469" d="M24.309 120.129c-.094 8.889 9.7 3.591 9.7 3.591s-6.482 9.2 2.361 10.087c8.888.095 3.276-9.774 3.276-9.774s9.2 6.483 10.086-2.363c.093-8.889-9.761-3.462-9.761-3.462l-.018-.016h.018s6.483-9.2-2.361-10.087c-7.358-.077-4.778 6.672-3.672 9l-3.154-1.163c-2.68-.918-5.962-.921-6.475 4.187z" fill="#99cf16"/><path data-name="パス 470" d="M39.424 120.979a7.905 7.905 0 0 1 3.239-.279c1.868.057 2.749 1.212.782 1.018a20.53 20.53 0 0 1-4.021-.739zm-2.228-2.211a23.994 23.994 0 0 1-.493-4.347c-.088-2.156.963-1.375.924.693a10.973 10.973 0 0 1-.431 3.654zm-.352 4.192a25.5 25.5 0 0 1-.116 4.653c-.23 2.286-1.236 1.314-.887-.864a11.507 11.507 0 0 1 1.003-3.789zm-2-2.351a8.8 8.8 0 0 1-3.618.482c-2.081.029-3.055-1.246-.861-1.122a21.86 21.86 0 0 1 4.481.64z" fill="#fff"/></g><g data-name="グループ化 233"><path data-name="パス 471" d="M27.303 113.02c3.865-4.431-3.422-5.936-3.422-5.936s7.3-1.756 3.235-6c-4.429-3.865-5.935 3.424-5.935 3.424s-1.874-7.123-6.121-3.056c-2.233 2.558-.747 4.14.907 5.021l1.988 1c-1.622.518-6.046 2.327-2.681 5.842 4.429 3.866 5.936-3.424 5.936-3.424l-.008-.009h.016s1.838 7.204 6.085 3.138z" fill="#99cf16"/></g><g data-name="グループ化 234"><path data-name="パス 472" d="M23.903 84.697c-2.842-6.569-8.314.649-8.314.649s1.9-8.941-4.9-6.7c-6.568 2.84.65 8.315.65 8.315s-8.807-1.675-6.566 5.121c1.64 3.794 4.157 2.992 5.991 1.636l2.135-1.662c-.281 2.053-.613 7.861 5.013 6.006 6.568-2.84-.65-8.315-.65-8.315l-.015.005c0-.006.007-.011.009-.017s8.888 1.759 6.647-5.038z" fill="#4dac27"/><path data-name="パス 473" d="M19.067 86.195c1.462-.629 1.068.472-.352.972a6.354 6.354 0 0 1-2.553.576 16.542 16.542 0 0 1 2.905-1.548zm-2.853 6.486c.535 1.577-.081 2.432-.539.756a19.3 19.3 0 0 1-.683-3.455 8.841 8.841 0 0 1 1.223 2.699zm-4.208-8.49c-.8-1.585-.264-2.577.47-.879a20.546 20.546 0 0 1 1.224 3.541 9.258 9.258 0 0 1-1.693-2.663zm-2.547 6.536c-1.653.631-1.216-.585.387-1.07a7.091 7.091 0 0 1 2.894-.513 17.619 17.619 0 0 1-3.281 1.583z" fill="#fff"/></g></g><g data-name="グループ化 239"><g data-name="グループ化 236"><path data-name="パス 474" d="M91.017 138.132c7.65 4.527 7.959-6.6 7.959-6.6s4.725 10.212 9.916 3c4.527-7.65-6.827-7.724-6.827-7.724s10.212-4.722 3-9.916c-7.651-4.525-7.879 6.723-7.879 6.723l-.023.008.01-.016s-4.725-10.213-9.916-3c-3.746 6.334 3.389 7.474 5.956 7.679l-2.584 2.149c-2.139 1.855-3.782 4.697.388 7.697z" fill="#99cf16"/><path data-name="パス 475" d="M99.308 125.463a7.9 7.9 0 0 1 1.378-2.944c.983-1.589 2.424-1.775 1.272-.169a20.514 20.514 0 0 1-2.65 3.113zm-3.028.825a23.943 23.943 0 0 1-4.011-1.747c-1.911-1-.709-1.521 1.061-.453a10.99 10.99 0 0 1 2.949 2.2zm3.454 2.4a25.5 25.5 0 0 1 3.971 2.427c1.866 1.342.52 1.727-1.191.336a11.492 11.492 0 0 1-2.781-2.763zm-3.035.555a8.808 8.808 0 0 1-1.391 3.374c-1.015 1.817-2.606 2.023-1.4.185a21.838 21.838 0 0 1 2.79-3.559z" fill="#fff"/></g><g data-name="グループ化 237"><path data-name="パス 476" d="M86.353 131.982c-1.9-5.563-6.852 0-6.852 0s2.129-7.2-3.581-5.8c-5.562 1.9 0 6.853 0 6.853s-7.106-1.939-5.707 3.772c1.1 3.213 3.212 2.717 4.8 1.725l1.856-1.224c-.362 1.664-1.009 6.4 3.719 5.242 5.563-1.9 0-6.853 0-6.853h-.012l.009-.013c.003-.005 7.166 2.013 5.768-3.702z" fill="#99cf16"/></g><g data-name="グループ化 238"><path data-name="パス 477" d="M60.125 120.767c-7.109-.824-3.6 7.525-3.6 7.525s-6.795-6.114-8.252.892c-.824 7.108 7.526 3.595 7.526 3.595s-5.854 6.79 1.152 8.247c4.106.477 4.669-2.1 4.412-4.371l-.372-2.68c1.638 1.27 6.5 4.462 7.708-1.338.825-7.108-7.526-3.595-7.526-3.595v.015l-.009-.017c-.004-.006 5.967-6.818-1.039-8.273z" fill="#4dac27"/><path data-name="パス 478" d="M59.005 125.702c.186-1.581.943-.689.665.79a6.358 6.358 0 0 1-.778 2.5 16.556 16.556 0 0 1 .113-3.29zm4.19 5.713c1.632.325 2.065 1.286.385.845a19.286 19.286 0 0 1-3.333-1.137 8.844 8.844 0 0 1 2.948.292zm-9.457-.6c-1.773-.1-2.364-1.059-.526-.846a20.557 20.557 0 0 1 3.679.709 9.258 9.258 0 0 1-3.153.136zm4.388 5.472c-.28 1.747-1.115.762-.733-.87a7.087 7.087 0 0 1 1-2.762 17.55 17.55 0 0 1-.267 3.632z" fill="#fff"/></g></g></g><g data-name="グループ化 249"><g data-name="グループ化 244"><g data-name="グループ化 241"><path data-name="パス 479" d="M139.954 89.362c7.745-4.362-1.74-10.2-1.74-10.2s11.207 1.015 7.555-7.088c-4.362-7.746-10.1 2.05-10.1 2.05s1.016-11.2-7.089-7.554c-7.745 4.364 1.882 10.185 1.882 10.185a.218.218 0 0 0 0 .023l-.01-.016s-11.208-1.015-7.555 7.089c3.612 6.411 8.167.8 9.627-1.318l.569 3.312c.543 2.783 2.181 5.627 6.861 3.517z" fill="#99cf16"/><path data-name="パス 480" d="M133.132 75.847a7.9 7.9 0 0 1-1.861-2.664c-.885-1.646-.325-2.987.49-1.186a20.589 20.589 0 0 1 1.371 3.85zm-.8 3.035a23.984 23.984 0 0 1-3.518 2.6c-1.823 1.154-1.672-.146.138-1.145a10.972 10.972 0 0 1 3.38-1.455zm3.805-1.791a25.537 25.537 0 0 1 4.088-2.225c2.095-.944 1.756.413-.3 1.2a11.509 11.509 0 0 1-3.787 1.025zm-1.037 2.906a8.812 8.812 0 0 1 2.227 2.892c1.066 1.788.448 3.269-.541 1.306a21.812 21.812 0 0 1-1.685-4.198z" fill="#fff"/></g><g data-name="グループ化 242"><path data-name="パス 481" d="M132.3 90.325c-5.77-1.132-3.43 5.932-3.43 5.932s-5.172-5.445-6.815.2c-1.133 5.768 5.933 3.429 5.933 3.429s-5.232 5.185.413 6.829c3.332.655 3.959-1.423 3.895-3.3l-.132-2.219c1.26 1.146 5.038 4.073 6.4-.6 1.133-5.769-5.933-3.429-5.933-3.429v.012s0-.01-.007-.015 5.321-5.194-.324-6.839z" fill="#99cf16"/></g><g data-name="グループ化 243"><path data-name="パス 482" d="M109.472 107.428c-4.268 5.745 4.719 6.876 4.719 6.876s-8.693 2.827-3.353 7.592c5.743 4.268 6.876-4.72 6.876-4.72s2.953 8.465 7.718 3.126c2.466-3.317.512-5.1-1.579-6.006l-2.507-1.019c1.919-.783 7.114-3.4 2.7-7.344-5.743-4.268-6.876 4.72-6.876 4.72l.011.01h-.02c-.007 0-2.923-8.571-7.689-3.235z" fill="#4dac27"/><path data-name="パス 483" d="M113.188 110.869c-1.276-.952-.125-1.161 1.017-.181a6.37 6.37 0 0 1 1.775 1.922 16.521 16.521 0 0 1-2.792-1.741zm7.043-.772c1.1-1.251 2.146-1.146.925.089a19.261 19.261 0 0 1-2.651 2.318 8.847 8.847 0 0 1 1.725-2.407zm-5.249 7.89c-.973 1.485-2.1 1.517-1 .033a20.465 20.465 0 0 1 2.454-2.831 9.253 9.253 0 0 1-1.455 2.798zm6.933-1.064c1.373 1.115.1 1.346-1.12.2a7.088 7.088 0 0 1-1.891-2.25 17.542 17.542 0 0 1 3.01 2.05z" fill="#fff"/></g></g><g data-name="グループ化 248"><g data-name="グループ化 245"><path data-name="パス 484" d="M122.19 22.594c.094-8.888-9.7-3.59-9.7-3.59s6.482-9.2-2.361-10.087c-8.888-.095-3.276 9.775-3.276 9.775s-9.2-6.483-10.086 2.363c-.093 8.889 9.762 3.462 9.762 3.462l.018.016h-.019s-6.482 9.2 2.361 10.087c7.358.078 4.778-6.672 3.672-9l3.153 1.163c2.682.917 5.963.919 6.476-4.189z" fill="#99cf16"/><path data-name="パス 485" d="M107.075 21.745a7.9 7.9 0 0 1-3.238.28c-1.868-.057-2.749-1.212-.782-1.017a20.556 20.556 0 0 1 4.02.737zm2.228 2.211a23.9 23.9 0 0 1 .493 4.347c.088 2.156-.962 1.375-.923-.692a10.989 10.989 0 0 1 .43-3.656zm.352-4.192a25.53 25.53 0 0 1 .117-4.652c.23-2.286 1.236-1.314.887.863a11.5 11.5 0 0 1-1.004 3.789zm2 2.351a8.808 8.808 0 0 1 3.618-.482c2.081-.029 3.055 1.246.86 1.121a21.826 21.826 0 0 1-4.48-.639z" fill="#fff"/></g><g data-name="グループ化 246"><path data-name="パス 486" d="M119.197 29.705c-3.866 4.431 3.422 5.935 3.422 5.935s-7.3 1.757-3.235 6c4.429 3.865 5.935-3.423 5.935-3.423s1.874 7.123 6.12 3.056c2.233-2.558.747-4.14-.907-5.021l-1.988-1c1.622-.518 6.046-2.326 2.68-5.842-4.429-3.865-5.935 3.424-5.935 3.424l.008.009h-.016s-1.837-7.204-6.084-3.138z" fill="#99cf16"/></g><g data-name="グループ化 247"><path data-name="パス 487" d="M122.597 58.027c2.842 6.569 8.314-.648 8.314-.648s-1.9 8.941 4.9 6.7c6.568-2.84-.65-8.315-.65-8.315s8.807 1.675 6.565-5.121c-1.64-3.794-4.157-2.991-5.991-1.635l-2.136 1.662c.281-2.053.614-7.861-5.012-6.006-6.568 2.839.65 8.315.65 8.315h.015c0 .005-.007.011-.01.017s-8.885-1.762-6.645 5.031z" fill="#4dac27"/><path data-name="パス 488" d="M127.432 56.529c-1.462.63-1.067-.472.352-.971a6.356 6.356 0 0 1 2.553-.576 16.543 16.543 0 0 1-2.905 1.547zm2.853-6.486c-.535-1.577.081-2.431.539-.756a19.268 19.268 0 0 1 .682 3.456 8.848 8.848 0 0 1-1.22-2.7zm4.208 8.49c.8 1.586.264 2.577-.47.879a20.558 20.558 0 0 1-1.224-3.541 9.272 9.272 0 0 1 1.695 2.663zm2.545-6.536c1.653-.631 1.217.585-.387 1.07a7.088 7.088 0 0 1-2.893.513 17.578 17.578 0 0 1 3.281-1.582z" fill="#fff"/></g></g></g></g></svg>