<svg xmlns="http://www.w3.org/2000/svg" width="104.235" height="80.313" viewBox="0 0 104.235 80.313"><path data-name="パス 11130" d="M90.557 14.8c.145.655-.387 1.774-.54 2.435-.236 1.04-.533 2.051-.794 3.083-.54 2.136-1.14 4.228-1.726 6.34A40.02 40.02 0 0 1 85.574 32c-.771 1.775-1.436 4.806-2.986 5.917-1.446 1.032-3.379 1.594-4.936 2.467-1.828 1.024-3.656 2.048-5.475 3.09-1.992 1.14-4.029 2.15-6.116 3.1a12.73 12.73 0 0 0-4.406 2.676.837.837 0 0 0-.07.84 33.129 33.129 0 0 0 2.349 4.515c.187.354.617.904.946 1.427-.539-.249-1.099-.564-1.495-.753-1.232-.59-2.386-1.425-3.602-2.072-.86-.457-1.85-1.312-2.797-1.419a3.6 3.6 0 0 0-2.04.731.619.619 0 0 0-.211.192.769.769 0 0 0-.675-.026c-5.63 2.614-11.773 4.24-17.192 7.314a203.658 203.658 0 0 0-8.098 4.82c-.48.303-1.122.907-1.753.85-.433-.04-1.14-.572-1.57-.74a40.762 40.762 0 0 0-4.546-1.63 21.666 21.666 0 0 1-4.254-1.371c-1.058-.534-1.99-1.237-3.088-1.704a14.381 14.381 0 0 1-1.979-.784c-1.004-.623-.7-1.346-.66-2.378.063-1.607.247-3.186.316-4.79a31.7 31.7 0 0 0-.008-3.977 22.01 22.01 0 0 1-.171-5.033c.177-.907 1.21-1.801 1.849-2.464a25.547 25.547 0 0 1 4.252-3.324c3.134-2.083 6.26-4.19 9.423-6.227 2.782-1.791 5.485-3.854 8.338-5.561a.842.842 0 0 0 .815.06c8.543-3.968 17.157-7.75 25.704-11.733 2.034-.948 3.92-2.09 6.264-2.06a47.675 47.675 0 0 1 6.748.724c2.216.353 4.443.446 6.66.831 1.096.191 2.185.512 3.284.676.93.136 2.505.02 3.372.605a.914.914 0 1 0 1.046-1.491c-1.584-1.063-3.637-.862-5.346-1.21-2.44-.5-4.866-.868-7.32-1.129-4.44-.475-9.074-1.8-13.128.072-8.983 4.147-18.008 8.177-26.97 12.348a.732.732 0 0 0-.746-.044c-3.35 1.827-6.452 4.255-9.667 6.328-3.263 2.103-6.492 4.272-9.725 6.425a36.087 36.087 0 0 0-3.906 3.018 13.39 13.39 0 0 0-1.13 1.237 9.868 9.868 0 0 0-1.309 1.295c-.51.866-.16 2.228-.155 3.251.009 2.022.253 4.059.146 6.06-.08 1.528-.209 3.042-.298 4.565-.068 1.102-.553 3.149.052 4.225.53.944 1.967 1.335 2.8 1.661 1.453.569 2.678 1.45 4.075 2.114a24.735 24.735 0 0 0 4.368 1.404 34.869 34.869 0 0 1 5.673 2.14 2.123 2.123 0 0 0 1.813.25c1.745-.53 3.33-1.916 4.907-2.814 3.502-1.991 6.884-4.235 10.682-5.643 3.83-1.418 7.675-2.875 11.373-4.594a.653.653 0 0 0 .296-.269.779.779 0 0 0 .736.029c1.785-.967 4.438 1.451 6.182 2.421a11.944 11.944 0 0 0 4.083 1.69.668.668 0 0 0 .683-.642 4.653 4.653 0 0 0-.918-2.313 39.312 39.312 0 0 1-2.74-4.958c1.516-1.449 3.785-2.089 5.612-2.948 2.115-.986 4.12-2.18 6.142-3.34 2.007-1.156 4.02-2.336 6.103-3.344 1.57-.76 2.934-1.072 3.785-2.72a79.957 79.957 0 0 0 4.527-11.619c.719-2.173 1.16-4.48 1.766-6.703.367-1.344 1.284-3.278.957-4.75-.238-1.061-1.917-1.15-1.658.01z" opacity=".598"/><text data-name="お気軽にどうぞ!" transform="rotate(-25 115.77 -94.844)" fill="#535350" font-size="9" font-family="Toppan-BunkyuMidashiGoStdN-EB, Toppan BunkyuMidashiGoStdN"><tspan x="-32.593" y="0">お気軽にどうぞ!</tspan></text></svg>