<svg xmlns="http://www.w3.org/2000/svg" width="26.614" height="47.943" viewBox="0 0 26.614 47.943"><path d="M.276 29.844c.1.018.207 0 .229-.055a1.441 1.441 0 0 0 .057-.287 3.012 3.012 0 0 0-.557-.352v-.771l.259-.161-.25-.156v-.31l.4-.227h.309l.182.275c.061.061.287.15.468.263l-.259.164c.187.08.314.177.291.318l.195.109c.018.048.057.1.049.142-.026.138.035.25.242.332a.382.382 0 0 0 .3.316v.307l.283.173v.3l.282.171v.3a3.837 3.837 0 0 0 .4.22c.169.071.118.18.186.263l.5.281v.3l.283.172v.148l.275.166.015.156.485.273c.017.047.029.1.05.143.052.117.349.17.274.322l.549.347v.14l.274.166.017.156.776.437c.055.165.074.2.291.319l.014.14 1.339.752.03.152 1.013.567.127.273.781.44v.179l.383.191a.627.627 0 0 0 .372-.015c.073-.035.1-.08.075-.138-.01-.023-.015-.047-.023-.072l-.2-.111c-.108-.091-.032-.2-.065-.322a1.7 1.7 0 0 1-.219-.15.12.12 0 0 1 .011-.207 2.1 2.1 0 0 1 .2-.117l-.256-.166v-.147l.259-.161-.276-.171v-.3l-.206-.116c-.019-.022-.055-.043-.054-.064a3.009 3.009 0 0 1 .044-.454c.013-.058.123-.074.228-.055a.486.486 0 0 0 .007.208c.029.066.119.118.39.147.09.013.053-.028 0-.044-.115-.031-.172 0-.115.066a.427.427 0 0 0 .16.07c.01 0 .085-.039-.043-.092-.122-.116-.1-.189-.129-.254s-.118-.118-.268-.1c0-.026.019-.06 0-.076-.08-.057-.174-.108-.262-.162l.4-.224h.265c.214-.158.214-.158 0-.314h-.258l-.686-.386v-.308a.878.878 0 0 1 .22-.074 5.3 5.3 0 0 0 .8-.034c.156-.169.067-.346.062-.52a.334.334 0 0 0-.225-.069c-.166 0-.28.026-.3.107s-.006.151-.144.2h-.268c-.03-.015-.087-.03-.092-.049a1.373 1.373 0 0 1 0-.827c.006-.017.062-.03.094-.044l.784.441a1.666 1.666 0 0 0 .637-.017c.029-.009.064-.04.056-.053a.152.152 0 0 0-.093-.053c-.086-.011-.176-.01-.285-.015l-.406-.219-.023-.294a1 1 0 0 0-.432-.245c-.347.181-.347.181-.658.06v-.3l.273-.167c0-.081-.016-.156.115-.212a.8.8 0 0 0 .16-.116.857.857 0 0 0-.006-.232c-.012-.044-.083-.083-.128-.124a1.254 1.254 0 0 0-.138.118c-.018.021.013.056-.006.076-.039.038-.112.105-.144.1-.1-.013-.13-.067-.128-.119v-.241l-.263-.166.265-.163v-.146l.273-.168c-.03-.2-.03-.2-.249-.22-.044-.005-.1.006-.136 0-.1-.022-.141-.057-.127-.1l.217-.123-.234-.162.24-.155-.264-.165v-.609l-.263-.163c-.111-.172.205-.219.266-.334v-.232a1.262 1.262 0 0 0-.138-.122c-.195-.137-.2-.18.017-.319.029-.02.064-.037.107-.061l-.256-.166v-.445l-.268-.166.263-.164a1.391 1.391 0 0 1 .061-.559l.355.182c.219-.1.118-.233.126-.353 0-.032-.1-.067-.141-.1l-.257.122-.421-.205.272-.17c.035-.126-.044-.21-.2-.252-.12-.112-.059-.215-.07-.314a1.2 1.2 0 0 1 0-.232c.008-.1-.034-.2.035-.3l.2-.112a1.281 1.281 0 0 0 .04-.468l-.265-.174v-.3l.261-.161v-.458l-.26-.161.262-.165v-.24c0-.053.031-.106.127-.119a.2.2 0 0 1 .14.1c.013.077.025.186.148.185s.125-.113.142-.189c.01-.043.085-.089.152-.117.13-.057.13-.133.107-.206-.009-.03-.1-.052-.156-.075-.109.033-.148.14-.3.1s-.046-.143-.1-.2a1.486 1.486 0 0 0-.245-.161v-.313c.046-.026.081-.043.11-.062.216-.144.216-.163.008-.319s-.192-.177.026-.318c.03-.02.064-.037.105-.06l-.262-.164v-.3l.28-.168v-.606l.258-.164c.053-.134-.072-.206-.212-.27-.1-.1-.04-.2-.051-.3a1.058 1.058 0 0 1 0-.232c.009-.1-.041-.2.042-.3l.2-.109c.14-.154-.059-.232-.23-.324v-.459l.264-.161v-.149l-.266-.161v-.929l.205-.116c.122-.142.046-.3.06-.445.012-.129 0-.258 0-.387v-.44l.249-.141a1.775 1.775 0 0 0 0-.646l-.222-.125a2.917 2.917 0 0 1-.029-.617l.267-.174v-.613l-.264-.161v-.149l.273-.164.013-.149.246-.162-.208-.118c-.017-.021-.047-.043-.049-.065-.026-.363.01-3.158.042-3.544l.213-.12-.247-.167v-.297l-.277-.17.258-.16-.2-.112c-.023-.02-.06-.04-.064-.062a.793.793 0 0 1 0-.154V3.377a.2.2 0 0 0-.027-.07l-.205-.116c-.127-.265.039-.549-.08-.818l-.2-.112a1.281 1.281 0 0 1-.037-.456 3.617 3.617 0 0 1 .548-.337v-.2l.54-.238a.986.986 0 0 1 .044-.2c.01-.022.061-.037.1-.059h.563l.37-.235-.235-.158c.214-.12.427-.249.659-.365a1.012 1.012 0 0 1 .272-.019l.293.149.287-.144.485.274a.432.432 0 0 0 .113.03c.346-.026.433.154.622.242v.608l-.283.182v.448l-.8.45v2.011l.267.161v1.386l.269.161v5.87l-.255.162c-.123.165.2.211.217.329l-.213.12v.314l.247.161v.3l-.264.161v.3l.265.163-.221.125c-.113.184-.025.389-.041.59-.017.232 0 .464 0 .7v.594l-.226.128c-.1.172-.037.351-.046.527-.01.206 0 .412 0 .618v.541c0 .207.006.413 0 .619a1.249 1.249 0 0 1-.04.529l-.2.11c-.013.023-.035.046-.035.069v2.563l-.257.169.249.157-.261.161v.616l.2.113c.131.169.07.344.041.518-.033.018-.064.051-.1.052-.18.005-.362 0-.518 0-.154.05-.18.116-.185.2s-.15.12-.23.178c-.013.009 0 .039.022.052a.21.21 0 0 0 .1.043h.52c.052.029.112.047.113.066.006.256 0 .511 0 .761l.293.18v1.85l-.261.16.264.166c-.03.2-.033.2-.257.219-.269.022-.381.137-.247.255a1.166 1.166 0 0 0 .192.11 1.353 1.353 0 0 1 .038.469l.263.172v.91l.282.173v.923l-.266.162v.306c.177.146.566.2.543.42a2.479 2.479 0 0 1-.549.354v.214c0 .119 0 .117.326.172a1.4 1.4 0 0 1 .221.074v.77l.271.163v.458l-.254.162v.312l.517.291v.315l-.257.167a3.455 3.455 0 0 0 .008.44c.005.034.111.08.183.09a.458.458 0 0 0 .356-.075v-.511l.566-.306v-.574l.242-.136.027-.3.248-.173v-.252c.088-.14.395-.19.289-.353l.276-.169v-.147l.283-.171v-.292l.267-.185c-.075-.152.254-.2.264-.322s.183-.171.238-.256c.076-.117.1-.241.314-.313v-.308l.557-.33.016-.155c.113-.075.282-.125.264-.25s.255-.14.265-.245a.2.2 0 0 1 .151-.2c.2-.077.063-.244.286-.323a2.422 2.422 0 0 0 .391-.212v-.154l.274-.166.018-.158c.176-.081.326-.172.263-.3l.514-.289c-.014-.137.1-.239.29-.318l.014-.155.548-.324.02-.158c.2-.076.288-.185.29-.3l.369-.237h.562c.231-.1.091-.241.141-.381.1-.059.223-.134.352-.2a.45.45 0 0 1 .363 0 1.543 1.543 0 0 0 .572.162c.034.009.052.038.088.066v.291l1.465.825a7.514 7.514 0 0 0 .809.02c.226.113.579.176.456.383l.26.147-.255.176c0 .076.005.177 0 .278 0 .06-.193.109-.317.1a.839.839 0 0 1-.319-.128c-.135-.054-.229-.04-.449.051l.248.158a.281.281 0 0 1-.235.072c-.16-.016-.27.03-.292.109s-.018.15-.146.2h-.267l-.294.154-.277.01c-.253.154-.072.342-.124.522l-.267.167v.143l-.283.173v.307c-.2.075-.3.18-.3.316-.335.081-.161.344-.485.428l-.058.325-.245.163v.6l-.282.175v.3l-.283.173v.3l-.283.177v.3l-.206.117c-.124.167 0 .349-.1.518l-.2.114a2.729 2.729 0 0 0-.033.619l-.26.173v.6l-.283.175v.608l-.282.173v.611l-.234.131c-.1.253.013.534-.062.808l-.2.111c-.135.218.02.451-.093.671l-.194.11a1.275 1.275 0 0 0-.041.468l-.262.174v.907l-.282.176v.144l-.283.173v.451l-.255.165c.358.219.358.231.024.435-.013.022-.037.045-.037.068v.709l-.253.167-.022.149-.271.168v.763l-.282.173v.3l-.283.178v.3l-.208.118c-.137.219.02.452-.1.672a.779.779 0 0 0-.189.111c-.074.085-.018.2-.2.263-.14.048-.084.135-.128.2a1.008 1.008 0 0 1-.263.179v.3l.534.31c-.1.1-.25.073-.384.079l-.293.152a2.622 2.622 0 0 0-.581-.287l-1.166.656-.034.146a3.255 3.255 0 0 1-1.565.384c-.028-.02-.078-.039-.079-.059-.006-.205 0-.409 0-.6l-.29-.185v-.3c-.141-.078-.268-.139-.272-.259 0-.062-.139-.121-.241-.2a.077.077 0 0 1-.02-.044v-.4l-.258-.167-.017-.149.275-.167v-.263c-.011-.014-.013.028 0 .031a.257.257 0 0 0 .213-.039c.056-.037.048-.067-.054-.1a.172.172 0 0 0-.084.019.118.118 0 0 0-.076.085.167.167 0 0 1-.135.033c-.421-.233-.838-.469-1.249-.7v-.773l-.233-.131c-.008-.056-.018-.129-.032-.2-.009-.049.009-.123-.04-.142-.2-.082-.19-.217-.295-.319-.087-.084-.22-.143-.228-.259 0-.06-.153-.117-.253-.186v-.445l-.281-.17v-.3l-.275-.165-.014-.155-.486-.275c-.094-.093-.029-.2-.051-.3a.081.081 0 0 0-.045-.064c-.223-.072-.2-.213-.292-.319a.9.9 0 0 0-.2-.116v-.318l-.846-.478v-.308l-.5-.283c-.055-.086-.024-.188-.184-.263-.245-.114-.463-.246-.678-.363v-.169L2.502 36.43l-.032-.167a2.137 2.137 0 0 0-.36-.2 3.063 3.063 0 0 0-.461-.1v-.478l-.282-.171v-.292l-.8-.45v-.6l-.291-.19v-.362c0-.121 0-.119.323-.173a1.326 1.326 0 0 0 .221-.072c-.009-.072.07-.169-.089-.2-.14-.031-.19.07-.312.117l-.361-.189a.5.5 0 0 1-.054-.146c-.006-.2 0-.411 0-.617 0-.022.025-.045.038-.068l.193-.109c.014-.022.04-.045.04-.067v-1.327l.242-.165c-.044-.167-.414-.023-.505-.162l.263-.162zm18.67 3.786v-.464c.062-.034.128-.069.192-.106.03-.018.055-.038.083-.058a.587.587 0 0 0-.019-.15c-.007-.021-.06-.037-.092-.055-.384.17-.4.2-.477.382l-.236.17v.408c-.064.115-.376.162-.271.326l-.275.17v.3l-.281.171v.3l-.282.174v.3c-.127.08-.285.133-.269.256s-.271.14-.263.244c.01.122-.128.181-.266.259v.449l-.275.176-.015.15-.274.165v.3l-.274.165-.014.15-.275.175v.44l-.259.174c-.017.167.034.32-.043.469l-.2.114-.07.348-.211.119-.027.162a2.634 2.634 0 0 0 .368.207.464.464 0 0 0 .46-.052v-.146l.282-.173v-.292l.282-.184v-.28l.249-.172.026-.3.241-.136v-.446l.281-.183v-.292l.282-.173v-.3l.282-.17v-.3l.281-.176v-.443l.261-.173a1.3 1.3 0 0 1 .04-.468l.205-.116.067-.347.225-.127v-.449l.274-.176.015-.15zm-6.864-1.693c0 .1-.005.2 0 .3 0 .018.054.041.091.052a.182.182 0 0 0 .18-.059v-.476a2.774 2.774 0 0 1-.272-.137c-.076-.048-.13-.07-.191-.047-.139.054-.072.134-.084.2zm.824-19.643v-.172a2.99 2.99 0 0 1-.274-.141c-.076-.048-.128-.068-.191-.045-.084.031-.1.073-.088.131a1.2 1.2 0 0 1 0 .225.491.491 0 0 0 .553.002zm-2.741 11.443l-.382-.215c-.056.024-.155.045-.16.073-.02.1-.058.211 0 .292.08.1.278.107.447.053.148-.048.073-.134.095-.203zm.411 4.252h-.3a2.722 2.722 0 0 1-.249.154c-.087.043-.123.072-.081.108a.313.313 0 0 0 .232.049c.132-.008.266 0 .4 0 .172-.155.172-.155-.006-.311zm1.1 9.9c.119-.047.145-.115.138-.194-.01-.1.041-.2-.139-.268-.119.047-.146.115-.138.193.004.092-.047.202.134.264zm-1.374-21.028l.375-.211c-.034-.146-.234-.086-.376-.1-.201.101-.2.203-.004.306zm8.511 18.092c-.119.047-.145.115-.138.193.01.1-.041.2.139.269.119-.047.146-.115.138-.194-.014-.099.037-.206-.144-.273zm-.273 2.163c-.2.1-.2.205 0 .309l.094-.05a.618.618 0 0 0 .092-.053c.06-.052.239-.074.172-.156s-.241-.044-.363-.055zm-5.9-25.974c0 .025-.012.053 0 .074a.189.189 0 0 0 .091.052.169.169 0 0 0 .177-.057c.017-.021-.006-.051 0-.074.026-.058 0-.1-.1-.127a.138.138 0 0 0-.177.127zm7 23.655q-.3.154 0 .31.289-.161-.008-.315zm-8.236-8.041q-.3.156 0 .31.288-.159-.008-.315zm-1.749-4.234c.031.018.059.047.094.05a1.552 1.552 0 0 0 .264 0 .179.179 0 0 0 .1-.047.04.04 0 0 0 .007-.052.467.467 0 0 0-.452 0c-.02.012-.011.033-.013.049zm10.483 11.316a.346.346 0 0 0 .093-.005.129.129 0 0 0-.007-.254.191.191 0 0 0-.092 0 .13.13 0 0 0 .006.261zm-8.651-2.192c.031-.034 0-.07-.094-.1a.224.224 0 0 0-.087.049c-.036.033 0 .07.092.1.011.005.059-.03.089-.047zm.961-18.065a.174.174 0 0 0 .178-.054c.006-.005-.052-.036-.087-.049a.168.168 0 0 0-.177.053c-.006.007.056.034.086.052zm.137 19.921c.031-.035 0-.071-.094-.1a.236.236 0 0 0-.087.05c-.036.032 0 .07.093.1.01.004.058-.03.088-.048zm7.23-.31c.031.018.079.053.089.049.1-.029.129-.067.093-.1a.232.232 0 0 0-.087-.049c-.096.03-.125.068-.095.102zm-9.106-10.849a.624.624 0 0 0-.092-.051.169.169 0 0 0-.177.052c-.006.006.052.037.087.049a.185.185 0 0 0 .182-.048z" fill="#805b4c"/></svg>