<svg xmlns="http://www.w3.org/2000/svg" width="300.816" height="483.527" viewBox="0 0 300.816 483.527"><defs><filter id="a" x="0" y="32.111" width="288.333" height="451.416" filterUnits="userSpaceOnUse"><feOffset dy="1"/><feGaussianBlur stdDeviation=".5" result="blur"/><feFlood flood-opacity=".161"/><feComposite operator="in" in2="blur"/><feComposite in="SourceGraphic"/></filter><filter id="b" x=".107" y="0" width="300.709" height="398.86" filterUnits="userSpaceOnUse"><feOffset dy="3"/><feGaussianBlur result="blur-2"/><feFlood flood-opacity=".161"/><feComposite operator="in" in2="blur-2"/><feComposite in="SourceGraphic"/></filter><filter id="c" x="30.221" y="186.997" width="39.192" height="21.637" filterUnits="userSpaceOnUse"><feOffset dy="3"/><feGaussianBlur result="blur-3"/><feFlood flood-opacity=".161"/><feComposite operator="in" in2="blur-3"/><feComposite in="SourceGraphic"/></filter><filter id="d" x="20.816" y="148.266" width="52.969" height="33.085" filterUnits="userSpaceOnUse"><feOffset dy="3"/><feGaussianBlur result="blur-4"/><feFlood flood-opacity=".161"/><feComposite operator="in" in2="blur-4"/><feComposite in="SourceGraphic"/></filter></defs><g opacity=".996"><g data-name="輪郭" fill="none" stroke-linecap="round" stroke-linejoin="round" opacity=".592" filter="url(#a)" transform="translate(.005 .001)"><path d="M77.8 34.61c48.6 0 88 60.01 88 134.035 0 33.644 61.516 134.185 103.889 215.874 9.072 17.489 13.929 59.431 15.089 61.257 3.376 5.319-160.8 54.992-193.914 22.043-13.113-13.047-10.3-31.338-.281-50.621 21.722-41.8 14.746-27.142 28.027-54.536s31.76-57.12 25.1-55.041c-2.3.74-19.254-25.541-32.048-22.949S77.8 300.504 77.8 300.504s-14.681 7.333-24.26 7.474c-2.315.037-4.5-.49-5.809-1.9-2.583-2.777-4.8-8.7-4.939-11.673-1.188-3.7 2.221-6.519 0-8.294-4.087-3.272-11.252-3.915-12.134-4.456-4.314-2.64-.875-11.162 7.545-14.159s-11.062 3.045-16.279 0c.065-.254 4.415-10.906 2.668-12.877-3.1-3.525-17.273-1.794-21.1-4.989 4.208-8.321 11.638-27.077 16.03-41.69 6.491-14.971-8.282-44.681-7.6-55.577.515-8.242.291-13.325 5.105-39.9C23.9 67.144 42.646 34.61 77.8 34.61z"/><path d="M77.8 34.61c-35.154 0-53.9 32.534-60.77 77.854-4.814 26.57-4.59 31.653-5.105 39.895-.682 10.896 14.091 40.606 7.6 55.577-4.392 14.613-11.822 33.369-16.03 41.69 3.824 3.194 18 1.464 21.097 4.988 1.747 1.971-2.602 12.624-2.668 12.878 1.11.647 2.863.883 4.857.883 5.414 0 12.594-1.744 13.426-1.744.302 0-.235.231-2.004.86-8.42 2.998-11.859 11.52-7.545 14.16.882.54 8.047 1.184 12.134 4.456 2.22 1.775-1.188 4.596 0 8.294.142 2.976 2.356 8.896 4.939 11.673 1.271 1.367 3.354 1.905 5.585 1.905.074 0 .15 0 .224-.002 9.578-.14 24.26-7.473 24.26-7.473s21.066-13.239 33.86-15.831a9.194 9.194 0 0 1 1.831-.18c12.343 0 27.575 23.144 30.113 23.144a.34.34 0 0 0 .104-.015 1.97 1.97 0 0 1 .583-.104c4.852 0-12.842 28.663-25.681 55.144-13.282 27.394-6.306 12.734-28.028 54.536-10.02 19.283-12.832 37.575.281 50.621 8.142 8.1 24.202 11.207 43.75 11.207 59.961 0 152.71-29.238 150.164-33.25-1.16-1.826-6.017-43.767-15.088-61.257C227.316 302.831 165.8 202.29 165.8 168.645c0-74.025-39.399-134.035-88-134.035m0-2c6.173 0 12.34.947 18.33 2.814 5.822 1.814 11.544 4.519 17.007 8.038 5.341 3.441 10.489 7.696 15.299 12.645 4.748 4.886 9.21 10.492 13.261 16.663 4.042 6.157 7.71 12.927 10.902 20.124 3.218 7.254 5.981 15.007 8.213 23.043 2.27 8.177 4.014 16.733 5.182 25.43a205.613 205.613 0 0 1 1.806 27.278c0 5.662 1.905 13.821 5.663 24.253 3.45 9.58 8.433 21.087 15.233 35.179 12.688 26.296 29.355 56.767 47.002 89.028 12.128 22.173 24.67 45.101 35.766 66.494 6.75 13.013 11.148 38.87 13.51 52.761.643 3.78 1.307 7.686 1.58 8.494.38.71.366 1.56-.046 2.309-.451.82-1.471 1.848-5.84 3.795-2.928 1.305-6.888 2.818-11.77 4.498-10.513 3.617-24.008 7.553-38 11.083-16.452 4.152-33.18 7.636-48.373 10.078-18.208 2.925-34.328 4.409-47.912 4.409-10.396 0-19.351-.882-26.618-2.62-3.945-.945-7.472-2.162-10.481-3.618-3.206-1.552-5.919-3.42-8.061-5.551-3.386-3.369-5.893-7.213-7.45-11.426-1.468-3.97-2.126-8.357-1.954-13.037.16-4.331 1.034-9.031 2.6-13.97 1.442-4.552 3.515-9.44 6.159-14.528 8.454-16.27 12.521-23.911 15.212-28.968 4.157-7.81 4.691-8.814 12.79-25.518 4.33-8.93 9.242-18.17 13.577-26.322 3.584-6.74 6.97-13.108 9.314-17.977 1.228-2.551 2.103-4.544 2.672-6.09.302-.82.482-1.418.589-1.847-.89-.232-1.747-.94-2.824-2.014-.994-.989-2.215-2.346-3.63-3.917-3.11-3.458-6.983-7.761-11.17-11.264-4.654-3.892-8.64-5.866-11.847-5.866-.492 0-.975.047-1.434.14-12.293 2.49-32.985 15.434-33.193 15.564a2.029 2.029 0 0 1-.17.096c-.154.077-3.817 1.9-8.721 3.764-6.679 2.54-12.198 3.859-16.404 3.92l-.253.002c-3.065 0-5.503-.88-7.05-2.543-1.828-1.966-3.148-4.835-3.773-6.37-.948-2.334-1.555-4.612-1.683-6.31-.638-2.259-.04-4.2.402-5.631.145-.469.359-1.162.352-1.439a.65.65 0 0 0-.021-.017c-2.59-2.074-6.81-2.99-9.331-3.537-1.376-.3-2.066-.449-2.6-.776-2.036-1.246-3.048-3.468-2.775-6.094.232-2.23 1.373-4.603 3.214-6.682.12-.136.242-.27.367-.402a37.99 37.99 0 0 1-3.637.197c-2.613 0-4.531-.378-5.865-1.156a2 2 0 0 1-.929-2.226c.035-.135.065-.214.21-.592 2.969-7.774 2.862-10.1 2.784-10.572-.296-.255-1.07-.713-3.03-1.108-1.802-.364-4.063-.572-6.25-.773-4.71-.433-9.16-.843-11.488-2.787a2 2 0 0 1-.502-2.438c4.127-8.162 11.5-26.73 15.9-41.363a2 2 0 0 1 .08-.22c1.66-3.83 1.929-9.167.82-16.32-.999-6.446-2.989-13.47-4.744-19.669-2.207-7.792-4.113-14.522-3.839-18.917.066-1.045.12-2.06.173-3.04.364-6.777.74-13.785 4.956-37.058 1.773-11.689 4.308-22.324 7.534-31.612 3.412-9.823 7.65-18.285 12.595-25.151 5.259-7.3 11.412-12.927 18.288-16.722a47.696 47.696 0 0 1 11.416-4.494c4.082-1.027 8.426-1.547 12.91-1.547z" fill="#707070"/></g><path data-name="髪" d="M210.889 11.04c23.187.676 70.983 24.816 72.549 25.648 26.372 30.888 47.144 62.475 48.5 134.88.756 40.244-4.575 93.426-18.424 166.364-10.73 61.44-123.8 65.317-123.8 65.317s60.94-99.226 41.189-87.773c-10.187 5.907-72.071 53.635-86.251 48.52-4.98-1.8 54.193-104.644 54.193-104.644s-35.178 36.978-31.037 20.285c.372-1.5 14.952-48.127 0-91.679-3.973-11.572-13.859-26.4-29.1-33.618-31.089-14.725-103.138 9.056-106.935-31.187-2.028-21.49 2.77-42.81 9.366-52.689C46.588 62.3 56.231 53.8 71.316 37.19c9.081-7.211 49.709-21.854 61.171-23.561 27.308-11.914 75.868-3.221 78.402-2.589z" transform="translate(-31.195 -7.389)" fill="#c1c1c1" filter="url(#b)"/><g data-name="目" fill="none" opacity=".5" filter="url(#c)" transform="translate(.005 .001)"><path d="M67.791 189.036c1.053 3.443-8.175 8.295-17.836 11.248s-18.344 2.557-19.396-.884c-.558-1.827 9.034.846 18.537-1.932a46.849 46.849 0 0 0 8.094-3.481c1.287-.67 2.568-4.144 4.014-4.951 3.46-1.932 6.33-.84 6.587 0z"/><path d="M62.95 188.283c2.636-.805 4.63.059 4.841.753 1.052 3.44-8.175 8.294-17.835 11.248-9.66 2.953-18.344 2.557-19.397-.884-.084-.276.063-.45.406-.554 1.93-.59 10.063.98 18.13-1.378l.275-.082c2.44-.746 5.082-1.976 7.82-3.4 1.287-.668 2.568-4.143 4.014-4.95a8.962 8.962 0 0 1 1.747-.753z" fill="#707070"/></g><g data-name="眉" fill="none" opacity=".5" filter="url(#d)" transform="translate(.005 .001)"><path d="M23.38 178.017c-1.413-2.897 8.69-10.732 22.565-17.5s26.27-9.905 27.684-7.008c.75 1.539-12.883 2.845-26.527 9.378-11.472 5.494-23.06 16.488-23.722 15.13z"/><path d="M73.034 154.209c-2.772 1.352-14.348 3.13-25.932 8.678l-.324.157c-9.802 4.78-19.613 13.454-22.548 14.886-.468.228-.76.272-.85.087-1.413-2.897 8.69-10.732 22.566-17.5 13.875-6.768 26.27-9.905 27.683-7.008.113.232-.102.46-.595.7z" fill="#707070"/></g></g></svg>