<svg xmlns="http://www.w3.org/2000/svg" width="358.553" height="134.903" viewBox="0 0 358.553 134.903"><g data-name="グループ化 2458"><path data-name="パス 9431" d="M106.811 102.14s.209.151.289-.087l-.334-2.451s.211.12.688-.415c1.071-1.2 1.732-2.4 2.221-2.916s3.488-3.748 3.631-7.033c0 0 1.417-6.923.373-9.793 0 0-1.044-2.812-.767-3.184a9.547 9.547 0 0 0-5.038 2.577c-1.969 2.126-3.354 2.7-4.813 5.743s-.528 8.508.126 10 1.132 4.261 3.092 5.18a1.873 1.873 0 0 1 .089.97 2.3 2.3 0 0 0 .219 1.27.262.262 0 0 0 .224.139z" fill="#b3df7f"/><path data-name="パス 9432" d="M105.637 105.812s.046-.206-.124-.215l-1.479.848s.027-.2-.426-.463c-1.016-.592-1.929-.853-2.374-1.13s-3.2-1.971-5.321-1.316c0 0-4.731.467-6.31 1.994 0 0-1.542 1.512-1.843 1.373a8.506 8.506 0 0 0 2.82 3.512c1.813 1.109 2.506 2.1 4.778 2.582s5.53-1.565 6.328-2.451 2.441-1.925 2.565-3.741a1.076 1.076 0 0 1 .6-.3 1.374 1.374 0 0 0 .755-.478.265.265 0 0 0 .031-.215z" fill="#b3df7f"/><path data-name="パス 9433" d="M104.509 102.226c0 .01-.007.017-.008.026s.072.261-.295.584c-.254.225-5.465 1.71-8.995-1.135-5.09-4.1-5.866-7.671-6.5-10.793a49.032 49.032 0 0 1-.64-5.221 9.845 9.845 0 0 0-.777-2.538 6.839 6.839 0 0 0 2.391.794 16.4 16.4 0 0 1 15.2 11.362s1.332 4.175.682 6.36c-.095.321-.343.34-.579.346a4.714 4.714 0 0 0 1.647.97l.025.116c-.19.132-.193.243-.193.243-.449.106-1.467-.697-1.958-1.114z" fill="#b3df7f"/><path data-name="パス 9434" d="M109.129 102.24c0 .011.007.019.008.029s-.11.271.247.677c.247.284 5.7 2.7 9.863.171 6-3.645 7.268-7.382 8.335-10.658a52.94 52.94 0 0 0 1.324-5.545 10.4 10.4 0 0 1 1.146-2.623 7.274 7.274 0 0 1-2.681.487 17 17 0 0 0-9.386 1.459s-6.038 2.406-8.423 8.462c0 0-1.946 4.307-1.506 6.769.062.363.329.422.584.464a4.941 4.941 0 0 1-1.9.793l-.043.122c.189.172.179.292.179.292.476.185 1.673-.523 2.253-.899z" fill="#80c41c"/><path data-name="パス 9435" d="M105.366 105.724l.928.757 1.1 2.1 2.565 7.656.358-.692-3.042-8.64-.628-1.828.273-1.824.082-1.625s-.493.351-.467.645a10.9 10.9 0 0 1-.283 1.573l.178 2.056-.894-.553-.148.111z" fill="#a0642f"/></g><g data-name="グループ化 2459"><path data-name="パス 9436" d="M24.917 110.955l.02-.01s.192.057.413-.3c.153-.246 1.02-5.18-1.195-8.362-3.192-4.591-5.819-5.17-8.115-5.637a28.321 28.321 0 0 0-3.824-.385 6.035 6.035 0 0 1-1.877-.621 7.572 7.572 0 0 1 .674 2.2 18.045 18.045 0 0 0 2.2 7.744s2.383 4.788 6.684 6c0 0 3.09 1.074 4.651.377.231-.1.234-.335.228-.555a4.772 4.772 0 0 1 .772 1.5l.087.019c.087-.182.168-.19.168-.19.059-.421-.561-1.34-.886-1.78z" fill="#b3df7f"/><path data-name="パス 9437" d="M33.538 109.402s.068.192.206.089l.727-1.632s.08.174.568.086c1.1-.2 1.943-.6 2.433-.668s3.508-.549 4.834-2.449c0 0 3.467-3.458 3.926-5.684 0 0 .438-2.192.744-2.281a6.759 6.759 0 0 0-3.992-.9c-1.984.316-3.031-.012-5.054 1.1s-3.533 4.841-3.707 6.053-.933 3.1-.106 4.607a1.3 1.3 0 0 1-.314.624 1.643 1.643 0 0 0-.349.868.237.237 0 0 0 .084.187z" fill="#b3df7f"/><path data-name="パス 9438" d="M37.602 109.882v.022c0 .007-.153.144-.029.555.086.286 3.1 3.981 6.669 3.823 5.151-.228 7.109-2.3 8.793-4.128a35.265 35.265 0 0 0 2.523-3.281 6.7 6.7 0 0 1 1.548-1.356 5.612 5.612 0 0 1-1.968-.676 13.4 13.4 0 0 0-6.82-2.533s-4.817-.63-8.212 2.6c0 0-2.584 2.2-3 4.045-.063.27.1.411.262.535a3.591 3.591 0 0 1-1.524-.173l-.064.067c.079.188.037.267.037.267.261.304 1.28.271 1.785.233z" fill="#b3df7f"/><path data-name="パス 9439" d="M34.739 111.613l-.02.007s-.184-.084-.442.239c-.179.222-1.583 5 .264 8.467 2.66 5.007 5.2 5.953 7.43 6.742a28.8 28.8 0 0 0 3.751.925 6.233 6.233 0 0 1 1.794.882 7.8 7.8 0 0 1-.426-2.281 18.371 18.371 0 0 0-1.333-8s-1.838-5.088-5.971-6.9c0 0-2.948-1.5-4.574-1.032-.239.07-.268.3-.287.519a4.926 4.926 0 0 1-.6-1.6l-.084-.032c-.106.169-.188.165-.188.165a4.143 4.143 0 0 0 .686 1.899z" fill="#b3df7f"/><path data-name="パス 9440" d="M28.842 108.026l4.773 1.233 2.258.013.145.5-1.919-.1-.854-.131-3.961-.85z" fill="#b3df7f"/><path data-name="パス 9441" d="M23.234 118.776l2.99-6.164 3.261-4.237v-1.926l-.815 2.157-2.718 3.775-3.941 7.165z" fill="#a0642f"/></g><g data-name="グループ化 2460"><path data-name="パス 9442" d="M290.016 118.673c0-.011 0-.019-.006-.029s.1-.246-.223-.623c-.223-.261-5.2-2.529-9.032-.255-5.523 3.279-6.716 6.689-7.718 9.68a48.678 48.678 0 0 0-1.256 5.066 9.456 9.456 0 0 1-1.07 2.391 6.651 6.651 0 0 1 2.46-.418 15.576 15.576 0 0 0 8.608-1.242 15.025 15.025 0 0 0 7.783-7.669s1.815-3.925 1.432-6.184c-.057-.333-.3-.39-.531-.431a4.515 4.515 0 0 1 1.742-.707l.039-.113c-.171-.158-.161-.268-.161-.268-.43-.173-1.531.463-2.067.802z" fill="#b3df7f"/><path data-name="パス 9443" d="M285.534 110.826c0-.009.009-.017.013-.025s.219-.107.2-.635c-.014-.363-2.416-5.8-6.614-6.978-6.051-1.695-8.939-.037-11.437 1.45a38.469 38.469 0 0 0-3.9 2.849 7.388 7.388 0 0 1-2.2.986 7.366 7.366 0 0 1 2.087 1.535 17.716 17.716 0 0 0 7.172 5.539s5.41 2.564 10.311.106c0 0 3.652-1.575 4.686-3.555a.633.633 0 0 0-.146-.721 4.582 4.582 0 0 1 1.718.779l.1-.055c-.036-.246.035-.322.035-.322-.229-.453-1.425-.805-2.025-.953z" fill="#b3df7f"/><path data-name="パス 9444" d="M290.311 106.709a.187.187 0 0 0 .139-.259l-1.548-1.343s.2-.069.215-.747c.034-1.521-.189-2.75-.157-3.427s.205-4.849-1.49-7.061c0 0-2.85-5.443-5.082-6.559 0 0-2.2-1.078-2.224-1.51a10.954 10.954 0 0 0-1.838 5.178c-.11 2.743-.689 4.082.028 7.057s4.286 5.84 5.518 6.344 3.045 1.95 4.805 1.17a1.345 1.345 0 0 1 .584.562 1.647 1.647 0 0 0 .832.665.229.229 0 0 0 .218-.07z" fill="#b3df7f"/><path data-name="パス 9445" d="M291.725 101.34c.007.005.015.005.023.01s.115.239.574.163c.319-.052 4.864-3.283 5.495-8.134.907-6.993-.824-10.092-2.368-12.77a42.885 42.885 0 0 0-2.876-4.13 9.531 9.531 0 0 1-1.075-2.389 8.931 8.931 0 0 1-1.148 2.5 20.57 20.57 0 0 0-4.176 8.625s-1.734 6.351.894 11.647c0 0 1.732 3.972 3.571 4.95.271.144.453-.046.62-.234a6.109 6.109 0 0 1-.521 2.014l.057.1c.215-.063.288.011.288.011.371-.288.565-1.677.642-2.363z" fill="#80c41c"/><path data-name="パス 9446" d="M292.895 105.583v.03c0 .009-.131.229.151.65.193.29 4.882 3.246 8.933 1.531 5.841-2.469 7.4-5.684 8.724-8.51a47.124 47.124 0 0 0 1.8-4.847 9.138 9.138 0 0 1 1.326-2.222 6.588 6.588 0 0 1-2.486.068 15.5 15.5 0 0 0-8.678.013 14.387 14.387 0 0 0-8.566 6.506s-2.234 3.638-2.1 5.934c.019.338.254.428.48.5a4.4 4.4 0 0 1-1.807.456l-.053.106c.153.18.131.288.131.288.414.234 1.573-.242 2.145-.503z" fill="#b3df7f"/><path data-name="パス 9447" d="M287.823 112.727l2.357-6.157.517-3.038.559-.085-.533 2.564-.326 1.122-1.774 5.148z" fill="#a0642f"/><path data-name="パス 9448" d="M297.84 122.684l-5.794-5.4-3.713-5.34-2.019-.43 2.08 1.58 3.351 4.5 6.632 6.908z" fill="#a0642f"/></g><g data-name="グループ化 2461"><path data-name="パス 9449" d="M334.732 44.583l-.006-.028s.1-.246-.223-.624c-.223-.261-5.2-2.529-9.032-.254-5.523 3.278-6.716 6.688-7.718 9.68a48.612 48.612 0 0 0-1.257 5.065 9.458 9.458 0 0 1-1.07 2.391 6.652 6.652 0 0 1 2.46-.417 15.579 15.579 0 0 0 8.608-1.243 15.024 15.024 0 0 0 7.783-7.669s1.815-3.925 1.432-6.184c-.056-.333-.3-.39-.53-.431a4.5 4.5 0 0 1 1.742-.707l.04-.113c-.17-.158-.161-.268-.161-.268-.431-.174-1.533.463-2.068.802z" fill="#b3df7f"/><path data-name="パス 9450" d="M330.25 36.735c0-.01.008-.017.012-.026s.22-.107.2-.635c-.014-.363-2.417-5.8-6.614-6.978-6.051-1.695-8.939-.037-11.437 1.449a38.656 38.656 0 0 0-3.9 2.849 7.38 7.38 0 0 1-2.2.987 7.361 7.361 0 0 1 2.086 1.535 17.723 17.723 0 0 0 7.173 5.539s5.41 2.564 10.311.1c0 0 3.653-1.575 4.687-3.555a.634.634 0 0 0-.146-.721 4.583 4.583 0 0 1 1.718.779l.1-.055c-.036-.246.035-.322.035-.322-.229-.446-1.426-.798-2.025-.946z" fill="#80c41c"/><path data-name="パス 9451" d="M335.028 32.619a.186.186 0 0 0 .138-.259l-1.548-1.343s.2-.069.216-.747c.034-1.521-.19-2.751-.158-3.427s.206-4.85-1.49-7.061c0 0-2.85-5.443-5.083-6.559 0 0-2.2-1.078-2.224-1.51a10.943 10.943 0 0 0-1.837 5.178c-.111 2.743-.689 4.083.027 7.057s4.287 5.84 5.519 6.344 3.045 1.95 4.805 1.17a1.356 1.356 0 0 1 .584.562 1.641 1.641 0 0 0 .833.665.23.23 0 0 0 .218-.07z" fill="#b3df7f"/><path data-name="パス 9452" d="M336.436 27.25c.008 0 .015 0 .024.01s.114.239.575.164c.318-.052 4.863-3.284 5.494-8.134.908-6.993-.823-10.092-2.367-12.77a43.12 43.12 0 0 0-2.876-4.13A9.551 9.551 0 0 1 336.21.001a8.912 8.912 0 0 1-1.148 2.5 20.576 20.576 0 0 0-4.176 8.625s-1.734 6.35.894 11.647c0 0 1.732 3.972 3.57 4.95.27.144.454-.046.62-.234a6.1 6.1 0 0 1-.521 2.015l.058.1c.214-.063.287.01.287.01.376-.289.569-1.677.642-2.364z" fill="#b3df7f"/><path data-name="パス 9453" d="M337.612 31.494v.029c0 .009-.13.229.152.65.193.29 4.882 3.245 8.933 1.531 5.841-2.469 7.4-5.684 8.724-8.51a47.265 47.265 0 0 0 1.8-4.847 9.135 9.135 0 0 1 1.325-2.222 6.584 6.584 0 0 1-2.485.067 15.5 15.5 0 0 0-8.679.014 14.389 14.389 0 0 0-8.567 6.506s-2.233 3.638-2.1 5.934c.019.337.253.428.479.5a4.384 4.384 0 0 1-1.807.455l-.052.106c.153.18.131.289.131.289.412.234 1.579-.241 2.146-.502z" fill="#b3df7f"/><path data-name="パス 9454" d="M332.539 38.638l2.356-6.157.517-3.038.56-.085-.532 2.565-.327 1.122-1.774 5.148z" fill="#a0642f"/><path data-name="パス 9455" d="M342.556 48.594l-5.794-5.4-3.715-5.339-2.018-.429 2.079 1.579 3.351 4.5 6.633 6.908z" fill="#a0642f"/></g><g data-name="グループ化 2465"><path data-name="パス 9456" d="M47.618 69.64s-.077.245.127.28l1.886-.825s-.054.239.466.62c1.171.86 2.25 1.3 2.762 1.7s3.671 2.834 6.316 2.333c0 0 5.791.087 7.872-1.547 0 0 2.034-1.623 2.384-1.413a10.755 10.755 0 0 0-3.045-4.65c-2.082-1.6-2.814-2.9-5.521-3.8s-6.88 1.137-7.943 2.1-3.169 2-3.515 4.185a1.271 1.271 0 0 1-.756.282 1.626 1.626 0 0 0-.968.475.317.317 0 0 0-.065.26z" fill="#b3df7f"/><path data-name="パス 9457" d="M40.65 75.899s-.15.2.031.312l2.022-.007s-.127.2.24.768c.823 1.276 1.692 2.127 2.044 2.706s2.538 4.133 5.166 4.734c0 0 5.383 2.425 7.841 1.74 0 0 2.411-.693 2.672-.354a11.781 11.781 0 0 0-1.381-5.577c-1.442-2.334-1.715-3.849-3.963-5.779s-6.784-1.723-8.081-1.252-3.589.583-4.6 2.487a1.209 1.209 0 0 1-.8-.042 1.512 1.512 0 0 0-1.053.052.291.291 0 0 0-.138.212z" fill="#b3df7f"/><path data-name="パス 9458" d="M47.309 69.322a.187.187 0 0 0 .177-.242l-1.41-1.642s.215-.037.319-.729c.237-1.557.172-2.858.294-3.547s.855-4.942-.591-7.5c0 0-2.2-6.073-4.349-7.6 0 0-2.115-1.482-2.083-1.931a10.918 10.918 0 0 0-2.574 5c-.477 2.8-1.247 4.074-.908 7.248s3.625 6.726 4.825 7.456 2.866 2.52 4.775 2.02a1.476 1.476 0 0 1 .526.678 1.793 1.793 0 0 0 .766.822.228.228 0 0 0 .233-.033z" fill="#b3df7f"/><path data-name="パス 9459" d="M7.782 102.801c.476-.311.959-.607 1.443-.9s.963-.6 1.453-.876c.972-.575 1.952-1.129 2.935-1.677l-.143.122c.7-.981 1.408-1.958 2.126-2.922l.078-.1.123-.053a70.038 70.038 0 0 1 4.552-1.778l-.182.147 1.532-1.98c.508-.662 1.028-1.314 1.528-1.983l.014-.02.008-.007q.77-.742 1.52-1.509c.506-.5 1.953-2.292 2.45-2.807.946-1 .877-.74 1.946-1.927l.026-.023a28.318 28.318 0 0 1 4.343-3.361c.837-.688 1.753-1.253 2.412-1.772l1.937-1.5.646-.617c.852-.781 1.308-1.162 2.174-1.926s1.739-1.64 2.61-2.4l.651-.57.68-.557 1.234-1.369 2.711-2.12-.048.053c.349-.465.715-.913 1.073-1.371s.471-.893.84-1.339l.332.057c-.3.512-.6 1.016-.906 1.52s-.6 1.012-.92 1.505l-.013.021-.035.033-2.528 2.394-1.276 1.179-.627.575-.626.606c-.83.813-1.676 1.6-2.517 2.4s-1.7 1.57-2.55 2.357l-.023.023-.021.015-2.3 1.681c-.773.566-1.532 1.108-2.289 1.69a233.364 233.364 0 0 1-4.617 3.349l.031-.028c-1.03.986-2.066 2.415-3.074 3.426-.5.512-1.008 1.013-1.5 1.536s-.792.628-1.275 1.161l-.172.386c-.467.7-.914.967-1.372 1.675l-1.368 2.128-.057.089-.124.058a69.317 69.317 0 0 1-4.507 1.92l.2-.157c-.73.953-1.474 1.893-2.221 2.83l-.07.088-.074.035c-1.011.478-2.023.952-3.044 1.4-.508.234-1.842 1.317-2.355 1.538a1.447 1.447 0 0 1-.729-.232z" fill="#a0642f"/><path data-name="パス 9460" d="M32.245 85.185c-.007.006-.01.012-.015.018s-.2.023-.293.445c-.066.293.669 5.254 3.736 7.337 4.422 3.006 7.058 2.49 9.352 2a29.114 29.114 0 0 0 3.695-1.18 5.8 5.8 0 0 1 1.95-.174 6.809 6.809 0 0 1-1.321-1.788 16.321 16.321 0 0 0-4.485-6.352s-3.728-3.517-8.128-2.922c0 0-3.225.239-4.466 1.521-.183.188-.113.407-.04.61a4.187 4.187 0 0 1-1.191-1.09l-.087.017c-.026.206-.1.246-.1.246.079.423.951 1.031 1.393 1.312z" fill="#b3df7f"/><g data-name="グループ化 2462"><path data-name="パス 9461" d="M15.39 94.538s.06.183.192.089l.721-1.519s.071.167.535.1c1.038-.162 1.846-.509 2.31-.564s3.32-.424 4.613-2.178c0 0 3.344-3.168 3.825-5.257 0 0 .459-2.057.751-2.131a6.421 6.421 0 0 0-3.748-.963c-1.878.244-2.86-.093-4.792.9s-3.436 4.471-3.626 5.612-.946 2.9-.2 4.342a1.209 1.209 0 0 1-.308.582 1.522 1.522 0 0 0-.347.809.22.22 0 0 0 .074.178z" fill="#b3df7f"/><path data-name="パス 9462" d="M15.459 90.373h.017s.109.138.4.006a9.123 9.123 0 0 0 2.522-6.377c-.363-4.8-1.942-6.554-3.337-8.059a27.118 27.118 0 0 0-2.481-2.231 6.091 6.091 0 0 1-1.045-1.394 6.405 6.405 0 0 1-.415 1.864 14.877 14.877 0 0 0-1.58 6.47s-.274 4.525 2.2 7.575c0 0 1.7 2.33 3.055 2.652.2.048.294-.111.379-.265a4.261 4.261 0 0 1-.067 1.431l.052.056c.134-.081.192-.045.192-.045a3.582 3.582 0 0 0 .108-1.683z" fill="#b3df7f"/><path data-name="パス 9463" d="M14.136 93.204s0-.01.008-.014.137-.05.15-.364c.009-.218-1.15-3.609-3.59-4.578-3.517-1.4-5.318-.6-6.88.13a22.251 22.251 0 0 0-2.464 1.447 4.3 4.3 0 0 1-1.359.445 4.586 4.586 0 0 1 1.166 1.048 10.974 10.974 0 0 0 3.993 3.756s3.092 1.873 6.132.724c0 0 2.253-.7 2.967-1.817a.385.385 0 0 0-.051-.439 2.818 2.818 0 0 1 .984.575l.059-.027c-.008-.15.037-.19.037-.19-.108-.283-.804-.569-1.152-.696z" fill="#b3df7f"/><path data-name="パス 9464" d="M15.736 96.828l-.589-1.9v-2.051l.032-1.174.331-.11v.976l.136 2.414.362 1.746z" fill="#a0642f"/></g><g data-name="グループ化 2463"><path data-name="パス 9465" d="M31.048 78.092a.166.166 0 0 0 .038-.246l-1.548-.506s.136-.122-.032-.65c-.378-1.183-.876-2.055-1.031-2.586s-1.129-3.8-3.021-4.93c0 0-3.641-3.22-5.657-3.318 0 0-1.98-.08-2.114-.4a9.555 9.555 0 0 0-.041 4.616c.643 2.151.553 3.38 1.894 5.426s4.852 3.037 5.935 3 2.862.462 4.011-.739a1 1 0 0 1 .6.234 1.224 1.224 0 0 0 .817.227c.101-.009.149-.128.149-.128z" fill="#b3df7f"/><path data-name="パス 9466" d="M30.709 73.478a.133.133 0 0 1 .021 0s.153.145.486-.071c.231-.148 2.875-4.188 2.072-8.14-1.156-5.7-3.311-7.493-5.211-9.029a31.27 31.27 0 0 0-3.312-2.2 7 7 0 0 1-1.463-1.472 7.882 7.882 0 0 1-.219 2.318 18.378 18.378 0 0 0-.927 8.07s.35 5.483 3.779 8.665c0 0 2.389 2.469 4.063 2.595.247.019.337-.19.416-.391a5.173 5.173 0 0 1 .133 1.729l.07.059c.148-.122.224-.09.224-.09a4.327 4.327 0 0 0-.132-2.043z" fill="#b3df7f"/><path data-name="パス 9467" d="M32.741 76.343a.2.2 0 0 1 .01.021s-.039.221.289.448c.226.158 4.622.835 7.288-1.868a13.723 13.723 0 0 0 4.461-9.532 40.993 40.993 0 0 0 .1-4.35 8.243 8.243 0 0 1 .432-2.163 5.822 5.822 0 0 1-1.9.9 14.035 14.035 0 0 0-11.553 10.906s-.754 3.564-.045 5.288c.105.254.31.244.5.224a4.026 4.026 0 0 1-1.271.967l-.012.1c.166.088.177.179.177.179.386.038 1.156-.725 1.524-1.12z" fill="#b3df7f"/><path data-name="パス 9468" d="M30.729 83.577l.181-5.547-.408-2.517.408-.257.271 2.157.045.975v4.571z" fill="#a0642f"/></g><g data-name="グループ化 2464"><path data-name="パス 9469" d="M21.344 99.454s-.043.2.123.207l1.424-.855s-.023.195.421.443c1 .554 1.889.788 2.326 1.049s3.142 1.85 5.193 1.17c0 0 4.593-.55 6.1-2.065 0 0 1.474-1.5 1.769-1.374a8.218 8.218 0 0 0-2.8-3.353c-1.78-1.042-2.467-2-4.685-2.414s-5.352 1.635-6.111 2.51-2.343 1.922-2.434 3.69a1.051 1.051 0 0 1-.574.3 1.343 1.343 0 0 0-.728.479.26.26 0 0 0-.024.213z" fill="#b3df7f"/><path data-name="パス 9470" d="M24.326 102.381a.161.161 0 0 1-.015.016s-.2.016-.307.434c-.075.289.5 5.278 3.494 7.49 4.32 3.19 6.972 2.785 9.28 2.394a28.87 28.87 0 0 0 3.731-1.023 5.8 5.8 0 0 1 1.954-.093 6.9 6.9 0 0 1-1.262-1.842 16.525 16.525 0 0 0-4.274-6.537s-3.61-3.671-8.027-3.261c0 0-3.23.1-4.512 1.332-.189.18-.126.4-.06.609a4.269 4.269 0 0 1-1.155-1.139l-.087.013c-.032.2-.106.241-.106.241.063.422.914 1.066 1.346 1.366z" fill="#b3df7f"/><path data-name="パス 9471" d="M21.152 101.942l-.02-.008s-.107-.19-.483-.095a10.551 10.551 0 0 0-4.1 7.083c-.381 5.829 1.211 8.268 2.628 10.372a34.935 34.935 0 0 0 2.589 3.212 7.747 7.747 0 0 1 1.015 1.9 7.53 7.53 0 0 1 .814-2.141 17.391 17.391 0 0 0 2.989-7.4s1.094-5.356-1.354-9.546c0 0-1.639-3.158-3.206-3.84-.231-.1-.372.068-.5.235a5.1 5.1 0 0 1 .323-1.7l-.052-.082c-.173.068-.236.011-.236.011a4.259 4.259 0 0 0-.407 1.999z" fill="#b3df7f"/><path data-name="パス 9472" d="M18.59 95.621l2.892 3.768 1.69 1.371.084.347-.075.278-1.516-1.339-.631-.666-2.8-3.289z" fill="#a0642f"/></g><path data-name="パス 9473" d="M50.523 65.811s.114.194.244.044l.475-1.975s.123.171.641-.052c1.164-.5 2.017-1.147 2.539-1.352s3.741-1.5 4.823-3.919c0 0 3.122-4.68 3.185-7.242 0 0 .046-2.518.365-2.693a7.428 7.428 0 0 0-4.562.023c-2.116.853-3.331.759-5.332 2.5s-2.92 6.214-2.871 7.591-.41 3.645.8 5.084a1.521 1.521 0 0 1-.22.766 1.9 1.9 0 0 0-.21 1.042.247.247 0 0 0 .123.183z" fill="#b3df7f"/></g><g data-name="グループ化 2469"><path data-name="パス 9474" d="M307.061 67.501s.078.245-.126.279l-1.886-.825s.055.24-.466.62c-1.171.859-2.251 1.3-2.761 1.7s-3.672 2.833-6.316 2.333c0 0-5.792.087-7.872-1.547 0 0-2.034-1.624-2.385-1.413a10.75 10.75 0 0 1 3.046-4.65c2.082-1.6 2.813-2.9 5.521-3.8s6.879 1.136 7.943 2.1 3.17 2 3.515 4.185a1.275 1.275 0 0 0 .756.282 1.622 1.622 0 0 1 .968.475.318.318 0 0 1 .063.261z" fill="#b3df7f"/><path data-name="パス 9475" d="M314.03 73.76s.15.2-.031.312l-2.022-.008s.126.2-.24.768c-.823 1.276-1.691 2.127-2.044 2.706s-2.538 4.133-5.165 4.735c0 0-5.383 2.424-7.841 1.739 0 0-2.411-.693-2.672-.354a11.782 11.782 0 0 1 1.381-5.577c1.442-2.334 1.715-3.849 3.963-5.78s6.784-1.722 8.081-1.251 3.589.583 4.6 2.487a1.209 1.209 0 0 0 .795-.042 1.51 1.51 0 0 1 1.054.052.292.292 0 0 1 .141.213z" fill="#b3df7f"/><path data-name="パス 9476" d="M307.371 67.184a.187.187 0 0 1-.177-.243l1.41-1.642s-.215-.037-.32-.73c-.237-1.557-.172-2.857-.294-3.547s-.855-4.942.591-7.5c0 0 2.205-6.073 4.349-7.6 0 0 2.116-1.482 2.083-1.931a10.915 10.915 0 0 1 2.574 5c.477 2.8 1.247 4.073.908 7.249s-3.625 6.726-4.824 7.456-2.866 2.519-4.776 2.02a1.473 1.473 0 0 0-.526.678 1.8 1.8 0 0 1-.766.822.227.227 0 0 1-.232-.032z" fill="#b3df7f"/><path data-name="パス 9477" d="M346.897 100.663c-.476-.312-.958-.607-1.443-.9s-.964-.595-1.453-.876a142.832 142.832 0 0 0-2.935-1.677l.143.122c-.7-.98-1.408-1.958-2.126-2.922l-.078-.1-.123-.053a69.69 69.69 0 0 0-4.552-1.778l.182.147-1.531-1.98c-.509-.662-1.028-1.314-1.528-1.983l-.014-.02-.008-.008q-.772-.741-1.521-1.509c-.506-.5-1.953-2.292-2.45-2.806-.946-1-.877-.74-1.945-1.927h-.005l-.026-.024a28.323 28.323 0 0 0-4.342-3.361c-.838-.687-1.753-1.253-2.412-1.772l-1.937-1.5-.645-.617c-.853-.781-1.309-1.161-2.174-1.926s-1.739-1.64-2.61-2.4l-.652-.571-.68-.557-1.234-1.369-2.711-2.12.048.053c-.348-.465-.715-.913-1.072-1.37s-.472-.893-.84-1.34l-.332.058c.3.512.6 1.016.906 1.518s.6 1.013.921 1.506l.013.021.035.033 2.528 2.393 1.276 1.179.628.576.625.606c.831.812 1.676 1.6 2.518 2.4s1.7 1.57 2.55 2.357l.024.023.02.015 2.3 1.681c.773.566 1.531 1.108 2.289 1.689a233.364 233.364 0 0 0 4.617 3.349l-.031-.028c1.03.986 2.067 2.414 3.075 3.427.5.512 1.008 1.012 1.5 1.536s.792.628 1.275 1.161l.173.386c.466.7.913.966 1.371 1.674l1.368 2.128.057.089.125.058c1.484.7 2.988 1.332 4.507 1.92l-.2-.157c.73.954 1.474 1.893 2.222 2.83l.069.087.074.035c1.011.478 2.024.952 3.045 1.4.507.233 1.842 1.317 2.354 1.538a1.443 1.443 0 0 0 .729-.232z" fill="#a0642f"/><path data-name="パス 9478" d="M322.435 83.048a.185.185 0 0 1 .015.017s.2.024.292.446c.066.293-.669 5.253-3.736 7.338-4.421 3.006-7.058 2.49-9.352 2a29.141 29.141 0 0 1-3.695-1.18 5.79 5.79 0 0 0-1.95-.174 6.8 6.8 0 0 0 1.321-1.788 16.331 16.331 0 0 1 4.485-6.352s3.727-3.517 8.128-2.922c0 0 3.225.24 4.466 1.521.183.188.113.407.04.61a4.191 4.191 0 0 0 1.191-1.09l.087.017c.026.206.1.246.1.246-.079.421-.95 1.029-1.392 1.311z" fill="#b3df7f"/><g data-name="グループ化 2466"><path data-name="パス 9479" d="M339.289 92.398s-.06.183-.192.089l-.72-1.519s-.072.167-.535.1c-1.039-.161-1.846-.509-2.31-.564s-3.32-.424-4.613-2.178c0 0-3.345-3.168-3.826-5.257 0 0-.458-2.057-.75-2.13a6.421 6.421 0 0 1 3.748-.964c1.878.245 2.861-.093 4.792.9s3.436 4.471 3.626 5.611.946 2.9.2 4.343a1.2 1.2 0 0 0 .308.582 1.519 1.519 0 0 1 .347.809.219.219 0 0 1-.075.178z" fill="#b3df7f"/><path data-name="パス 9480" d="M339.22 88.233h-.017s-.109.139-.4.006a9.122 9.122 0 0 1-2.522-6.378c.362-4.8 1.941-6.554 3.337-8.059a27.157 27.157 0 0 1 2.48-2.231 6.054 6.054 0 0 0 1.045-1.394 6.409 6.409 0 0 0 .416 1.865 14.878 14.878 0 0 1 1.58 6.47s.273 4.525-2.2 7.575c0 0-1.7 2.329-3.055 2.652-.2.047-.295-.112-.379-.265a4.258 4.258 0 0 0 .067 1.43l-.052.057c-.134-.08-.192-.044-.192-.044a3.572 3.572 0 0 1-.108-1.684z" fill="#b3df7f"/><path data-name="パス 9481" d="M340.548 91.07a.122.122 0 0 0-.008-.015s-.137-.049-.15-.364c-.009-.219 1.15-3.609 3.591-4.578 3.517-1.4 5.318-.6 6.879.13a22.169 22.169 0 0 1 2.465 1.447 4.313 4.313 0 0 0 1.359.445 4.571 4.571 0 0 0-1.166 1.049 10.981 10.981 0 0 1-3.993 3.755s-3.093 1.873-6.133.724c0 0-2.253-.7-2.967-1.816a.385.385 0 0 1 .051-.438 2.813 2.813 0 0 0-.983.574l-.059-.026c.009-.151-.038-.19-.038-.19.104-.288.801-.574 1.152-.697z" fill="#b3df7f"/><path data-name="パス 9482" d="M338.945 94.693l.588-1.9v-2.055l-.032-1.174-.331-.11v.975l-.136 2.415-.362 1.746z" fill="#a0642f"/></g><g data-name="グループ化 2467"><path data-name="パス 9483" d="M323.632 75.954a.166.166 0 0 1-.038-.246l1.548-.506s-.136-.122.032-.65c.378-1.183.877-2.054 1.031-2.586s1.129-3.8 3.021-4.929c0 0 3.641-3.221 5.656-3.319 0 0 1.981-.079 2.114-.4a9.558 9.558 0 0 1 .041 4.616c-.643 2.151-.553 3.379-1.894 5.426s-4.852 3.036-5.935 3-2.863.462-4.012-.739a1 1 0 0 0-.6.234 1.226 1.226 0 0 1-.817.227c-.098-.009-.147-.128-.147-.128z" fill="#b3df7f"/><path data-name="パス 9484" d="M323.971 71.337h-.021s-.152.144-.486-.071c-.232-.149-2.875-4.188-2.073-8.14 1.155-5.7 3.311-7.493 5.212-9.029a31.111 31.111 0 0 1 3.311-2.2 6.985 6.985 0 0 0 1.463-1.473 7.883 7.883 0 0 0 .22 2.318 18.385 18.385 0 0 1 .927 8.069s-.35 5.483-3.779 8.666c0 0-2.389 2.469-4.063 2.595-.246.019-.337-.19-.416-.391a5.177 5.177 0 0 0-.133 1.729l-.071.059c-.148-.122-.224-.09-.224-.09a4.332 4.332 0 0 1 .133-2.042z" fill="#b3df7f"/><path data-name="パス 9485" d="M321.939 74.205l-.01.021s.039.221-.289.448c-.226.159-4.622.836-7.288-1.868a13.727 13.727 0 0 1-4.461-9.532 41.159 41.159 0 0 1-.1-4.35 8.259 8.259 0 0 0-.431-2.163 5.826 5.826 0 0 0 1.9.9 14.034 14.034 0 0 1 11.553 10.906s.755 3.564.045 5.287c-.105.254-.31.243-.5.224a4.028 4.028 0 0 0 1.271.967l.012.1c-.166.088-.177.179-.177.179-.386.039-1.157-.724-1.525-1.119z" fill="#80c41c"/><path data-name="パス 9486" d="M323.95 81.438l-.181-5.547.408-2.517-.408-.256-.271 2.157-.046.976v4.571z" fill="#a0642f"/></g><g data-name="グループ化 2468"><path data-name="パス 9487" d="M333.336 97.316s.042.2-.123.207l-1.424-.854s.024.194-.421.442c-1 .554-1.889.788-2.326 1.048s-3.141 1.85-5.193 1.17c0 0-4.592-.55-6.1-2.066 0 0-1.475-1.5-1.77-1.374a8.214 8.214 0 0 1 2.8-3.353c1.78-1.042 2.467-2 4.686-2.414s5.351 1.635 6.11 2.511 2.343 1.92 2.435 3.689a1.049 1.049 0 0 0 .574.3 1.346 1.346 0 0 1 .728.48.26.26 0 0 1 .024.214z" fill="#b3df7f"/><path data-name="パス 9488" d="M330.355 100.242c.006.006.009.012.015.017s.2.016.307.434c.075.289-.5 5.278-3.493 7.489-4.321 3.19-6.972 2.785-9.28 2.394a28.785 28.785 0 0 1-3.731-1.023 5.818 5.818 0 0 0-1.953-.093 6.9 6.9 0 0 0 1.261-1.842 16.534 16.534 0 0 1 4.275-6.536s3.609-3.671 8.026-3.261c0 0 3.231.1 4.513 1.332.189.18.126.4.059.609a4.264 4.264 0 0 0 1.155-1.14l.087.014c.032.2.106.241.106.241-.064.421-.916 1.065-1.347 1.365z" fill="#80c41c"/><path data-name="パス 9489" d="M333.533 99.804l.02-.007s.108-.19.483-.1a10.547 10.547 0 0 1 4.1 7.082c.38 5.829-1.212 8.268-2.627 10.372a34.933 34.933 0 0 1-2.589 3.212 7.744 7.744 0 0 0-1.015 1.9 7.512 7.512 0 0 0-.814-2.141 17.388 17.388 0 0 1-2.988-7.4s-1.094-5.356 1.353-9.545c0 0 1.639-3.159 3.206-3.84.231-.1.372.068.5.234a5.089 5.089 0 0 0-.323-1.7l.052-.082c.173.068.237.012.237.012a4.257 4.257 0 0 1 .405 2.003z" fill="#b3df7f"/><path data-name="パス 9490" d="M336.091 93.484l-2.892 3.768-1.69 1.371-.084.347.075.278 1.517-1.338.63-.667 2.8-3.289z" fill="#a0642f"/></g><path data-name="パス 9491" d="M304.155 63.673s-.113.194-.244.045l-.474-1.975s-.123.171-.641-.051c-1.164-.5-2.017-1.147-2.54-1.352s-3.741-1.5-4.823-3.919c0 0-3.122-4.68-3.185-7.242 0 0-.046-2.518-.366-2.693a7.428 7.428 0 0 1 4.563.023c2.115.853 3.331.76 5.332 2.5s2.921 6.214 2.871 7.591.41 3.645-.8 5.084a1.528 1.528 0 0 0 .221.766 1.9 1.9 0 0 1 .211 1.042.247.247 0 0 1-.125.181z" fill="#b3df7f"/></g><g data-name="グループ化 2470"><path data-name="パス 9492" d="M77.261 112.613c-.006 0-.012.006-.018.01s-.083.206-.465.176a10.022 10.022 0 0 1-4.987-6.311c-1.142-5.7.113-8.38 1.236-10.7a36.819 36.819 0 0 1 2.138-3.613 8.047 8.047 0 0 0 .754-2.046 7.2 7.2 0 0 0 1.087 1.98 16.625 16.625 0 0 1 3.926 6.811s1.787 5.111-.082 9.667c0 0-1.206 3.4-2.667 4.339-.214.139-.376 0-.523-.148a4.966 4.966 0 0 0 .543 1.624l-.042.088c-.18-.037-.236.029-.236.029-.329-.214-.565-1.343-.664-1.906z" fill="#b3df7f"/><path data-name="パス 9493" d="M80.518 113.598c0 .01.009.018.011.027s-.069.286.34.621c.283.232 5.99 1.606 9.718-1.642 5.377-4.683 6.091-8.589 6.671-12.006a53.468 53.468 0 0 0 .509-5.693 10.78 10.78 0 0 1 .753-2.789 7.488 7.488 0 0 1-2.566.97 17.372 17.372 0 0 0-9.017 3.158s-5.592 3.471-7.073 9.863c0 0-1.3 4.589-.513 6.93.113.344.384.353.641.348a5.176 5.176 0 0 1-1.751 1.128l-.025.128c.21.135.218.254.218.254.49.094 1.564-.822 2.084-1.297z" fill="#b3df7f"/><path data-name="パス 9494" d="M72.614 120.859l1.835-1.772 1.563-2 .951-1.541 1.223-1.232h.476l-.2.616-1.019.847-.883 1.541-1.563 2-.748.847z" fill="#a0642f"/></g><g data-name="グループ化 2471"><path data-name="パス 9495" d="M310.061 122.235a.211.211 0 0 0 0 .022s.091.2-.168.522c-.179.224-4.238 2.254-7.46.5a12.573 12.573 0 0 1-6.616-7.758 39.8 39.8 0 0 1-1.162-4.147 7.75 7.75 0 0 0-.943-1.943 5.456 5.456 0 0 0 2.043.269 12.841 12.841 0 0 1 7.145.757 12.27 12.27 0 0 1 6.621 6.091s1.6 3.188 1.334 5.068c-.037.276-.238.331-.428.372a3.7 3.7 0 0 0 1.458.53l.035.091c-.137.137-.127.228-.127.228-.356.153-1.282-.34-1.732-.602z" fill="#b3df7f"/><path data-name="パス 9496" d="M312.768 119.957c.01 0 .018 0 .026.007s.155.24.641.085c.337-.107 4.838-4.315 4.917-9.645.115-7.686-2.136-10.753-4.133-13.4a44.858 44.858 0 0 0-3.611-4 10.027 10.027 0 0 1-1.457-2.4 10.008 10.008 0 0 1-.928 2.881 23.17 23.17 0 0 0-3.434 9.966s-1.085 7.123 2.4 12.417c0 0 2.359 4.009 4.463 4.77.308.114.484-.121.64-.35a6.751 6.751 0 0 1-.312 2.255l.073.1c.224-.1.311-.034.311-.034.373-.37.411-1.898.404-2.652z" fill="#b3df7f"/><path data-name="パス 9497" d="M313.581 124.504l-.08-2.731-.41-2.634-.471-1.8-.089-1.853.3-.422.3.565-.05 1.432.514 1.743.41 2.634.12 1.191z" fill="#a0642f"/></g><g data-name="グループ化 2472"><path data-name="パス 9498" d="M114.804 118.169s.113.194.245.045l.474-1.976s.123.171.641-.051c1.164-.5 2.017-1.147 2.539-1.352s3.742-1.5 4.824-3.919c0 0 3.122-4.68 3.185-7.242 0 0 .046-2.519.366-2.693a7.427 7.427 0 0 0-4.563.023c-2.115.853-3.331.759-5.332 2.5s-2.921 6.215-2.871 7.591-.41 3.644.8 5.084a1.522 1.522 0 0 1-.22.765 1.911 1.911 0 0 0-.21 1.042.245.245 0 0 0 .122.183z" fill="#b3df7f"/><path data-name="パス 9499" d="M112.83 120.49s.1-.138-.029-.21l-1.367.077s.08-.141-.183-.512c-.591-.834-1.2-1.379-1.456-1.757s-1.829-2.707-3.622-3.021c0 0-3.706-1.451-5.35-.9 0 0-1.611.553-1.8.333a7.911 7.911 0 0 0 1.086 3.723c1.038 1.528 1.266 2.542 2.838 3.768s4.634.927 5.5.564 2.411-.521 3.043-1.843a.82.82 0 0 1 .539 0 1.033 1.033 0 0 0 .711-.073.2.2 0 0 0 .09-.149z" fill="#b3df7f"/><path data-name="パス 9500" d="M113.044 117.357c0 .007-.01.01-.014.016s-.023.224-.4.329a9.015 9.015 0 0 1-6.446-4.284c-2.621-5.034-2.148-8.019-1.7-10.618a39.785 39.785 0 0 1 1.065-4.181 8.414 8.414 0 0 0 .167-2.209 6.465 6.465 0 0 0 1.567 1.51 15.517 15.517 0 0 1 8.095 14.363s-.234 3.656-1.372 5.055c-.166.206-.359.126-.538.04a4.513 4.513 0 0 0 .953 1.359l-.016.1c-.182.027-.217.11-.217.11-.369-.095-.898-1.088-1.144-1.59z" fill="#b3df7f"/><path data-name="パス 9501" d="M116.522 119.128v.026c0 .009-.163.162-.014.6.1.308 3.5 4.208 7.386 3.889 5.6-.461 7.67-2.8 9.446-4.859a39.017 39.017 0 0 0 2.642-3.677 7.4 7.4 0 0 1 1.642-1.541 6.077 6.077 0 0 1-2.166-.656 14.478 14.478 0 0 0-7.509-2.476s-5.266-.489-8.861 3.169c0 0-2.745 2.506-3.142 4.531-.061.3.123.443.3.572a3.9 3.9 0 0 1-1.665-.125l-.068.076c.092.2.048.289.048.289.303.323 1.413.245 1.961.182z" fill="#b3df7f"/><path data-name="パス 9502" d="M112.652 120.321l.476.925.2 2v3.39l.475-.385-.068-4.314.068-1.618.748-1.271.544-1.194s-.476.077-.544.308a8.126 8.126 0 0 1-.68 1.079l-.476 1.618-.51-.758-.145.027z" fill="#a0642f"/></g><g data-name="グループ化 2473"><path data-name="パス 9503" d="M223.111 109.653s.1.256.285.1l.894-2.263s.119.231.776.076c1.476-.351 2.6-.945 3.262-1.079s4.725-1 6.419-3.666c0 0 4.509-4.937 5.008-7.99 0 0 .471-3 .882-3.144a9.118 9.118 0 0 0-5.464-.942c-2.672.571-4.111.2-6.793 1.854s-4.521 6.817-4.69 8.475-1.093 4.273.112 6.253a1.779 1.779 0 0 1-.39.869 2.243 2.243 0 0 0-.425 1.2.315.315 0 0 0 .124.257z" fill="#80c41c"/><path data-name="パス 9504" d="M220.366 112.011s.136-.145 0-.257l-1.648-.2s.119-.151-.135-.651c-.57-1.123-1.21-1.905-1.452-2.411s-1.742-3.628-3.835-4.385c0 0-4.195-2.524-6.253-2.215 0 0-2.019.318-2.205.016a9.784 9.784 0 0 0 .684 4.686c.99 2.049 1.094 3.311 2.773 5.113s5.392 2.094 6.487 1.843 2.971-.111 3.946-1.559a.992.992 0 0 1 .646.117 1.246 1.246 0 0 0 .862.064c.098-.03.13-.161.13-.161z" fill="#b3df7f"/><path data-name="パス 9505" d="M221.138 108.306c-.005.007-.014.01-.019.017s-.064.264-.527.309c-.322.033-5.407-1.933-7.006-6.5-2.305-6.581-1.246-10.054-.284-13.067a46.747 46.747 0 0 1 1.964-4.777 10.071 10.071 0 0 0 .565-2.61 8.307 8.307 0 0 0 1.626 2.14 19.056 19.056 0 0 1 5.82 7.32s2.981 5.738 1.494 11.586c0 0-.883 4.325-2.477 5.758-.234.211-.452.074-.652-.066a5.763 5.763 0 0 0 .917 1.829l-.034.113c-.222-.006-.278.085-.278.085-.427-.182-.897-1.483-1.109-2.137z" fill="#b3df7f"/><path data-name="パス 9506" d="M225.009 111.165a.274.274 0 0 1-.008.029s-.223.159-.117.722c.071.39 3.492 5.779 8.2 6.222 6.782.638 9.64-1.717 12.106-3.81a44.585 44.585 0 0 0 3.77-3.838 8.46 8.46 0 0 1 2.219-1.5 7.633 7.633 0 0 1-2.484-1.244 18.3 18.3 0 0 0-8.578-4.559s-6.221-1.7-11.127 1.911c0 0-3.7 2.415-4.509 4.754a.669.669 0 0 0 .268.749 4.829 4.829 0 0 1-1.973-.5l-.094.076c.076.261.01.355.01.355.306.449 1.655.591 2.317.633z" fill="#b3df7f"/><path data-name="パス 9507" d="M220.18 111.771l.416 1.208-.088 2.44-.56 4.057.632-.36.632-5.177.349-1.921 1.1-1.362.847-1.314s-.582-.009-.7.254a9.271 9.271 0 0 1-.991 1.146l-.837 1.835-.485-1.015h-.178z" fill="#a0642f"/></g><g data-name="グループ化 2474"><path data-name="パス 9508" d="M17.697 42.614s-.014.28.208.243l1.725-1.525s.01.268.654.479c1.449.474 2.69.548 3.328.779s4.586 1.628 7.186.171c0 0 6.023-1.968 7.724-4.4 0 0 1.657-2.4 2.079-2.31a10.468 10.468 0 0 0-4.439-3.733c-2.6-.915-3.716-2.005-6.767-1.969s-6.811 3.621-7.645 5-2.731 3.2-2.484 5.584a1.515 1.515 0 0 1-.7.561 1.935 1.935 0 0 0-.871.836.344.344 0 0 0 .002.284z" fill="#b3df7f"/><path data-name="パス 9509" d="M14.292 43.24a.161.161 0 0 0 .106-.227l-1.374-1.052s.167-.071.15-.647c-.04-1.3-.283-2.326-.286-2.9s-.041-4.13-1.578-5.911c0 0-2.664-4.458-4.61-5.278 0 0-1.915-.791-1.955-1.156a9.452 9.452 0 0 0-1.331 4.5c.029 2.336-.4 3.507.338 5.989s3.9 4.714 4.97 5.073 2.671 1.48 4.13.718a1.123 1.123 0 0 1 .523.445 1.375 1.375 0 0 0 .736.515.2.2 0 0 0 .181-.069z" fill="#b3df7f"/><path data-name="パス 9510" d="M16.509 40.376a.2.2 0 0 1-.023 0s-.165.2-.594-.007c-.3-.141-3.979-4.579-3.507-9.46.682-7.039 3.052-9.544 5.147-11.7a39.42 39.42 0 0 1 3.709-3.177 8.838 8.838 0 0 0 1.578-2.005 9.448 9.448 0 0 0 .552 2.755 21.889 21.889 0 0 1 2.118 9.558s.264 6.652-3.465 11.03c0 0-2.568 3.352-4.567 3.771-.293.064-.429-.174-.548-.4a6.261 6.261 0 0 0 .054 2.1l-.076.081c-.195-.124-.281-.072-.281-.072a5.251 5.251 0 0 1-.097-2.474z" fill="#b3df7f"/><path data-name="パス 9511" d="M18.749 44.955c-.008.007-.012.016-.019.022s-.262.023-.4.575c-.1.383.7 6.96 4.671 9.85 5.729 4.165 9.226 3.6 12.27 3.063s3.388-1.052 4.916-1.39a7.683 7.683 0 0 1 2.578-.142 9.076 9.076 0 0 1-1.68-2.418 21.764 21.764 0 0 0-5.7-8.583s-4.792-4.807-10.62-4.22c0 0-4.266.17-5.948 1.806-.249.238-.164.532-.073.8a5.608 5.608 0 0 1-1.535-1.492l-.115.018c-.04.27-.137.319-.137.319.092.564 1.221 1.404 1.792 1.792z" fill="#80c41c"/><path data-name="パス 9512" d="M14.233 42.928l-.131 1.288-1.086 2.11-2.169 3.287.707.017 2.7-4.239 1.1-1.512 1.538-.618 1.292-.711s-.511-.317-.725-.148a7.832 7.832 0 0 1-1.35.486l-1.5 1.177-.009-1.154-.158-.093z" fill="#a0642f"/></g><g data-name="グループ化 2475"><path data-name="パス 9513" d="M56.027 106.254a.2.2 0 0 0-.021.011s-.094.235-.531.2c-.3-.023-4.793-2.694-5.7-7.212-1.305-6.515.128-9.577 1.411-12.229a41.965 41.965 0 0 1 2.444-4.128 9.233 9.233 0 0 0 .861-2.339 8.253 8.253 0 0 0 1.241 2.263 18.98 18.98 0 0 1 4.487 7.783s2.042 5.841-.1 11.047c0 0-1.377 3.886-3.047 4.958-.245.159-.43-.005-.6-.169a5.645 5.645 0 0 0 .619 1.855l-.046.1c-.207-.042-.27.033-.27.033-.365-.24-.636-1.533-.748-2.173z" fill="#b3df7f"/><path data-name="パス 9514" d="M57.682 111.318c0 .008 0 .016-.006.023s-.175.138-.072.587c.07.313 3 4.526 6.812 4.693 5.5.242 7.729-1.774 9.655-3.563a36.452 36.452 0 0 0 2.923-3.25 6.975 6.975 0 0 1 1.746-1.3 6.1 6.1 0 0 1-2.044-.9 14.608 14.608 0 0 0-7.068-3.335s-5.077-1.124-8.925 1.991c0 0-2.909 2.1-3.492 4.021a.54.54 0 0 0 .239.594 3.861 3.861 0 0 1-1.607-.327l-.073.066c.069.207.018.286.018.286.264.348 1.354.409 1.894.414z" fill="#b3df7f"/><path data-name="パス 9515" d="M59.989 104.886a.113.113 0 0 1 .014.021s-.009.257.394.452c.28.135 5.349.052 7.956-3.515 3.76-5.144 3.7-8.61 3.614-11.633a46.759 46.759 0 0 0-.536-4.935 9.621 9.621 0 0 1 .164-2.528 6.992 6.992 0 0 1-2.009 1.384 16.86 16.86 0 0 0-11.422 14.549s-.319 4.173.743 5.985c.155.267.385.216.6.156a4.841 4.841 0 0 1-1.292 1.338v.114c.2.068.228.168.228.168.433-.028 1.189-1.04 1.546-1.556z" fill="#80c41c"/><path data-name="パス 9516" d="M58.182 106.197l-1.269 1.875-1.675 3.03-.861 1.438-.952 2.876-1.4 2.311-2.084 4.52-2.582 3.646 1.132.052 1.9-3.287.725-1.746 1.359-3.184 1.449-2 .906-2.876.68-1.233 1.586-2.671.906-1.387.53-1.132-.123-.434z" fill="#a0642f"/></g><g data-name="グループ化 2476"><path data-name="パス 9517" d="M164.741 107.491a.1.1 0 0 0-.021.011s-.094.235-.531.2c-.3-.022-4.793-2.694-5.7-7.211-1.305-6.515.128-9.577 1.411-12.229a42.111 42.111 0 0 1 2.443-4.128 9.241 9.241 0 0 0 .862-2.339 8.235 8.235 0 0 0 1.241 2.263 18.992 18.992 0 0 1 4.487 7.783s2.042 5.841-.095 11.048c0 0-1.378 3.886-3.047 4.958-.245.159-.43-.006-.6-.169a5.65 5.65 0 0 0 .619 1.856l-.047.1c-.206-.042-.27.033-.27.033-.368-.247-.64-1.538-.752-2.176z" fill="#b3df7f"/><path data-name="パス 9518" d="M166.397 112.552c0 .008 0 .016-.005.024s-.175.138-.072.587c.07.313 3 4.525 6.813 4.693 5.5.242 7.729-1.774 9.655-3.563a36.46 36.46 0 0 0 2.923-3.251 6.972 6.972 0 0 1 1.746-1.3 6.1 6.1 0 0 1-2.045-.9 14.611 14.611 0 0 0-7.068-3.336s-5.076-1.124-8.924 1.991c0 0-2.909 2.1-3.491 4.02a.539.539 0 0 0 .239.593 3.858 3.858 0 0 1-1.607-.325l-.073.065c.069.208.018.287.018.287.263.347 1.351.408 1.891.415z" fill="#b3df7f"/><path data-name="パス 9519" d="M168.704 106.118a.129.129 0 0 1 .013.021s-.009.258.395.451c.28.136 5.349.051 7.956-3.515 3.759-5.144 3.7-8.61 3.614-11.633a46.846 46.846 0 0 0-.535-4.936 9.619 9.619 0 0 1 .163-2.528 6.979 6.979 0 0 1-2.009 1.383 16.858 16.858 0 0 0-11.422 14.549s-.319 4.173.743 5.985c.155.267.386.215.6.156a4.852 4.852 0 0 1-1.292 1.338v.113c.2.069.228.168.228.168.438-.024 1.189-1.037 1.546-1.552z" fill="#80c41c"/><path data-name="パス 9520" d="M166.896 107.429l-1.268 1.875-1.676 3.03-.861 1.438-.951 2.876-1.4 2.312-2.083 4.52-2.582 3.646 1.132.051 1.9-3.287.725-1.746 1.359-3.185 1.45-2 .906-2.876.68-1.233 1.585-2.671.906-1.387.53-1.133-.123-.434z" fill="#a0642f"/></g><g data-name="グループ化 2477"><path data-name="パス 9521" d="M11.168 69.797a.145.145 0 0 0 .077-.209l-1.278-.8s.142-.077.085-.579c-.126-1.131-.412-2.012-.456-2.516s-.329-3.613-1.8-5.032c0 0-2.65-3.662-4.412-4.2 0 0-1.735-.516-1.795-.834a8.464 8.464 0 0 0-.845 4.066c.191 2.044-.1 3.108.72 5.216s3.75 3.773 4.714 3.989 2.444 1.053 3.669.252a.959.959 0 0 1 .488.341 1.175 1.175 0 0 0 .681.384.175.175 0 0 0 .152-.078z" fill="#b3df7f"/><path data-name="パス 9522" d="M12.483 69.894v.015c0 .005-.064.134.1.355.117.154 2.818 1.607 5.018.49a8.391 8.391 0 0 0 4.591-5.089 26.69 26.69 0 0 0 .85-2.77 5.186 5.186 0 0 1 .667-1.29 3.681 3.681 0 0 1-1.381.139 8.634 8.634 0 0 0-4.827.36 8.192 8.192 0 0 0-4.56 3.966 7.963 7.963 0 0 0-.981 3.387c.02.187.154.229.282.26a2.475 2.475 0 0 1-.991.326l-.025.06c.089.1.081.156.081.156.236.115.868-.197 1.176-.365z" fill="#b3df7f"/><path data-name="パス 9523" d="M11.721 63.709c0 .006.008.01.012.017s.01.211.353.334a8.287 8.287 0 0 0 6.255-3.57c2.718-4.531 2.434-7.356 2.154-9.816a37.868 37.868 0 0 0-.776-3.983 7.95 7.95 0 0 1-.039-2.078 5.925 5.925 0 0 1-1.546 1.306 13.591 13.591 0 0 0-5.483 4.419 13.642 13.642 0 0 0-2.847 8.467s.025 3.435 1.018 4.821c.143.2.329.142.5.074a4.122 4.122 0 0 1-.964 1.206l.01.093c.168.039.2.118.2.118.345-.062.893-.955 1.153-1.408z" fill="#b3df7f"/><path data-name="パス 9524" d="M11.799 73.392l-.362-2.069-.054-2.161-.667-3.031-.743-4-.319-1.142-1.469-1.875-1.154-1.157-.038.624.487.343 1.045 1.233.824.961.333 1.516.408 2.485.378 2.637.5 2.037-.147 2.917z" fill="#a0642f"/></g><g data-name="グループ化 2478" fill="#b3df7f"><path data-name="パス 9525" d="M155.99 121.535a.151.151 0 0 0 .031-.224l-1.405-.439s.122-.112-.036-.586c-.353-1.067-.812-1.849-.958-2.328s-1.057-3.429-2.78-4.423c0 0-3.326-2.866-5.151-2.93 0 0-1.792-.047-1.915-.34a8.653 8.653 0 0 0 .007 4.177c.6 1.938.534 3.05 1.767 4.885s4.418 2.686 5.4 2.643 2.593.383 3.62-.718a.9.9 0 0 1 .545.2 1.105 1.105 0 0 0 .741.2c.091-.009.134-.117.134-.117z"/><path data-name="パス 9526" d="M157.288 121.284c0 .005 0 .009.005.014s-.035.147.175.319a5.6 5.6 0 0 0 4.981-.842 9.059 9.059 0 0 0 3.42-6.154 27.646 27.646 0 0 0 .262-2.918 5.515 5.515 0 0 1 .386-1.43 3.819 3.819 0 0 1-1.316.5 9.237 9.237 0 0 0-8.248 6.675 8.229 8.229 0 0 0-.263 3.552c.058.177.2.181.328.178a2.639 2.639 0 0 1-.9.579l-.012.065c.107.069.112.131.112.131.254.045.805-.426 1.07-.669z"/><path data-name="パス 9527" d="M155.282 115.468l.015.013s.053.2.412.232a8.941 8.941 0 0 0 5.355-5.116c1.719-5.121.866-7.8.09-10.115a35.919 35.919 0 0 0-1.568-3.671 7.8 7.8 0 0 1-.462-2.011 6.443 6.443 0 0 1-1.238 1.676 14.831 14.831 0 0 0-4.431 5.739s-2.249 4.478-1.04 8.984c0 0 .727 3.334 1.975 4.423.182.161.349.051.5-.06a4.477 4.477 0 0 1-.691 1.427l.028.087c.171-.006.216.062.216.062.33-.149.681-1.162.839-1.67z"/></g><g data-name="グループ化 2479"><path data-name="パス 9528" d="M93.258 125.295s.06.183.192.089l.721-1.519s.071.167.535.1c1.038-.161 1.846-.508 2.309-.563s3.32-.424 4.614-2.179c0 0 3.344-3.168 3.825-5.257 0 0 .459-2.057.751-2.131a6.424 6.424 0 0 0-3.747-.963c-1.879.244-2.861-.094-4.792.9s-3.436 4.471-3.626 5.612-.946 2.9-.2 4.343a1.206 1.206 0 0 1-.308.581 1.527 1.527 0 0 0-.347.809.22.22 0 0 0 .073.178z" fill="#b3df7f"/><path data-name="パス 9529" d="M93.327 121.129h.017s.109.138.4.006a9.122 9.122 0 0 0 2.522-6.378c-.363-4.8-1.941-6.555-3.337-8.059a27.086 27.086 0 0 0-2.48-2.231 6.053 6.053 0 0 1-1.045-1.395 6.423 6.423 0 0 1-.416 1.865 14.867 14.867 0 0 0-1.58 6.47s-.273 4.525 2.2 7.574c0 0 1.7 2.33 3.055 2.652.2.047.3-.111.379-.265a4.26 4.26 0 0 1-.067 1.43l.052.057c.133-.08.192-.044.192-.044a3.574 3.574 0 0 0 .108-1.682z" fill="#b3df7f"/><path data-name="パス 9530" d="M92.003 123.965c0-.005.006-.011.008-.014s.137-.049.15-.364c.009-.219-1.15-3.609-3.59-4.578-3.517-1.4-5.318-.6-6.88.129a22.227 22.227 0 0 0-2.465 1.447 4.3 4.3 0 0 1-1.359.446 4.585 4.585 0 0 1 1.166 1.047 10.956 10.956 0 0 0 3.993 3.757s3.093 1.873 6.133.724c0 0 2.253-.7 2.966-1.816a.385.385 0 0 0-.05-.439 2.815 2.815 0 0 1 .984.575l.059-.027c-.008-.151.038-.19.038-.19-.108-.286-.805-.572-1.153-.697z" fill="#b3df7f"/><path data-name="パス 9531" d="M93.603 127.589l-.589-1.9v-2.055l.032-1.174.331-.11v.976l.136 2.414.362 1.746z" fill="#a0642f"/></g><g data-name="グループ化 2480"><path data-name="パス 9532" d="M196.184 111.976c-.006 0-.013.006-.018.01s-.082.206-.465.177a10.027 10.027 0 0 1-4.986-6.311c-1.142-5.7.112-8.38 1.235-10.7a36.733 36.733 0 0 1 2.139-3.613 8.084 8.084 0 0 0 .754-2.047 7.208 7.208 0 0 0 1.087 1.98 16.611 16.611 0 0 1 3.925 6.811s1.788 5.111-.082 9.667c0 0-1.206 3.4-2.667 4.339-.214.139-.376-.005-.523-.149a4.939 4.939 0 0 0 .542 1.624l-.041.088c-.181-.037-.237.029-.237.029-.327-.213-.564-1.342-.663-1.905z" fill="#b3df7f"/><path data-name="パス 9533" d="M199.442 112.96c0 .01.009.018.01.028s-.069.286.34.62c.283.233 5.99 1.606 9.718-1.642 5.376-4.683 6.091-8.589 6.672-12.006a53.606 53.606 0 0 0 .51-5.693 10.777 10.777 0 0 1 .752-2.789 7.479 7.479 0 0 1-2.566.97 17.369 17.369 0 0 0-9.017 3.157s-5.592 3.472-7.073 9.863c0 0-1.3 4.589-.513 6.93.113.344.384.354.64.349a5.158 5.158 0 0 1-1.751 1.127l-.023.128c.209.135.217.254.217.254.494.097 1.567-.82 2.084-1.296z" fill="#b3df7f"/><path data-name="パス 9534" d="M191.538 120.219l1.834-1.772 1.563-2 .952-1.541 1.223-1.232h.476l-.2.616-1.019.847-.883 1.541-1.562 2-.748.847z" fill="#a0642f"/></g><g data-name="グループ化 2481"><path data-name="パス 9535" d="M186.222 116.225a.151.151 0 0 0 .032-.224l-1.405-.438s.122-.112-.036-.586c-.353-1.067-.812-1.849-.957-2.328s-1.057-3.429-2.781-4.423c0 0-3.326-2.867-5.151-2.93 0 0-1.792-.047-1.915-.34a8.657 8.657 0 0 0 .008 4.177c.6 1.938.534 3.05 1.767 4.885s4.418 2.686 5.4 2.644 2.593.382 3.62-.719a.9.9 0 0 1 .546.2 1.109 1.109 0 0 0 .741.195c.092-.004.131-.113.131-.113z" fill="#b3df7f"/><path data-name="パス 9536" d="M187.519 115.974a.09.09 0 0 1 .006.014s-.035.146.175.318a5.6 5.6 0 0 0 4.981-.842 9.062 9.062 0 0 0 3.42-6.154 27.294 27.294 0 0 0 .261-2.918 5.532 5.532 0 0 1 .386-1.43 3.825 3.825 0 0 1-1.315.5 9.236 9.236 0 0 0-8.248 6.675 8.219 8.219 0 0 0-.263 3.552c.057.177.2.181.328.178a2.65 2.65 0 0 1-.9.578l-.012.066c.107.069.111.13.111.13.254.047.808-.423 1.07-.667z" fill="#b3df7f"/><path data-name="パス 9537" d="M185.513 110.159l.015.012s.053.2.412.232a8.942 8.942 0 0 0 5.355-5.116c1.719-5.122.866-7.8.091-10.115a36.065 36.065 0 0 0-1.568-3.671 7.8 7.8 0 0 1-.462-2.011 6.454 6.454 0 0 1-1.238 1.676 14.827 14.827 0 0 0-4.43 5.738s-2.25 4.478-1.041 8.984c0 0 .726 3.335 1.975 4.423.182.161.35.052.5-.06a4.474 4.474 0 0 1-.691 1.427l.028.087c.171-.007.216.063.216.063.329-.149.681-1.162.838-1.669z" fill="#80c41c"/></g><g data-name="グループ化 2482"><path data-name="パス 9538" d="M268.641 117.561s.06.183.192.088l.721-1.519s.072.167.535.1c1.038-.162 1.846-.509 2.31-.563s3.32-.424 4.614-2.179c0 0 3.344-3.168 3.825-5.256 0 0 .459-2.057.751-2.131a6.425 6.425 0 0 0-3.748-.963c-1.878.245-2.86-.093-4.792.9s-3.436 4.471-3.626 5.611-.946 2.9-.2 4.343a1.207 1.207 0 0 1-.308.582 1.52 1.52 0 0 0-.346.809.222.222 0 0 0 .072.178z" fill="#b3df7f"/><path data-name="パス 9539" d="M268.71 113.398h.017s.109.139.4.006a9.121 9.121 0 0 0 2.523-6.378c-.363-4.8-1.941-6.554-3.337-8.059a27.016 27.016 0 0 0-2.481-2.231 6.079 6.079 0 0 1-1.045-1.395 6.409 6.409 0 0 1-.415 1.865 14.876 14.876 0 0 0-1.58 6.47s-.273 4.525 2.2 7.575c0 0 1.7 2.33 3.055 2.652.2.047.295-.111.379-.265a4.246 4.246 0 0 1-.067 1.43l.052.057c.134-.08.192-.045.192-.045a3.583 3.583 0 0 0 .107-1.682z" fill="#b3df7f"/><path data-name="パス 9540" d="M267.381 116.228l.008-.014c.003-.004.137-.05.15-.364.009-.219-1.15-3.609-3.59-4.578-3.517-1.4-5.318-.6-6.88.129a22.11 22.11 0 0 0-2.464 1.447 4.318 4.318 0 0 1-1.359.445 4.579 4.579 0 0 1 1.166 1.048 10.98 10.98 0 0 0 3.993 3.756s3.093 1.873 6.133.724c0 0 2.253-.7 2.967-1.817a.385.385 0 0 0-.05-.439 2.817 2.817 0 0 1 .984.575l.059-.026c-.008-.15.038-.19.038-.19-.106-.283-.803-.569-1.155-.696z" fill="#b3df7f"/><path data-name="パス 9541" d="M268.99 119.853l-.589-1.9v-2.054l.032-1.174.331-.11v.976l.136 2.414.362 1.746z" fill="#a0642f"/></g><g data-name="グループ化 2483"><path data-name="パス 9542" d="M252.506 112.784s.078.238.251.116l.939-1.979s.093.217.7.127c1.352-.21 2.4-.663 3.009-.735s4.324-.552 6.009-2.837c0 0 4.356-4.127 4.982-6.848 0 0 .6-2.679.978-2.775a8.362 8.362 0 0 0-4.882-1.254c-2.447.318-3.726-.122-6.242 1.173s-4.476 5.824-4.723 7.31-1.232 3.78-.26 5.656a1.569 1.569 0 0 1-.4.757 1.988 1.988 0 0 0-.451 1.054.288.288 0 0 0 .09.235z" fill="#b3df7f"/><path data-name="パス 9543" d="M252.592 107.361h.022s.142.181.527.008c.266-.12 3.615-3.966 3.286-8.307-.473-6.258-2.529-8.538-4.346-10.5a35.279 35.279 0 0 0-3.232-2.906 7.919 7.919 0 0 1-1.362-1.817 8.354 8.354 0 0 1-.541 2.429 19.367 19.367 0 0 0-2.059 8.428s-.355 5.894 2.871 9.866c0 0 2.214 3.034 3.979 3.454.26.062.385-.145.494-.345a5.524 5.524 0 0 1-.087 1.863l.067.074c.175-.1.25-.058.25-.058a4.649 4.649 0 0 0 .131-2.189z" fill="#b3df7f"/><path data-name="パス 9544" d="M250.871 111.048a.2.2 0 0 1 .011-.019s.178-.064.2-.475c.011-.284-1.5-4.7-4.677-5.963-4.581-1.819-6.927-.775-8.96.168a28.889 28.889 0 0 0-3.21 1.885 5.631 5.631 0 0 1-1.77.581 5.935 5.935 0 0 1 1.518 1.365 14.293 14.293 0 0 0 5.2 4.893s4.029 2.44 7.988.943c0 0 2.935-.916 3.865-2.366a.5.5 0 0 0-.066-.572 3.676 3.676 0 0 1 1.281.749l.077-.034c-.011-.2.05-.248.05-.248-.148-.369-1.048-.741-1.507-.907z" fill="#b3df7f"/><path data-name="パス 9545" d="M252.955 115.769l-.766-2.475v-2.677l.042-1.529.431-.143v1.271l.177 3.145.472 2.274z" fill="#a0642f"/></g><g data-name="グループ化 2484"><path data-name="パス 9546" d="M140.153 114.416s.076.232.244.113l.914-1.927s.091.212.678.123c1.318-.2 2.342-.645 2.93-.715s4.212-.538 5.853-2.763c0 0 4.242-4.019 4.852-6.668 0 0 .582-2.609.952-2.7a8.149 8.149 0 0 0-4.755-1.222c-2.383.31-3.628-.118-6.079 1.143s-4.359 5.671-4.6 7.118-1.2 3.681-.253 5.509a1.533 1.533 0 0 1-.39.738 1.927 1.927 0 0 0-.44 1.026.281.281 0 0 0 .094.225z" fill="#b3df7f"/><path data-name="パス 9547" d="M140.24 109.135a.187.187 0 0 0 .022 0s.138.176.512.008c.26-.116 3.521-3.862 3.2-8.09-.461-6.095-2.462-8.315-4.233-10.222A34.25 34.25 0 0 0 136.594 88a7.707 7.707 0 0 1-1.326-1.769 8.125 8.125 0 0 1-.527 2.365 18.862 18.862 0 0 0-2 8.208s-.347 5.74 2.8 9.608c0 0 2.155 2.956 3.875 3.364.253.06.374-.141.481-.336a5.379 5.379 0 0 1-.085 1.814l.066.072c.17-.1.243-.056.243-.056a4.536 4.536 0 0 0 .119-2.135z" fill="#b3df7f"/><path data-name="パス 9548" d="M138.556 112.726c0-.007.006-.013.01-.019s.174-.062.191-.462c.011-.277-1.459-4.578-4.555-5.807-4.461-1.771-6.746-.755-8.727.164a28.01 28.01 0 0 0-3.127 1.836 5.461 5.461 0 0 1-1.724.565 5.806 5.806 0 0 1 1.479 1.33 13.927 13.927 0 0 0 5.065 4.765s3.923 2.376 7.78.918c0 0 2.858-.893 3.763-2.3a.488.488 0 0 0-.064-.556 3.571 3.571 0 0 1 1.248.729l.075-.034c-.01-.191.048-.241.048-.241-.132-.365-1.015-.728-1.462-.888z" fill="#b3df7f"/><path data-name="パス 9549" d="M140.589 117.324l-.746-2.41v-2.607l.041-1.489.419-.14v1.238l.173 3.062.459 2.215z" fill="#a0642f"/></g></svg>