<svg xmlns="http://www.w3.org/2000/svg" width="143.754" height="139.124" viewBox="0 0 143.754 139.124"><g opacity=".581"><g data-name="グループ化 165"><g data-name="グループ化 164"><path data-name="パス 325" d="M49.061 113.062s29.24-.746 31.05 26.037c0 0-26.553 1.839-31.05-26.037z" fill="#99cf16"/></g></g><g data-name="グループ化 167"><g data-name="グループ化 166"><path data-name="パス 326" d="M29.68 96.193s25.709 13.5 13.439 37.573c0-.004-23.945-11.256-13.439-37.573z" fill="#80c86b"/></g></g><g data-name="グループ化 169"><g data-name="グループ化 168"><path data-name="パス 327" d="M21.552 72.189s15.289 24.134-7.773 39.042c0 0-14.922-21.335 7.773-39.042z" fill="#4dac27"/></g></g><g data-name="グループ化 171"><g data-name="グループ化 170"><path data-name="パス 328" d="M26.929 47.481s.771 28.3-26.9 30.05c-.003 0-1.903-25.698 26.9-30.05z" fill="#99cf16"/></g></g><g data-name="グループ化 173"><g data-name="グループ化 172"><path data-name="パス 329" d="M44.36 28.724S30.406 53.605 5.536 41.73c0 0 11.631-23.173 38.824-13.006z" fill="#80c86b"/></g></g><g data-name="グループ化 175"><g data-name="グループ化 174"><path data-name="パス 330" d="M69.163 20.862s-24.938 14.8-40.342-7.523c0-.004 22.045-14.445 40.342 7.523z" fill="#4dac27"/></g></g><g data-name="グループ化 177"><g data-name="グループ化 176"><path data-name="パス 331" d="M94.693 26.062s-29.24.747-31.051-26.036c0-.001 26.553-1.84 31.051 26.036z" fill="#99cf16"/></g></g><g data-name="グループ化 179"><g data-name="グループ化 178"><path data-name="パス 332" d="M114.074 42.931s-25.709-13.5-13.44-37.573c0 .004 23.946 11.255 13.44 37.573z" fill="#80c86b"/></g></g><g data-name="グループ化 181"><g data-name="グループ化 180"><path data-name="パス 333" d="M122.205 66.935s-15.289-24.134 7.773-39.042c-.004 0 14.918 21.335-7.773 39.042z" fill="#4dac27"/></g></g><g data-name="グループ化 183"><g data-name="グループ化 182"><path data-name="パス 334" d="M116.826 91.644s-.772-28.3 26.9-30.051c.002 0 1.903 25.697-26.9 30.051z" fill="#99cf16"/></g></g><g data-name="グループ化 185"><g data-name="グループ化 184"><path data-name="パス 335" d="M99.395 110.4s13.952-24.881 38.824-13.007c0 0-11.631 23.175-38.824 13.007z" fill="#80c86b"/></g></g><g data-name="グループ化 187"><g data-name="グループ化 186"><path data-name="パス 336" d="M74.591 118.262s24.938-14.8 40.343 7.523c0 .005-22.045 14.447-40.343-7.523z" fill="#4dac27"/></g></g></g></svg>