<svg xmlns="http://www.w3.org/2000/svg" width="46.648" height="56.249" viewBox="0 0 46.648 56.249"><path data-name="パス 11194" d="M30.796 29.538l-4.816 3.273a37.9 37.9 0 0 1-8.26-12.151l4.816-3.273a.491.491 0 0 0 .131-.682l-5.728-8.43a.491.491 0 0 0-.682-.13l-1.89 1.285a12.317 12.317 0 0 0-3.26 2.987 7.277 7.277 0 0 0-.45.901 8.923 8.923 0 0 0-.602 2.996 13.786 13.786 0 0 0 .287 3.165c.017.083.037.167.055.25l.025.11a.567.567 0 0 0 .018.1c.007.055.02.11.032.166a19.833 19.833 0 0 0 1.02 3.3c.258.633.545 1.276.854 1.902l.058.123c.048.1.095.2.145.3a41.66 41.66 0 0 0 1.513 2.796l.203.337c.451.75.887 1.434 1.294 2.032l.05.072.06.094c.411.605.893 1.27 1.436 1.98l.014.02.203.264a44.073 44.073 0 0 0 2.04 2.436l.254.27.086.091a29.77 29.77 0 0 0 1.436 1.472 19.909 19.909 0 0 0 2.69 2.161c.045.03.09.058.135.084l.076.048.11.074c.071.05.142.098.219.145a13.771 13.771 0 0 0 2.836 1.43 8.883 8.883 0 0 0 2.997.545c.21.009.418.01.625.005a6.317 6.317 0 0 0 3.106-1.164l3.162-2.147a.491.491 0 0 0 .13-.682l-5.728-8.428a.491.491 0 0 0-.701-.126z" fill="#f6caea"/></svg>