<svg xmlns="http://www.w3.org/2000/svg" width="139.071" height="116.556" viewBox="0 0 139.071 116.556"><g opacity=".604"><path data-name="パス 11166" d="M14.733 38.84a.933.933 0 0 0 .303-.237 1.35 1.35 0 0 0 .1-.11l.013-.018a1.025 1.025 0 0 0 .017-1.306.855.855 0 0 0-.233-.243 25.989 25.989 0 0 0-6.665-5.201c-1.841-.916-5.161-2.33-6.423.164-1.131 2.237 1.034 4.386 2.74 5.52 2.683 1.78 6.19.744 9.02 1.963a.788.788 0 0 0 1.128-.533z"/><path data-name="パス 11167" d="M10.483 29.03c.328.308.65.624.977.934a30.794 30.794 0 0 0 4.781 4.574.738.738 0 0 0 1.211-.064 1.1 1.1 0 0 0 .19-.283.866.866 0 0 0 .214-.874c-.735-2.907-1.748-6.45-3.956-8.593C12.153 23.03 8.51 23 8.824 26.22a4.31 4.31 0 0 0 1.66 2.81z"/><path data-name="パス 11168" d="M12.27 44.542l.01-.003a.718.718 0 0 0 .717-.837 1.233 1.233 0 0 0-1.1-1.265c-.885-1.067-2.904-1.026-4.126-.854-1.538.216-3.64 1.03-3.97 2.763-.402 2.112 1.985 2.212 3.43 1.969a14.482 14.482 0 0 0 2.746-.712 23.85 23.85 0 0 0 1.28-.531 6.39 6.39 0 0 1 1.014-.53z"/><path data-name="パス 11169" d="M136.03 88.654c.528-2.35-2.15-3.698-3.932-4.404-3.125-1.24-5.804-1.268-9.079-1.402a.957.957 0 0 0-.985.902 1.119 1.119 0 0 0 .02.625 1.158 1.158 0 0 0 .64 1.31c2.9 1.212 4.519 4.499 7.782 5.115 1.98.372 4.998.332 5.554-2.146z"/><path data-name="パス 11170" d="M123.545 78.561a1.04 1.04 0 0 0-.197.508l-.008.037c-.002.034-.01.065-.012.103a1 1 0 0 0 .91 1.186 30.855 30.855 0 0 0 6.423.25c.487.022.973.033 1.46.057a4.242 4.242 0 0 0 2.924-.588c2.292-1.618.631-4.56-1.679-4.952-3.152-.532-6.773 1.429-9.406 2.936a1.017 1.017 0 0 0-.415.463z"/><path data-name="パス 11171" d="M124.918 91.49c-.7-1.018-2.243-2.856-3.683-2.634a.866.866 0 0 0-1.272-.094.878.878 0 0 0-.27 1.313c-.11-.181-.004.01.034.148.055.21.107.423.175.629.144.429.32.85.486 1.27a13.83 13.83 0 0 0 1.318 2.507c.75 1.146 2.498 3.391 3.84 1.63 1.06-1.398.246-3.501-.628-4.77z"/><path data-name="パス 11172" d="M22.321 23.759c1.192.315 1.549-1.19.758-1.772a2.815 2.815 0 0 1 .312-.591c.317-.376.544-.803.895-1.153a8.714 8.714 0 0 1 3.512-1.914 19.584 19.584 0 0 1 10.114-.444 92.673 92.673 0 0 1 19.798 6.333c5.81 2.598 11.898 5.694 18.362 6.065 2.759.158 7.219.033 9.841-1.853 1.403 8.986 11.87 13.3 19.61 16.586 5.905 2.507 12.328 4.637 17.329 8.799 1.967 1.636 4.379 4.19 5.072 6.675a45.325 45.325 0 0 0 1.313 4.844c-1.376-.063-1.132 1.99.124 2.048 3.198.148 1.035-5.465.608-6.98-1.458-5.17-6.459-8.792-10.86-11.442-5.959-3.586-12.902-5.456-19.154-8.468-5.876-2.83-12.7-7.322-12.146-14.63.09-1.193-1.612-1.934-2.013-.603-.945 3.135-7.38 3.118-9.852 2.98-3.79-.212-7.472-1.563-10.961-2.973-3.724-1.506-7.33-3.286-11.048-4.807a103.82 103.82 0 0 0-10.663-3.398c-5.875-1.692-12.36-2.74-18.098.025-1.573.757-6.916 5.598-2.853 6.673z"/><path data-name="パス 11173" d="M117.29 95.55a.975.975 0 1 0-1.363 1.391c-.334-.317-3.58 1.818-4.219 2.158-2.292 1.215-5.374 1.375-7.978 1.253-6.283-.293-12.345-3.573-18.015-5.975-7.807-3.308-18.917-8.594-26.581-3.076-.548-3.075-3.393-6.247-5.27-8.05-4.65-4.468-11.086-6.748-16.96-9.11a96.524 96.524 0 0 1-18.059-9.546 20.577 20.577 0 0 1-6.842-7.017 10.124 10.124 0 0 1-1.573-4.534c-.005-.5.552-2.285.215-2.487 1.194.724 2.03-1.043.895-1.73-3.508-2.126-3.166 5.1-2.63 6.722 2.004 6.05 7.28 10.054 12.595 13.093 3.095 1.771 6.154 3.659 9.412 5.118 3.602 1.614 7.319 2.958 10.94 4.528 3.65 1.581 7.413 3.365 10.369 6.078 1.892 1.738 6.202 6.22 4.59 9.1-.526.94.936 2.148 1.69 1.297 4.82-5.416 12.142-3.996 18.34-1.923 6.757 2.26 12.975 6.113 19.826 8.091a26.486 26.486 0 0 0 8.821 1.413c2.345-.147 4.57.022 6.703-1.068 1.48-.755 7.625-3.333 5.093-5.725z"/></g></svg>