<svg xmlns="http://www.w3.org/2000/svg" width="1366" height="926.484" viewBox="0 0 1366 926.484"><defs><clipPath id="a"><path data-name="長方形 23" fill="none" d="M0 0h1366v926.484H0z"/></clipPath></defs><g data-name="グループ化 2456" clip-path="url(#a)"><g data-name="グループ化 2429"><path data-name="パス 9312" d="M975.201 44.333s-.879-.5-1.211.293l1.4 8.19s-.884-.4-2.881 1.387c-4.487 4.026-7.257 8.013-9.306 9.747s-14.614 12.528-15.216 23.5c0 0-5.939 23.138-1.562 32.729 0 0 4.373 9.4 3.211 10.639 0 0 12.863-1.5 21.11-8.613s14.056-9.034 20.166-19.191 2.211-28.434-.527-33.433-4.742-14.24-12.957-17.31a5.119 5.119 0 0 1-.372-3.243 6.4 6.4 0 0 0-.92-4.246 1.189 1.189 0 0 0-.935-.449z" fill="#b3df7f"/><path data-name="パス 9313" d="M980.117 32.06a.535.535 0 0 0 .518.72l6.2-2.835s-.114.671 1.786 1.548c4.259 1.978 8.081 2.852 9.946 3.775s13.414 6.587 22.3 4.4c0 0 19.823-1.561 26.441-6.665 0 0 6.461-5.052 7.722-4.588 0 0-4.211-8.028-11.817-11.735s-10.5-7.034-20.021-8.631-23.174 5.232-26.517 8.192-10.227 6.431-10.748 12.5a4.871 4.871 0 0 1-2.5 1 5.984 5.984 0 0 0-3.163 1.6.731.731 0 0 0-.147.719z" fill="#b3df7f"/><path data-name="パス 9314" d="M984.844 44.045c.006-.032.03-.057.035-.085 0 0-.3-.873 1.234-1.955 1.064-.753 22.9-5.715 37.689 3.793 21.33 13.714 24.58 25.634 27.25 36.07s1.553 12.132 2.684 17.447a28.458 28.458 0 0 0 3.255 8.482s-5.647-2.5-10.02-2.652-20.038-.429-35.173-8.547c0 0-22.01-9.957-28.527-29.424 0 0-5.582-13.953-2.856-21.253.4-1.075 1.438-1.138 2.425-1.156-1.684-1.748-6.9-3.243-6.9-3.243l-.1-.388c.795-.442.807-.811.807-.811 1.876-.357 6.142 2.326 8.197 3.722z" fill="#80c41c"/><path data-name="パス 9315" d="M965.487 43.998c-.007-.036-.028-.064-.033-.1 0 0 .462-.9-1.036-2.264-1.035-.948-23.892-9.018-41.327-.571-25.133 12.178-30.454 24.669-34.927 35.619s-3.516 12.926-5.548 18.533a31.964 31.964 0 0 1-4.8 8.763s6.483-2 11.235-1.624c4.734.379 21.729 2.019 39.327-4.879 0 0 25.3-8.038 35.294-28.279 0 0 8.156-14.393 6.308-22.622-.259-1.214-1.38-1.411-2.447-1.55 2.086-1.682 7.948-2.651 7.948-2.651l.178-.407c-.793-.576-.75-.974-.75-.974-1.977-.616-6.995 1.752-9.422 3.006z" fill="#b3df7f"/><path data-name="パス 9316" d="M981.257 32.355l-3.89-2.53-4.6-7.024-10.748-25.579-1.5 2.312 12.747 28.875 2.633 6.109-1.146 6.1-.344 5.432s2.064-1.174 1.958-2.157 1.19-5.271 1.19-5.271l-.745-6.87 3.745 1.848.621-.372z" fill="#a0642f"/></g><g data-name="グループ化 2430"><path data-name="パス 9317" d="M1318.35 14.877c-.033.012-.055.023-.082.033 0 0-.8-.192-1.73 1-.642.823-4.273 17.31 5.006 27.947 13.374 15.34 24.382 17.277 34 18.839s11.131.659 16.021 1.287a29.684 29.684 0 0 1 7.864 2.076s-2.507-4.107-2.825-7.36-1.218-14.926-9.235-25.881c0 0-9.986-16-28.006-20.062 0 0-12.949-3.59-19.49-1.258-.967.343-.981 1.12-.958 1.855-1.661-1.182-3.236-5.007-3.236-5.007l-.365-.065c-.364.608-.7.634-.7.634-.24 1.417 2.375 4.489 3.736 5.962z" fill="#b3df7f"/><path data-name="パス 9318" d="M1282.225 20.063a.592.592 0 0 0-.865-.295l-3.046 5.452s-.335-.583-2.381-.286c-4.592.671-8.143 1.987-10.194 2.232s-14.7 1.838-20.256 8.185c0 0-14.528 11.556-16.453 19 0 0-1.834 7.325-3.116 7.62 0 0 8.416 4.087 16.728 3.02s12.7.041 21.177-3.68 14.8-16.179 15.533-20.231 3.91-10.37.442-15.394a4.008 4.008 0 0 1 1.317-2.085 4.871 4.871 0 0 0 1.462-2.9.756.756 0 0 0-.348-.638z" fill="#b3df7f"/><path data-name="パス 9319" d="M1265.194 18.457a.626.626 0 0 1 .02-.076s.641-.479.122-1.855c-.362-.955-12.974-13.306-27.946-12.775-21.582.763-29.786 7.674-36.843 13.8s-7.132 7.752-10.57 10.963a27.539 27.539 0 0 1-6.486 4.531s5.151.581 8.249 2.258 14.062 7.89 28.575 8.467c0 0 20.184 2.1 34.412-8.686 0 0 10.827-7.362 12.589-13.52.263-.9-.428-1.372-1.1-1.79 2.036-.52 6.385.578 6.385.578l.27-.225c-.332-.629-.154-.892-.154-.892-1.119-1.014-5.406-.905-7.523-.778z" fill="#b3df7f"/><path data-name="パス 9320" d="M1277.192 12.675c.032-.008.057-.018.086-.024 0 0 .768.283 1.853-.8.75-.743 6.633-16.693-1.108-28.295-11.147-16.731-21.8-19.895-31.133-22.532s-10.953-1.913-15.717-3.088a28.94 28.94 0 0 1-7.516-2.948s1.916 4.359 1.788 7.623-.854 14.946 5.583 26.719c0 0 7.7 17 25.018 23.072 0 0 12.353 5.024 19.164 3.45 1-.232 1.124-1 1.2-1.733 1.488 1.359 2.522 5.331 2.522 5.331l.352.108c.446-.562.786-.55.786-.55.44-1.375-1.733-4.72-2.878-6.333z" fill="#b3df7f"/><path data-name="パス 9321" d="M1301.891 24.661l-20-4.122-9.46-.045-.609-1.679 8.04.332 3.58.436 16.6 2.84z" fill="#b3df7f"/><path data-name="パス 9322" d="M1325.398-11.265l-12.527 20.6-13.666 14.161v6.437l3.414-7.21 11.389-12.616 16.514-23.945z" fill="#a0642f"/></g><g data-name="グループ化 2431"><path data-name="パス 9323" d="M207.538-10.921l.026.094s-.432.824.933 2.084c.936.871 21.8 8.45 37.845.849 23.14-10.956 28.141-22.352 32.341-32.349s3.349-11.814 5.262-16.929a29.245 29.245 0 0 1 4.485-7.99s-5.962 1.778-10.309 1.4-19.885-2.018-36.067 4.154c0 0-23.259 7.167-32.614 25.629 0 0-7.606 13.117-6 20.667.236 1.113 1.254 1.3 2.225 1.442-1.927 1.523-7.3 2.363-7.3 2.363l-.166.377c.717.527.676.9.676.9 1.801.567 6.418-1.557 8.663-2.691z" fill="#b3df7f"/><path data-name="パス 9324" d="M226.317 15.304c-.017.032-.037.056-.055.084 0 0-.919.357-.822 2.122.058 1.212 10.125 19.387 27.715 23.319 25.357 5.663 37.456.124 47.923-4.845s11.166-6.84 16.35-9.522a35.588 35.588 0 0 1 9.213-3.3s-5.766-2.238-8.743-5.13-13.41-13.429-30.052-18.507c0 0-22.671-8.568-43.206-.352 0 0-15.3 5.265-19.635 11.881-.64.974-.017 1.728.61 2.411-2.557-.012-7.2-2.6-7.2-2.6l-.4.184c.151.823-.147 1.076-.147 1.076.922 1.51 5.936 2.686 8.449 3.179z" fill="#b3df7f"/><path data-name="パス 9325" d="M206.298 29.062s-.907.161-.583.865l6.486 4.487s-.836.23-.9 2.5c-.14 5.082.793 9.191.659 11.454s-.858 16.2 6.246 23.6c0 0 11.944 18.189 21.294 21.919 0 0 9.222 3.6 9.32 5.045 0 0 7.247-8.134 7.7-17.3s2.887-13.642-.116-23.583-17.958-19.516-23.123-21.2-12.758-6.515-20.134-3.911a5.468 5.468 0 0 1-2.448-1.878 6.974 6.974 0 0 0-3.487-2.221 1.1 1.1 0 0 0-.914.223z" fill="#80c41c"/><path data-name="パス 9326" d="M200.389 47.007c-.03-.016-.061-.016-.1-.035 0 0-.481-.8-2.406-.546-1.335.174-20.38 10.973-23.022 27.185-3.8 23.371 3.453 33.728 9.922 42.677s8.592 9.4 12.051 13.8a28.872 28.872 0 0 1 4.506 7.984s1.913-5.41 4.81-8.365 13.5-13.353 17.5-28.824c0 0 7.265-21.224-3.745-38.923 0 0-7.259-13.275-14.961-16.543-1.135-.482-1.9.153-2.6.781-.226-2.3 2.184-6.732 2.184-6.732l-.239-.34c-.9.211-1.206-.035-1.206-.035-1.569.983-2.385 5.612-2.694 7.916z" fill="#b3df7f"/><path data-name="パス 9327" d="M195.47 32.825c0-.037-.013-.067-.017-.1 0 0 .547-.764-.632-2.172-.81-.971-20.459-10.847-37.433-5.116-24.473 8.253-31.008 19-36.556 28.442s-4.955 11.343-7.557 16.2a30.427 30.427 0 0 1-5.556 7.427s6.157-1.093 10.419-.225 19.452 4.25 36.362-.045c0 0 24.062-4.487 35.894-21.743 0 0 9.36-12.158 8.808-19.831-.079-1.126-1.062-1.43-2.011-1.679 2.122-1.294 7.573-1.52 7.573-1.52l.221-.356c-.641-.6-.547-.965-.547-.965-1.712-.779-6.592.809-8.968 1.683z" fill="#b3df7f"/><path data-name="パス 9328" d="M216.728 8.95l-9.875 20.578-2.167 10.154-2.344.284 2.233-8.571 1.366-3.749 7.434-17.206z" fill="#a0642f"/><path data-name="パス 9329" d="M174.75-24.324l24.28 18.056 15.56 17.844 8.461 1.434-8.713-5.277-14.042-15.057-27.79-23.085z" fill="#a0642f"/></g><g data-name="グループ化 2432"><path data-name="パス 9330" d="M20.171 236.683c.009.036.018.062.024.094 0 0-.43.823.934 2.084.935.871 21.8 8.45 37.845.849 23.14-10.956 28.14-22.352 32.339-32.35s3.351-11.814 5.266-16.929a29.27 29.27 0 0 1 4.481-7.989s-5.96 1.778-10.307 1.4-19.886-2.017-36.07 4.155c0 0-23.257 7.168-32.614 25.63 0 0-7.6 13.117-6 20.666.236 1.115 1.255 1.3 2.221 1.441-1.923 1.524-7.3 2.363-7.3 2.363l-.166.377c.715.527.676.9.676.9 1.812.566 6.432-1.557 8.671-2.691z" fill="#b3df7f"/><path data-name="パス 9331" d="M38.95 262.908a1.55 1.55 0 0 1-.051.084s-.923.358-.825 2.122c.061 1.214 10.126 19.389 27.715 23.319 25.357 5.665 37.456.125 47.925-4.844s11.165-6.841 16.349-9.521a35.553 35.553 0 0 1 9.213-3.3s-5.765-2.238-8.741-5.13-13.414-13.433-30.056-18.51c0 0-22.671-8.568-43.2-.351 0 0-15.305 5.264-19.639 11.881-.641.974-.015 1.726.61 2.411-2.558-.012-7.2-2.6-7.2-2.6l-.4.184c.149.821-.149 1.076-.149 1.076.922 1.509 5.937 2.686 8.449 3.179z" fill="#80c41c"/><path data-name="パス 9332" d="M18.931 276.666s-.908.162-.58.865l6.486 4.488s-.838.229-.906 2.5c-.143 5.082.793 9.192.661 11.453s-.861 16.207 6.244 23.6c0 0 11.943 18.189 21.3 21.919 0 0 9.219 3.6 9.319 5.046 0 0 7.248-8.134 7.7-17.3s2.887-13.644-.113-23.582-17.961-19.518-23.124-21.2-12.762-6.53-20.138-3.924a5.5 5.5 0 0 1-2.449-1.879 6.964 6.964 0 0 0-3.488-2.221 1.1 1.1 0 0 0-.912.235z" fill="#b3df7f"/><path data-name="パス 9333" d="M13.026 294.61c-.033-.015-.061-.015-.1-.033 0 0-.478-.8-2.408-.547-1.335.174-20.378 10.974-23.019 27.185-3.805 23.372 3.449 33.728 9.919 42.676s8.6 9.4 12.051 13.8a28.91 28.91 0 0 1 4.508 7.983s1.912-5.41 4.809-8.364 13.5-13.354 17.5-28.825c0 0 7.265-21.223-3.745-38.922 0 0-7.259-13.274-14.96-16.543-1.133-.483-1.9.153-2.6.781-.228-2.3 2.184-6.732 2.184-6.732l-.242-.341c-.9.212-1.2-.034-1.2-.034-1.577.984-2.39 5.614-2.697 7.916z" fill="#b3df7f"/><path data-name="パス 9334" d="M8.104 280.428c-.005-.036-.013-.066-.015-.1 0 0 .544-.764-.634-2.172-.81-.969-20.459-10.846-37.433-5.115-24.474 8.253-31.008 19-36.554 28.441s-4.956 11.342-7.559 16.2a30.469 30.469 0 0 1-5.554 7.427s6.158-1.092 10.415-.225 19.454 4.25 36.365-.045c0 0 24.062-4.488 35.9-21.743 0 0 9.357-12.158 8.8-19.832-.079-1.126-1.063-1.43-2.009-1.678 2.121-1.294 7.572-1.52 7.572-1.52l.219-.357c-.639-.6-.546-.964-.546-.964-1.709-.777-6.59.81-8.967 1.683z" fill="#b3df7f"/><path data-name="パス 9335" d="M29.358 256.554l-9.872 20.577-2.164 10.154-2.346.284 2.231-8.571 1.369-3.75 7.434-17.205z" fill="#a0642f"/><path data-name="パス 9336" d="M-12.616 223.279l24.279 18.056 15.564 17.844 8.458 1.434-8.711-5.278-14.041-15.056-27.791-23.085z" fill="#a0642f"/></g><g data-name="グループ化 2436"><path data-name="パス 9337" d="M1223.228 152.948s.323-.819-.533-.934l-7.9 2.758s.227-.8-1.954-2.074c-4.906-2.872-9.429-4.352-11.571-5.68s-15.384-9.47-26.465-7.8c0 0-24.266-.29-32.986 5.171 0 0-8.522 5.425-9.991 4.721 0 0 4.036 10.206 12.761 15.54s11.791 9.7 23.135 12.684 28.827-3.8 33.282-7.02 13.28-6.677 14.728-13.985a6.053 6.053 0 0 1 3.168-.944 7.479 7.479 0 0 0 4.057-1.589.891.891 0 0 0 .269-.848z" fill="#b3df7f"/><path data-name="パス 9338" d="M1252.428 132.028s.627-.659-.128-1.042l-8.474.024s.532-.671-1-2.566c-3.448-4.265-7.088-7.109-8.566-9.043s-10.635-13.811-21.644-15.823c0 0-22.556-8.1-32.856-5.813 0 0-10.1 2.315-11.195 1.182 0 0-.26 10.838 5.788 18.639s7.186 12.862 16.606 19.314 28.427 5.757 33.859 4.185 15.041-1.949 19.28-8.312a6.287 6.287 0 0 1 3.332.141 7.817 7.817 0 0 0 4.415-.173.968.968 0 0 0 .583-.713z" fill="#b3df7f"/><path data-name="パス 9339" d="M1224.525 154.01s-.961.049-.74.81l5.908 5.487s-.9.123-1.339 2.438c-.992 5.206-.721 9.55-1.23 11.854s-3.584 16.516 2.475 25.068c0 0 9.239 20.3 18.222 25.4 0 0 8.863 4.952 8.726 6.453 0 0 8.792-7.369 10.786-16.721s5.226-13.613 3.8-24.225-15.19-22.478-20.217-24.916-12.008-8.419-20.01-6.749a5.462 5.462 0 0 1-2.2-2.265 6.935 6.935 0 0 0-3.209-2.747 1.142 1.142 0 0 0-.972.113z" fill="#b3df7f"/><path data-name="パス 9340" d="M1390.149 42.122c-1.994 1.042-4.018 2.03-6.045 3.009s-4.036 1.989-6.086 2.927c-4.073 1.92-8.18 3.772-12.3 5.605l.6-.408a678.25 678.25 0 0 1-8.91 9.766l-.328.348-.516.177c-6.288 2.152-12.638 4.154-19.074 5.942l.761-.491-6.419 6.618c-2.129 2.21-4.306 4.391-6.4 6.628l-.059.066-.034.024q-3.228 2.478-6.37 5.043c-2.119 1.684-8.182 7.66-10.266 9.379-3.963 3.343-3.675 2.474-8.153 6.439l-.02.016-.11.078c-7.235 5.568-11.507 7.5-18.2 11.232-3.508 2.3-7.345 4.188-10.107 5.921l-8.115 5.021-2.705 2.06c-3.572 2.611-5.484 3.883-9.11 6.437-3.607 2.577-7.286 5.481-10.936 8.007l-2.729 1.906-2.849 1.86-5.17 4.575-11.36 7.086.2-.178c-1.461 1.555-3 3.053-4.494 4.58s-1.975 2.983-3.518 4.477l-1.392-.192c1.24-1.71 2.513-3.4 3.8-5.076s2.532-3.383 3.855-5.032l.054-.069.149-.11 10.59-8 5.349-3.94 2.628-1.922 2.621-2.025c3.48-2.716 7.023-5.361 10.549-8.028 3.508-2.685 7.128-5.249 10.686-7.877l.1-.075.085-.049 9.65-5.618c3.24-1.893 6.419-3.7 9.592-5.646q9.606-5.684 19.346-11.192l-.131.095c4.315-3.3 8.659-8.069 12.883-11.451 2.091-1.712 4.224-3.384 6.278-5.134 2.082-1.723 3.319-2.1 5.343-3.878l.722-1.289c1.955-2.34 3.828-3.23 5.747-5.6l5.733-7.112.238-.3.52-.2c6.221-2.331 12.522-4.449 18.885-6.415l-.838.524c3.057-3.186 6.176-6.326 9.308-9.456l.292-.292.308-.117c4.235-1.6 8.478-3.18 12.758-4.692 2.127-.781 7.719-4.4 9.867-5.14a7.275 7.275 0 0 1 3.054.777z" fill="#a0642f"/><path data-name="パス 9341" d="M1287.646 100.991c.028-.02.043-.041.064-.056 0 0 .829-.08 1.226-1.49.276-.981-2.8-17.557-15.653-24.522-18.529-10.045-29.576-8.321-39.187-6.693s-10.663 2.956-15.481 3.944a30.32 30.32 0 0 1-8.171.581s3.958 3.037 5.536 5.974a55.837 55.837 0 0 0 18.794 21.229s15.62 11.752 34.058 9.764c0 0 13.513-.8 18.714-5.083.765-.629.474-1.36.168-2.039 2.016.568 4.99 3.643 4.99 3.643l.363-.056c.108-.689.409-.82.409-.82-.33-1.403-3.982-3.435-5.83-4.376z" fill="#b3df7f"/><g data-name="グループ化 2433"><path data-name="パス 9342" d="M1358.268 69.744a.553.553 0 0 0-.805-.3l-3.022 5.081s-.3-.558-2.24-.325c-4.351.54-7.736 1.7-9.679 1.885s-13.912 1.416-19.331 7.28c0 0-14.014 10.589-16.027 17.569 0 0-1.923 6.872-3.148 7.12 0 0 7.833 4.039 15.706 3.219s11.985.311 20.079-3.011 14.4-14.942 15.194-18.754 3.965-9.7.836-14.513a3.761 3.761 0 0 1 1.291-1.943 4.577 4.577 0 0 0 1.452-2.7.69.69 0 0 0-.306-.608z" fill="#b3df7f"/><path data-name="パス 9343" d="M1357.98 83.657c-.025-.006-.048 0-.072-.011 0 0-.459-.462-1.7-.019-.857.306-11.628 10.177-10.571 21.313 1.523 16.058 8.136 21.905 13.983 26.932s7.338 5.02 10.395 7.456a21.219 21.219 0 0 1 4.381 4.661 17.736 17.736 0 0 1 1.74-6.231c1.411-2.37 6.652-10.786 6.622-21.623 0 0 1.146-15.122-9.236-25.315 0 0-7.118-7.787-12.8-8.863-.833-.159-1.232.371-1.587.886-.554-1.5.282-4.78.282-4.78l-.219-.191c-.56.269-.8.15-.8.15-.876.871-.614 4.061-.418 5.635z" fill="#b3df7f"/><path data-name="パス 9344" d="M1363.527 74.197c-.014.016-.02.034-.034.048s-.574.165-.628 1.217c-.037.731 4.82 12.061 15.042 15.3 14.739 4.667 22.283 1.99 28.83-.432s7.074-3.5 10.326-4.835a21.54 21.54 0 0 1 5.694-1.489 18.636 18.636 0 0 1-4.887-3.5 42.884 42.884 0 0 0-16.733-12.554s-12.957-6.259-25.7-2.42c0 0-9.441 2.351-12.432 6.072-.441.547-.117 1.025.212 1.466-1.519-.136-4.124-1.921-4.124-1.921l-.246.089c.035.5-.156.635-.156.635.46.945 3.377 1.9 4.836 2.324z" fill="#b3df7f"/><path data-name="パス 9345" d="M1356.824 62.084l2.466 6.35v6.867l-.133 3.922-1.387.368v-3.26l-.569-8.068-1.516-5.835z" fill="#a0642f"/></g><g data-name="グループ化 2434"><path data-name="パス 9346" d="M1292.659 124.699s-.646.372-.161.823l6.488 1.691s-.571.406.134 2.171c1.584 3.955 3.671 6.867 4.318 8.643s4.73 12.714 12.659 16.477c0 0 15.256 10.761 23.7 11.088 0 0 8.3.266 8.858 1.351 0 0 2.875-8.238.172-15.425s-2.318-11.294-7.936-18.133-20.331-10.148-24.87-10.042-11.994-1.545-16.808 2.468a4.908 4.908 0 0 1-2.512-.781 6.174 6.174 0 0 0-3.424-.76.828.828 0 0 0-.618.429z" fill="#b3df7f"/><path data-name="パス 9347" d="M1294.079 140.128a.839.839 0 0 1-.088 0s-.639-.484-2.037.238c-.969.495-12.045 14-8.683 27.2 4.843 19.038 13.874 25.041 21.836 30.175s9.752 4.9 13.878 7.353a26.749 26.749 0 0 1 6.129 4.92s-.326-4.685.92-7.748 5.958-13.964 3.886-26.968c0 0-1.467-18.324-15.837-28.959 0 0-10.009-8.252-17.025-8.672-1.034-.063-1.414.635-1.743 1.307-.943-1.711-.559-5.779-.559-5.779l-.3-.2c-.621.408-.94.3-.94.3-.882 1.188.032 4.977.563 6.833z" fill="#b3df7f"/><path data-name="パス 9348" d="M1285.569 130.541a.66.66 0 0 1-.044-.07s.164-.739-1.211-1.5c-.948-.529-19.368-2.789-30.538 6.243-16.108 13.019-17.563 23.073-18.693 31.856s-.042 10.085-.433 14.536a22.9 22.9 0 0 1-1.807 7.228 27.246 27.246 0 0 1 7.95-3.006c3.564-.486 16.4-2.02 28-9.931 0 0 17.041-10 20.415-26.517 0 0 3.162-11.91.187-17.671-.441-.848-1.3-.813-2.109-.748 1.2-1.573 5.327-3.23 5.327-3.23l.048-.331c-.695-.294-.743-.6-.743-.6-1.581-.127-4.809 2.423-6.349 3.741z" fill="#b3df7f"/><path data-name="パス 9349" d="M1293.991 106.368l-.759 18.538 1.709 8.411-1.709.857-1.137-7.209-.189-3.26v-15.277z" fill="#a0642f"/></g><g data-name="グループ化 2435"><path data-name="パス 9350" d="M1333.321 53.314a.519.519 0 0 0-.517-.691l-5.965 2.856s.094-.649-1.764-1.479c-4.177-1.851-7.916-2.634-9.746-3.506s-13.166-6.18-21.759-3.908c0 0-19.244 1.837-25.572 6.9 0 0-6.176 5.021-7.415 4.591 0 0 4.261 7.733 11.724 11.207s10.337 6.672 19.631 8.067 22.425-5.463 25.607-8.39 9.819-6.421 10.2-12.33a4.715 4.715 0 0 1 2.413-1.017 5.776 5.776 0 0 0 3.051-1.6.713.713 0 0 0 .112-.7z" fill="#b3df7f"/><path data-name="パス 9351" d="M1320.828 43.528c.025-.019.041-.039.065-.053 0 0 .829-.054 1.285-1.45.316-.967-2.082-17.637-14.639-25.03-18.1-10.659-29.212-9.306-38.884-8s-10.778 2.6-15.632 3.421a30.41 30.41 0 0 1-8.188.309s3.831 3.167 5.287 6.154a55.235 55.235 0 0 0 17.91 21.846s15.126 12.267 33.635 10.9c0 0 13.536-.349 18.908-4.453.793-.6.53-1.344.251-2.034 1.992.641 4.839 3.808 4.839 3.808l.363-.045c.136-.683.445-.806.445-.806-.267-1.413-3.835-3.567-5.645-4.567z" fill="#80c41c"/><path data-name="パス 9352" d="M1334.132 44.995c.029.011.055.015.085.025 0 0 .448.633 2.024.317 1.087-.216 16.077-10.156 17.18-23.669 1.595-19.48-5.075-27.63-11.01-34.661s-7.712-7.284-10.849-10.733a24.428 24.428 0 0 1-4.252-6.334s-1.219 4.56-3.409 7.154-10.252 11.75-12.523 24.726c0 0-4.583 17.9 5.672 31.9 0 0 6.868 10.555 13.433 12.833.967.336 1.558-.23 2.092-.785.342 1.888-1.351 5.669-1.351 5.669l.219.272c.723-.225.99-.039.99-.039 1.232-.896 1.599-4.757 1.699-6.675z" fill="#b3df7f"/><path data-name="パス 9353" d="M1344.863 66.117l-12.117-12.592-7.08-4.582-.35-1.159.314-.929 6.352 4.474 2.642 2.226 11.729 10.993z" fill="#a0642f"/></g><path data-name="パス 9354" d="M1211.051 165.74s-.477-.648-1.024-.149l-1.989 6.6s-.516-.571-2.687.171c-4.878 1.672-8.45 3.833-10.641 4.52s-15.677 5-20.21 13.1c0 0-13.081 15.64-13.348 24.2 0 0-.194 8.416-1.529 9 0 0 10.256 2.778 19.117-.076s13.959-2.538 22.341-8.341 12.237-20.768 12.031-25.368 1.716-12.179-3.333-16.991a4.284 4.284 0 0 1 .924-2.559 5.252 5.252 0 0 0 .882-3.481c-.034-.424-.534-.626-.534-.626z" fill="#b3df7f"/></g><g data-name="グループ化 2440"><path data-name="パス 9355" d="M136.114 160.091s-.326-.818.531-.933l7.9 2.757s-.23-.8 1.951-2.074c4.9-2.872 9.431-4.352 11.571-5.68s15.386-9.47 26.464-7.8c0 0 24.268-.29 32.987 5.171 0 0 8.52 5.425 9.992 4.72 0 0-4.038 10.207-12.762 15.54s-11.79 9.7-23.136 12.685-28.826-3.8-33.283-7.02-13.28-6.676-14.729-13.986a6.048 6.048 0 0 0-3.167-.943 7.468 7.468 0 0 1-4.054-1.59.9.9 0 0 1-.265-.847z" fill="#b3df7f"/><path data-name="パス 9356" d="M106.915 139.173s-.627-.66.128-1.043l8.471.025s-.53-.672 1.006-2.567c3.449-4.265 7.089-7.108 8.567-9.043s10.635-13.811 21.645-15.823c0 0 22.555-8.1 32.856-5.813 0 0 10.1 2.315 11.2 1.184 0 0 .257 10.837-5.789 18.637s-7.186 12.862-16.6 19.315-28.428 5.757-33.863 4.183-15.041-1.949-19.278-8.311a6.285 6.285 0 0 0-3.331.141 7.838 7.838 0 0 1-4.417-.173.968.968 0 0 1-.595-.712z" fill="#b3df7f"/><path data-name="パス 9357" d="M134.818 161.154s.96.05.74.811l-5.907 5.487s.9.123 1.339 2.437c.993 5.206.721 9.551 1.23 11.854s3.583 16.516-2.477 25.068c0 0-9.239 20.3-18.221 25.4 0 0-8.865 4.953-8.725 6.453 0 0-8.794-7.367-10.787-16.721s-5.226-13.614-3.8-24.224 15.188-22.477 20.215-24.916 12.009-8.419 20.01-6.749a5.449 5.449 0 0 0 2.2-2.265 6.949 6.949 0 0 1 3.209-2.748 1.142 1.142 0 0 1 .974.113z" fill="#b3df7f"/><path data-name="パス 9358" d="M-30.807 49.267c2 1.042 4.016 2.029 6.045 3.008s4.037 1.99 6.086 2.927c4.072 1.921 8.181 3.772 12.3 5.607l-.6-.408c2.942 3.277 5.9 6.543 8.911 9.765l.327.348.515.177c6.29 2.153 12.64 4.154 19.075 5.942l-.762-.49 6.416 6.617c2.131 2.21 4.307 4.39 6.4 6.627l.059.066.033.025q3.232 2.476 6.372 5.042c2.121 1.684 8.182 7.66 10.266 9.379 3.961 3.343 3.674 2.474 8.152 6.439l.02.016.111.078c7.233 5.567 11.5 7.5 18.194 11.233 3.511 2.3 7.344 4.187 10.108 5.921l8.115 5.021 2.7 2.059c3.574 2.612 5.485 3.883 9.111 6.438 3.607 2.576 7.286 5.481 10.935 8l2.731 1.907 2.847 1.861 5.17 4.575 11.359 7.086-.2-.179c1.459 1.556 3 3.053 4.492 4.581s1.977 2.982 3.519 4.476l1.392-.193c-1.239-1.709-2.513-3.395-3.8-5.074s-2.533-3.383-3.856-5.033l-.057-.068-.146-.111-10.592-8-5.348-3.941-2.63-1.923-2.619-2.025c-3.481-2.715-7.024-5.36-10.55-8.028-3.508-2.685-7.125-5.248-10.685-7.876l-.1-.076-.085-.05-9.639-5.617c-3.238-1.892-6.416-3.7-9.59-5.645-6.4-3.79-12.84-7.538-19.345-11.192l.131.094c-4.317-3.3-8.659-8.067-12.884-11.451-2.09-1.712-4.224-3.383-6.279-5.133-2.079-1.724-3.318-2.1-5.341-3.879l-.723-1.289c-1.953-2.34-3.826-3.23-5.747-5.6l-5.732-7.105-.238-.3-.523-.2c-6.219-2.331-12.52-4.449-18.885-6.417l.838.525c-3.058-3.186-6.176-6.325-9.309-9.456l-.29-.291-.311-.116c-4.235-1.6-8.478-3.181-12.755-4.694-2.126-.781-7.718-4.4-9.866-5.139a7.246 7.246 0 0 0-3.056.777z" fill="#a0642f"/><path data-name="パス 9359" d="M71.697 108.136c-.029-.019-.041-.04-.064-.056 0 0-.827-.08-1.225-1.49-.276-.98 2.8-17.556 15.655-24.522 18.525-10.045 29.573-8.321 39.185-6.694s10.663 2.957 15.481 3.945a30.365 30.365 0 0 0 8.172.581s-3.961 3.037-5.537 5.973a55.848 55.848 0 0 1-18.794 21.23s-15.618 11.753-34.058 9.764c0 0-13.514-.8-18.714-5.083-.767-.628-.473-1.359-.166-2.04-2.017.57-4.991 3.643-4.991 3.643l-.363-.056c-.107-.689-.411-.821-.411-.821.327-1.402 3.98-3.433 5.83-4.374z" fill="#b3df7f"/><g data-name="グループ化 2437"><path data-name="パス 9360" d="M1.073 76.888a.553.553 0 0 1 .805-.3l3.02 5.078s.3-.557 2.243-.324c4.351.539 7.732 1.7 9.677 1.885s13.91 1.416 19.331 7.279c0 0 14.014 10.588 16.029 17.568 0 0 1.922 6.873 3.144 7.12 0 0-7.834 4.039-15.7 3.22s-11.987.31-20.081-3.012-14.4-14.941-15.193-18.753-3.964-9.7-.838-14.513a3.745 3.745 0 0 0-1.29-1.943 4.58 4.58 0 0 1-1.453-2.7.689.689 0 0 1 .306-.605z" fill="#b3df7f"/><path data-name="パス 9361" d="M1.362 90.801c.025-.006.046 0 .071-.011 0 0 .458-.462 1.695-.019.856.3 11.629 10.176 10.57 21.314-1.52 16.057-8.133 21.9-13.981 26.931s-7.337 5.021-10.394 7.456a21.086 21.086 0 0 0-4.379 4.661 17.749 17.749 0 0 0-1.738-6.232c-1.414-2.37-6.651-10.786-6.622-21.624 0 0-1.146-15.121 9.235-25.314 0 0 7.121-7.786 12.8-8.863.835-.159 1.235.372 1.589.885.553-1.5-.282-4.779-.282-4.779l.217-.191c.56.268.805.149.805.149.873.874.611 4.064.414 5.637z" fill="#b3df7f"/><path data-name="パス 9362" d="M-4.185 81.341a.459.459 0 0 0 .033.048s.573.165.629 1.218c.035.73-4.82 12.06-15.046 15.3-14.738 4.666-22.283 1.99-28.825-.433s-7.076-3.5-10.329-4.835a21.578 21.578 0 0 0-5.693-1.489 18.6 18.6 0 0 0 4.886-3.5 42.872 42.872 0 0 1 16.733-12.556s12.958-6.26 25.7-2.42c0 0 9.439 2.352 12.432 6.07.44.547.114 1.026-.212 1.466 1.519-.136 4.12-1.92 4.12-1.92l.248.089c-.037.5.157.635.157.635-.455.947-3.375 1.899-4.833 2.327z" fill="#b3df7f"/><path data-name="パス 9363" d="M2.518 69.228l-2.466 6.35v6.868l.133 3.922 1.385.367v-3.26l.571-8.068 1.516-5.835z" fill="#a0642f"/></g><g data-name="グループ化 2438"><path data-name="パス 9364" d="M66.685 131.843s.645.374.159.823l-6.488 1.692s.572.405-.132 2.17c-1.584 3.955-3.673 6.868-4.319 8.644s-4.731 12.714-12.66 16.475c0 0-15.257 10.762-23.7 11.089 0 0-8.3.266-8.859 1.352 0 0-2.874-8.239-.172-15.426s2.319-11.294 7.937-18.133 20.33-10.147 24.867-10.042 12-1.544 16.809 2.469a4.915 4.915 0 0 0 2.513-.781 6.166 6.166 0 0 1 3.424-.76.836.836 0 0 1 .621.428z" fill="#b3df7f"/><path data-name="パス 9365" d="M65.262 147.274h.086s.638-.482 2.037.238c.971.5 12.045 14 8.684 27.2-4.842 19.039-13.874 25.041-21.837 30.175s-9.749 4.9-13.874 7.353a26.733 26.733 0 0 0-6.131 4.92s.325-4.684-.921-7.748-5.957-13.964-3.885-26.968c0 0 1.466-18.324 15.836-28.962 0 0 10.009-8.25 17.026-8.671 1.032-.062 1.413.635 1.742 1.307.943-1.711.559-5.779.559-5.779l.3-.2c.622.408.937.3.937.3.885 1.188-.028 4.977-.559 6.835z" fill="#b3df7f"/><path data-name="パス 9366" d="M73.775 137.686c.015-.026.03-.046.042-.07 0 0-.162-.738 1.212-1.5.948-.53 19.368-2.791 30.537 6.243 16.1 13.018 17.562 23.071 18.692 31.856s.043 10.086.434 14.537a22.944 22.944 0 0 0 1.806 7.227 27.286 27.286 0 0 0-7.948-3c-3.565-.487-16.4-2.02-28-9.931 0 0-17.042-10-20.413-26.517 0 0-3.164-11.91-.187-17.67.441-.849 1.3-.813 2.109-.748-1.2-1.573-5.327-3.231-5.327-3.231l-.05-.332c.694-.293.742-.6.742-.6 1.581-.132 4.809 2.417 6.351 3.736z" fill="#80c41c"/><path data-name="パス 9367" d="M65.346 113.513l.757 18.537-1.71 8.412 1.71.857 1.136-7.21.192-3.26v-15.276z" fill="#a0642f"/></g><g data-name="グループ化 2439"><path data-name="パス 9368" d="M26.019 60.453a.521.521 0 0 1 .519-.692l5.969 2.857s-.1-.65 1.762-1.479c4.175-1.851 7.915-2.635 9.746-3.505s13.163-6.182 21.76-3.909c0 0 19.241 1.837 25.57 6.9 0 0 6.177 5.021 7.414 4.59 0 0-4.258 7.734-11.722 11.207s-10.338 6.672-19.635 8.067-22.422-5.464-25.6-8.39-9.818-6.421-10.2-12.33a4.71 4.71 0 0 0-2.407-1.017 5.792 5.792 0 0 1-3.05-1.6.715.715 0 0 1-.126-.699z" fill="#b3df7f"/><path data-name="パス 9369" d="M38.511 50.672c-.025-.018-.039-.038-.063-.052 0 0-.83-.054-1.284-1.451-.316-.967 2.081-17.637 14.637-25.03 18.1-10.659 29.215-9.307 38.886-8s10.776 2.6 15.632 3.419a30.417 30.417 0 0 0 8.186.31s-3.829 3.166-5.286 6.154a55.208 55.208 0 0 1-17.91 21.843S76.185 60.136 57.677 58.766c0 0-13.54-.348-18.912-4.453-.791-.6-.528-1.343-.248-2.034-1.994.64-4.841 3.809-4.841 3.809l-.363-.044c-.135-.684-.444-.808-.444-.808.266-1.41 3.835-3.562 5.642-4.564z" fill="#80c41c"/><path data-name="パス 9370" d="M25.214 52.142c-.032.009-.058.013-.085.023 0 0-.45.635-2.024.317-1.091-.217-16.081-10.155-17.181-23.668C4.329 9.333 11 1.183 16.932-5.847s7.714-7.284 10.85-10.733a24.455 24.455 0 0 0 4.251-6.336s1.218 4.561 3.412 7.155 10.249 11.75 12.52 24.726c0 0 4.586 17.9-5.669 31.9 0 0-6.868 10.557-13.434 12.833-.969.336-1.557-.229-2.091-.784-.344 1.886 1.351 5.668 1.351 5.668l-.219.272c-.722-.225-.993-.039-.993-.039-1.234-.895-1.601-4.757-1.696-6.673z" fill="#b3df7f"/><path data-name="パス 9371" d="M14.477 73.258l12.119-12.589 7.08-4.582.351-1.159-.314-.929-6.351 4.474-2.642 2.228-11.731 10.992z" fill="#a0642f"/></g><path data-name="パス 9372" d="M148.292 172.884s.476-.648 1.022-.149l1.988 6.6s.517-.571 2.687.171c4.878 1.671 8.451 3.834 10.642 4.52s15.677 5 20.209 13.1c0 0 13.081 15.638 13.347 24.2 0 0 .195 8.416 1.532 9 0 0-10.256 2.778-19.117-.076s-13.957-2.539-22.34-8.341-12.239-20.769-12.032-25.368-1.718-12.179 3.333-16.992a4.285 4.285 0 0 0-.924-2.559 5.264 5.264 0 0 1-.884-3.481c.038-.423.537-.625.537-.625z" fill="#b3df7f"/></g><g data-name="グループ化 2441"><path data-name="パス 9373" d="M1099.02 9.332c.025-.014.052-.019.075-.034 0 0 .347-.686 1.947-.588 1.119.066 17.578 7.878 20.9 21.09 4.784 19.05-.472 28-5.178 35.759s-6.424 8.241-8.959 12.074a23.5 23.5 0 0 0-3.159 6.839s-1.958-4.347-4.557-6.617-12.069-10.23-16.452-22.762c0 0-7.488-17.08.346-32.306 0 0 5.055-11.366 11.176-14.5.9-.465 1.574.016 2.194.495.026-1.912-2.275-5.428-2.275-5.428l.175-.293c.755.124.989-.1.989-.1 1.378.717 2.365 4.49 2.778 6.371z" fill="#b3df7f"/><path data-name="パス 9374" d="M1085.372 6.043c-.01-.034-.037-.059-.045-.092 0 0 .289-.957-1.423-2.075-1.188-.777-25.1-5.367-40.722 5.488-22.529 15.65-25.521 28.7-27.954 40.124s-1.144 13.219-2.135 19.025a30.76 30.76 0 0 1-3.156 9.32s6.015-2.915 10.753-3.242 21.717-1.2 37.781-10.552c0 0 23.431-11.6 29.635-32.963 0 0 5.438-15.338 2.149-23.159-.475-1.151-1.61-1.181-2.683-1.164 1.751-1.958 7.336-3.768 7.336-3.768l.1-.426c-.879-.451-.913-.85-.913-.85-2.046-.319-6.558 2.745-8.723 4.334z" fill="#b3df7f"/><path data-name="パス 9375" d="M1118.492-18.215l-7.688 5.922-6.548 6.694-3.985 5.15-5.126 4.119h-1.993l.854-2.059 4.271-2.833 3.7-5.149 6.547-6.695 3.132-2.832z" fill="#a0642f"/></g><g data-name="グループ化 2442"><path data-name="パス 9376" d="M123.547-22.823a.6.6 0 0 0 .017-.076s-.38-.672.705-1.743c.75-.748 17.758-7.533 31.258-1.655 19.462 8.474 23.941 17.769 27.721 25.928s3.13 9.676 4.87 13.859a24.444 24.444 0 0 0 3.951 6.493s-4.978-1.323-8.561-.9-16.372 2.168-29.939-2.531c0 0-19.443-5.334-27.742-20.357 0 0-6.686-10.653-5.59-16.937.155-.923 1-1.106 1.793-1.245-1.638-1.211-6.109-1.77-6.109-1.77l-.146-.3c.576-.46.532-.762.532-.762 1.472-.529 5.355 1.118 7.24 1.996z" fill="#b3df7f"/><path data-name="パス 9377" d="M112.205-15.212c-.039-.013-.076-.012-.108-.025 0 0-.65-.8-2.683-.284-1.414.358-20.273 14.42-20.606 32.231-.482 25.688 8.949 35.935 17.317 44.768s10.724 9.039 15.13 13.356a32.728 32.728 0 0 1 6.1 8.034s1.221-6.071 3.887-9.627 12.487-16.112 14.392-33.306c0 0 4.548-23.8-10.072-41.494 0 0-9.886-13.4-18.7-15.939-1.291-.382-2.026.4-2.679 1.169-.606-2.454 1.308-7.538 1.308-7.538l-.306-.335c-.937.342-1.3.114-1.3.114-1.554 1.255-1.707 6.355-1.68 8.876z" fill="#b3df7f"/><path data-name="パス 9378" d="M108.794-30.409l.338 9.127 1.717 8.8 1.973 6.028.373 6.192-1.24 1.41-1.251-1.887.208-4.785-2.151-5.826-1.716-8.8-.5-3.979z" fill="#a0642f"/></g><g data-name="グループ化 2443"><path data-name="パス 9379" d="M941.708-9.237a.682.682 0 0 0-1.024-.15l-1.987 6.6s-.518-.572-2.688.171c-4.876 1.671-8.45 3.834-10.639 4.519s-15.678 5-20.212 13.1c0 0-13.08 15.64-13.348 24.2 0 0-.193 8.416-1.531 9 0 0 10.257 2.778 19.12-.076s13.957-2.539 22.34-8.341 12.239-20.769 12.03-25.369 1.719-12.179-3.331-16.991a4.28 4.28 0 0 1 .923-2.557 5.278 5.278 0 0 0 .881-3.483c-.035-.422-.534-.623-.534-.623z" fill="#b3df7f"/><path data-name="パス 9380" d="M949.979-16.996s-.4.462.121.7l5.726-.254s-.335.471.769 1.709c2.477 2.786 5.034 4.608 6.1 5.872S970.36.075 977.872 1.125c0 0 15.527 4.85 22.417 3.013 0 0 6.751-1.846 7.529-1.113 0 0-.194-7.335-4.549-12.442s-5.3-8.494-11.891-12.593-19.416-3.1-23.037-1.885-10.1 1.739-12.752 6.159a4.246 4.246 0 0 1-2.259 0 5.3 5.3 0 0 0-2.979.242.645.645 0 0 0-.372.498z" fill="#b3df7f"/><path data-name="パス 9381" d="M949.084-6.524c.019-.021.043-.033.059-.053 0 0 .1-.749 1.659-1.1 1.08-.245 19.391 2.653 27.009 14.318 10.984 16.823 9 26.8 7.138 35.484s-3.341 9.621-4.463 13.972a22.547 22.547 0 0 0-.7 7.383s-3.33-3.6-6.568-5.045-14.949-6.416-23.346-17.138c0 0-12.894-14.2-10.572-30.86 0 0 .978-12.217 5.749-16.892.7-.689 1.506-.42 2.256-.134-.62-1.83-3.995-4.541-3.995-4.541l.064-.326c.763-.092.91-.366.91-.366 1.548.302 3.768 3.62 4.8 5.298z" fill="#b3df7f"/><path data-name="パス 9382" d="M934.506-12.443c.007-.029 0-.056.012-.083 0 0 .686-.541.062-2.021-.428-1.031-14.664-14.065-30.948-13-23.483 1.542-32.14 9.343-39.58 16.24S856.595-2.629 852.981.98a29.828 29.828 0 0 1-6.88 5.149s5.633.464 9.077 2.191 15.63 8.126 31.465 8.275c0 0 22.067 1.632 37.127-10.591 0 0 11.5-8.374 13.166-15.142.257-.992-.516-1.482-1.267-1.911 2.2-.635 6.978.417 6.978.417l.286-.253c-.386-.673-.2-.963-.2-.963-1.265-1.065-5.93-.803-8.227-.595z" fill="#b3df7f"/><path data-name="パス 9383" d="M950.725-16.43l-1.994-3.089-.855-6.695v-11.329l-1.987 1.289.285 14.417-.285 5.407-3.132 4.249-2.278 3.991s1.994-.257 2.278-1.031a27.238 27.238 0 0 1 2.848-3.6l1.993-5.407 2.136 2.531.609-.091z" fill="#a0642f"/></g><g data-name="グループ化 2444"><path data-name="パス 9384" d="M487.88 19.223a.81.81 0 0 0-1.2-.351l-3.745 7.563s-.5-.772-3.251-.252c-6.184 1.174-10.908 3.158-13.67 3.606s-19.8 3.331-26.9 12.248c0 0-18.894 16.5-20.985 26.7 0 0-1.975 10.037-3.7 10.509 0 0 11.7 5.062 22.9 3.147s17.226-.673 28.462-6.2 18.95-22.773 19.656-28.318 4.58-14.283-.469-20.9a5.345 5.345 0 0 1 1.636-2.9 6.525 6.525 0 0 0 1.779-4.016 1.026 1.026 0 0 0-.513-.836z" fill="#b3df7f"/><path data-name="パス 9385" d="M499.381 11.338s-.573.485.005.859l6.9.667s-.5.507.566 2.177c2.388 3.752 5.07 6.366 6.082 8.058s7.3 12.124 16.07 14.653c0 0 17.577 8.433 26.2 7.4 0 0 8.461-1.065 9.239-.054 0 0 1.29-8.809-2.866-15.661s-4.585-11.065-11.619-17.086-22.6-7-27.18-6.159-12.45.371-16.536 5.211a5.135 5.135 0 0 1-2.7-.389 6.424 6.424 0 0 0-3.61-.214.831.831 0 0 0-.551.538z" fill="#b3df7f"/><path data-name="パス 9386" d="M496.147 23.723c.023-.025.058-.035.08-.056 0 0 .268-.881 2.21-1.032 1.346-.11 22.658 6.46 29.356 21.711 9.66 21.994 5.224 33.6 1.189 43.67s-5.99 10.948-8.231 15.965a27.767 27.767 0 0 0-2.369 8.72s-3.238-4.873-6.812-7.152-16.564-10.211-24.386-24.466c0 0-12.489-19.176-6.258-38.72 0 0 3.7-14.455 10.377-19.242.979-.706 1.892-.247 2.73.222-.363-2.295-3.843-6.113-3.843-6.113l.145-.378c.932.019 1.166-.285 1.166-.285 1.79.624 3.76 4.971 4.646 7.156z" fill="#b3df7f"/><path data-name="パス 9387" d="M479.927 14.166c.015-.033.015-.066.032-.1 0 0 .932-.533.49-2.411-.3-1.3-14.633-19.313-34.343-20.794-28.418-2.128-40.393 5.741-50.727 12.734s-10.721 9.12-15.8 12.827a37.527 37.527 0 0 1-9.3 5s6.646 1.509 10.407 4.158 17.024 12.376 35.942 15.238c0 0 26.067 5.69 46.623-6.386 0 0 15.5-8.072 18.894-15.888.51-1.146-.309-1.861-1.123-2.5 2.76-.388 8.266 1.681 8.266 1.681l.394-.256c-.319-.871-.043-1.186-.043-1.186-1.286-1.499-6.92-1.976-9.712-2.117z" fill="#80c41c"/><path data-name="パス 9388" d="M500.16 12.144l-1.744-4.036.366-8.155 2.347-13.558-2.65 1.2-2.647 17.307-1.463 6.421-4.626 4.554-3.552 4.391s2.437.029 2.938-.848 4.155-3.831 4.155-3.831l3.5-6.133 2.032 3.392.748-.005z" fill="#a0642f"/></g><g data-name="グループ化 2445"><path data-name="パス 9389" d="M1348.604 243.266a.732.732 0 0 0-.871-.815l-7.227 5.1s-.042-.894-2.742-1.6c-6.074-1.584-11.272-1.83-13.947-2.6s-19.218-5.441-30.113-.571c0 0-25.238 6.576-32.365 14.7 0 0-6.945 8.033-8.713 7.721 0 0 7.715 9.426 18.6 12.476s15.573 6.7 28.357 6.58 28.537-12.1 32.032-16.7 11.445-10.68 10.41-18.66a6.117 6.117 0 0 1 2.949-1.875 7.453 7.453 0 0 0 3.651-2.8.94.94 0 0 0-.021-.956z" fill="#b3df7f"/><path data-name="パス 9390" d="M1362.852 241.177s-.758.184-.443.76l5.756 3.514s-.7.235-.629 2.161c.168 4.329 1.184 7.774 1.2 9.7s.171 13.8 6.613 19.753c0 0 11.163 14.9 19.318 17.639 0 0 8.026 2.642 8.193 3.864 0 0 5.7-7.237 5.576-15.049s1.677-11.718-1.416-20.017-16.339-15.754-20.827-16.953-11.191-4.947-17.3-2.4a4.719 4.719 0 0 1-2.191-1.489 6.027 6.027 0 0 0-3.084-1.719.934.934 0 0 0-.766.236z" fill="#b3df7f"/><path data-name="パス 9391" d="M1353.583 250.742a.917.917 0 0 1 .1-.014s.693-.665 2.49.024c1.244.472 16.672 15.3 14.693 31.616-2.856 23.523-12.786 31.9-21.565 39.088s-10.962 7.138-15.541 10.619a31.3 31.3 0 0 0-6.611 6.7s-.338-5.677-2.315-9.2-9.346-16.034-8.876-31.944c0 0-1.105-22.232 14.521-36.862 0 0 10.759-11.2 19.138-12.6 1.228-.212 1.8.583 2.295 1.35.872-2.18-.227-7.027-.227-7.027l.32-.273c.817.413 1.177.242 1.177.242 1.258 1.303.743 5.977.401 8.281z" fill="#b3df7f"/><path data-name="パス 9392" d="M1344.194 235.43c.032-.022.05-.052.08-.072 0 0 1.1-.075 1.682-1.922.413-1.279-2.923-23.261-19.574-32.92-24-13.917-38.659-12.037-51.414-10.234s-14.195 3.517-20.6 4.642a40.217 40.217 0 0 1-10.8.477s5.088 4.147 7.04 8.08 8.634 18.144 23.867 28.686c0 0 20.08 16.066 44.5 14.1 0 0 17.876-.567 24.922-6.035 1.046-.8.689-1.777.3-2.686 2.638.825 6.432 4.986 6.432 4.986l.48-.059c.169-.9.574-1.066.574-1.066-.364-1.861-5.095-4.669-7.489-5.977z" fill="#80c41c"/><path data-name="パス 9393" d="M1363.121 242.213l.549-4.306 4.55-7.051 9.088-10.985-2.964-.058-11.3 14.167-4.618 5.054-6.446 2.064-5.414 2.375s2.14 1.059 3.036.5a38.682 38.682 0 0 1 5.656-1.624l6.274-3.935.039 3.859.662.31z" fill="#a0642f"/></g><g data-name="グループ化 2446"><path data-name="パス 9394" d="M1187.995 30.584c.033-.016.062-.022.088-.038 0 0 .392-.786 2.226-.674 1.275.076 20.082 9 23.875 24.1 5.469 21.772-.535 32.006-5.914 40.867s-7.342 9.418-10.241 13.8a26.967 26.967 0 0 0-3.61 7.816s-2.235-4.968-5.2-7.563-13.8-11.7-18.8-26.013c0 0-8.555-19.519.4-36.919 0 0 5.771-12.988 12.768-16.571 1.025-.531 1.8.018 2.506.565.034-2.187-2.6-6.2-2.6-6.2l.2-.335c.865.14 1.133-.112 1.133-.112 1.56.812 2.698 5.128 3.169 7.277z" fill="#80c41c"/><path data-name="パス 9395" d="M1181.058 13.654c.013-.027.012-.056.022-.078 0 0 .734-.461.3-1.962-.294-1.045-12.576-15.125-28.546-15.685-23.028-.808-32.385 5.929-40.455 11.91s-8.3 7.705-12.245 10.861a30.077 30.077 0 0 1-7.316 4.336s5.426 1.005 8.567 3.022 14.232 9.444 29.616 11.146c0 0 21.273 3.756 37.4-6.654 0 0 12.19-7.016 14.629-13.436.361-.942-.327-1.492-1-1.983 2.211-.4 6.734 1.091 6.734 1.091l.306-.219c-.287-.693-.077-.958-.077-.958-1.099-1.163-5.672-1.367-7.935-1.391z" fill="#80c41c"/><path data-name="パス 9396" d="M1171.391 35.155a.375.375 0 0 1-.058-.071s.04-.859-1.652-1.509c-1.173-.452-22.412-.171-33.336 11.748-15.753 17.19-15.512 28.774-15.142 38.876s1.851 11.4 2.245 16.493a25.846 25.846 0 0 1-.686 8.448s4.48-3.519 8.418-4.622 18.153-4.8 29.769-15.525c0 0 17.389-13.92 18.09-33.1 0 0 1.336-13.947-3.112-20-.652-.892-1.616-.719-2.518-.52 1.06-1.965 5.414-4.472 5.414-4.472l-.01-.38c-.842-.229-.955-.562-.955-.562-1.808.09-4.972 3.472-6.467 5.196z" fill="#b3df7f"/><path data-name="パス 9397" d="M1178.965 30.773l5.316-6.266 7.019-10.127 3.607-4.805 3.988-9.612 5.884-7.724 8.732-15.1 10.818-12.186-4.743-.172-7.975 10.986-3.036 5.836-5.7 10.642-6.072 6.694-3.8 9.612-2.847 4.119-6.644 8.926-3.794 4.634-2.222 3.785.514 1.449z" fill="#a0642f"/></g><g data-name="グループ化 2447"><path data-name="パス 9398" d="M732.464 26.465a.727.727 0 0 0 .088-.039s.394-.785 2.225-.672c1.276.075 20.086 9 23.876 24.1 5.469 21.771-.536 32.006-5.915 40.867s-7.341 9.417-10.238 13.8a26.983 26.983 0 0 0-3.613 7.814s-2.233-4.968-5.2-7.564-13.795-11.7-18.8-26.012c0 0-8.556-19.519.4-36.919 0 0 5.774-12.988 12.768-16.572 1.027-.531 1.8.019 2.507.566.034-2.187-2.6-6.2-2.6-6.2l.195-.334c.866.139 1.133-.112 1.133-.112 1.566.814 2.702 5.128 3.174 7.277z" fill="#b3df7f"/><path data-name="パス 9399" d="M725.524 9.537c.012-.026.011-.054.022-.077 0 0 .733-.462.3-1.963-.295-1.044-12.575-15.123-28.545-15.684C674.274-9 664.924-2.263 656.85 3.718s-8.3 7.708-12.247 10.864a30.146 30.146 0 0 1-7.316 4.335s5.429 1 8.568 3.021 14.231 9.444 29.617 11.147c0 0 21.271 3.755 37.393-6.655 0 0 12.192-7.016 14.631-13.435.361-.944-.328-1.492-1-1.983 2.211-.4 6.734 1.089 6.734 1.089l.3-.219c-.288-.693-.077-.957-.077-.957-1.094-1.163-5.665-1.366-7.929-1.388z" fill="#b3df7f"/><path data-name="パス 9400" d="M715.859 31.036c-.021-.027-.047-.044-.056-.07 0 0 .039-.86-1.654-1.508-1.174-.455-22.412-.172-33.337 11.746-15.753 17.19-15.51 28.774-15.141 38.875s1.851 11.4 2.244 16.494a25.873 25.873 0 0 1-.685 8.449s4.479-3.521 8.419-4.623 18.152-4.8 29.771-15.524c0 0 17.388-13.92 18.09-33.1 0 0 1.337-13.947-3.114-20-.651-.892-1.616-.719-2.518-.52 1.062-1.964 5.414-4.472 5.414-4.472l-.009-.379c-.842-.229-.955-.563-.955-.563-1.806.088-4.972 3.471-6.469 5.195z" fill="#b3df7f"/><path data-name="パス 9401" d="M723.434 26.654l5.315-6.266 7.021-10.126 3.607-4.806 3.986-9.612 5.887-7.724 8.729-15.105 10.818-12.186-4.743-.172-7.971 10.985-3.039 5.837-5.695 10.636-6.074 6.7-3.8 9.612-2.847 4.119-6.642 8.926-3.8 4.635-2.223 3.785.514 1.45z" fill="#a0642f"/></g><g data-name="グループ化 2448"><path data-name="パス 9402" d="M1375.958 152.421s-.655.218-.323.7l5.353 2.659s-.594.257-.356 1.937c.527 3.779 1.728 6.724 1.913 8.409s1.377 12.074 7.548 16.819c0 0 11.106 12.238 18.488 14.048 0 0 7.268 1.726 7.521 2.786 0 0 4.346-6.756 3.542-13.588s.433-10.385-3.017-17.433-15.714-12.609-19.752-13.332-10.24-3.519-15.372-.843a4.262 4.262 0 0 1-2.046-1.142 5.414 5.414 0 0 0-2.853-1.284.783.783 0 0 0-.646.264z" fill="#b3df7f"/><path data-name="パス 9403" d="M1370.45 152.098c0-.019-.007-.033-.007-.052 0 0 .27-.446-.44-1.188-.488-.513-11.81-5.369-21.025-1.635-13.29 5.386-16.5 11.573-19.209 17.009s-2.3 6.468-3.563 9.256a16.627 16.627 0 0 1-2.8 4.31 19.145 19.145 0 0 1 5.787-.464 44.949 44.949 0 0 0 20.227-1.205s13.207-3.271 19.106-13.255c0 0 4.721-7.064 4.109-11.318-.084-.625-.646-.763-1.182-.869 1.125-.788 4.153-1.092 4.153-1.092l.1-.2c-.375-.32-.34-.522-.34-.522-.976-.38-3.625.664-4.916 1.225z" fill="#b3df7f"/><path data-name="パス 9404" d="M1373.656 172.765c-.018-.02-.034-.032-.052-.056 0 0-.041-.7-1.478-1.115-.991-.287-18.313 1.432-26.208 11.932-11.389 15.143-10.2 24.584-9.027 32.805s2.491 9.18 3.252 13.311a21.234 21.234 0 0 1 .161 6.945 24.048 24.048 0 0 1 6.478-4.366c3.124-1.168 14.411-5.191 22.974-14.767 0 0 13-12.583 11.931-28.3 0 0-.107-11.48-4.264-16.111-.6-.684-1.38-.474-2.1-.246.7-1.679 4.038-4.033 4.038-4.033l-.039-.309c-.706-.129-.826-.392-.826-.392-1.467.204-3.765 3.189-4.84 4.702z" fill="#b3df7f"/><path data-name="パス 9405" d="M1373.319 140.408l1.517 6.915.227 7.222 2.8 10.13 3.114 13.375 1.336 3.816 6.154 6.266 4.835 3.865.16-2.083-2.04-1.145-4.38-4.119-3.453-3.214-1.4-5.065-1.709-8.307-1.584-8.811-2.113-6.806.617-9.749z" fill="#a0642f"/></g><g data-name="グループ化 2449" fill="#b3df7f"><path data-name="パス 9406" d="M769.129-20.486s-.578.349-.132.749l5.89 1.466s-.511.373.149 1.959c1.48 3.565 3.4 6.179 4.014 7.779s4.43 11.456 11.649 14.781c0 0 13.939 9.58 21.585 9.794 0 0 7.51.158 8.027 1.136 0 0 2.5-7.483-.031-13.96s-2.236-10.194-7.4-16.326-18.515-8.975-22.628-8.834-10.865-1.279-15.171 2.4a4.461 4.461 0 0 1-2.283-.682 5.615 5.615 0 0 0-3.107-.653.748.748 0 0 0-.562.391z"/><path data-name="パス 9407" d="M763.695-19.648a.507.507 0 0 1-.021-.047s.145-.49-.733-1.064c-.605-.4-12.867-2.75-20.873 2.813-11.548 8.023-13.085 14.714-14.33 20.569s-.584 6.775-1.1 9.753a15.707 15.707 0 0 1-1.617 4.778 18.582 18.582 0 0 1 5.514-1.665c2.421-.164 11.133-.612 19.367-5.409 0 0 12.01-5.946 15.193-16.9 0 0 2.783-7.86 1.1-11.871-.244-.591-.828-.605-1.374-.6.894-1 3.761-1.932 3.761-1.932l.051-.218c-.45-.231-.469-.437-.469-.437-1.052-.155-3.361 1.417-4.469 2.23z"/><path data-name="パス 9408" d="M772.099-.212c-.021-.015-.042-.025-.062-.042 0 0-.22-.677-1.725-.776-1.036-.072-17.448 5.23-22.438 17.1-7.2 17.116-3.628 26.052-.377 33.8s4.771 8.408 6.57 12.268a21.61 21.61 0 0 1 1.935 6.722 22.413 22.413 0 0 1 5.186-5.6c2.738-1.793 12.688-8.069 18.568-19.177 0 0 9.423-14.964 4.358-30.024 0 0-3.046-11.145-8.274-14.781-.762-.539-1.464-.171-2.108.2.253-1.78 2.9-4.768 2.9-4.768l-.118-.292c-.718.022-.9-.209-.9-.209-1.383.501-2.854 3.882-3.515 5.579z"/></g><g data-name="グループ化 2450"><path data-name="パス 9409" d="M1031.988-33.055a.553.553 0 0 0-.805-.3l-3.022 5.077s-.3-.558-2.242-.324c-4.35.539-7.735 1.7-9.677 1.884s-13.911 1.417-19.333 7.28c0 0-14.013 10.589-16.026 17.569 0 0-1.925 6.872-3.148 7.121 0 0 7.835 4.038 15.7 3.218s11.988.311 20.081-3.011 14.4-14.942 15.194-18.754 3.964-9.7.838-14.513a3.751 3.751 0 0 1 1.29-1.943 4.581 4.581 0 0 0 1.452-2.7.689.689 0 0 0-.302-.604z" fill="#b3df7f"/><path data-name="パス 9410" d="M1031.698-19.14c-.025-.007-.047 0-.072-.011 0 0-.459-.462-1.7-.019-.855.306-11.628 10.175-10.568 21.313 1.522 16.058 8.133 21.905 13.981 26.932s7.336 5.02 10.393 7.456a21.146 21.146 0 0 1 4.381 4.661 17.756 17.756 0 0 1 1.741-6.231c1.412-2.37 6.651-10.787 6.621-21.623 0 0 1.146-15.123-9.233-25.315 0 0-7.12-7.786-12.8-8.863-.833-.159-1.236.371-1.588.885-.553-1.5.281-4.778.281-4.778l-.219-.192c-.557.268-.8.15-.8.15-.876.87-.616 4.059-.418 5.635z" fill="#b3df7f"/><path data-name="パス 9411" d="M1037.247-28.603a.531.531 0 0 0-.034.048s-.574.165-.631 1.217c-.036.731 4.819 12.061 15.045 15.3 14.738 4.667 22.283 1.99 28.828-.432s7.074-3.5 10.327-4.835a21.567 21.567 0 0 1 5.693-1.489 18.612 18.612 0 0 1-4.887-3.5 42.829 42.829 0 0 0-16.73-12.554s-12.958-6.26-25.7-2.42c0 0-9.44 2.352-12.43 6.072-.441.547-.118 1.025.211 1.465-1.521-.135-4.123-1.92-4.123-1.92l-.246.088c.035.5-.16.636-.16.636.458.945 3.376 1.898 4.837 2.324z" fill="#b3df7f"/><path data-name="パス 9412" d="M1030.541-40.716l2.468 6.35v6.867l-.134 3.922-1.387.368v-3.26l-.569-8.068-1.516-5.835z" fill="#a0642f"/></g><g data-name="グループ化 2451"><path data-name="パス 9413" d="M600.713 11.462c.025-.015.052-.019.075-.035 0 0 .344-.686 1.948-.588 1.115.067 17.574 7.878 20.892 21.091 4.784 19.049-.469 28-5.176 35.758s-6.425 8.241-8.96 12.075a23.587 23.587 0 0 0-3.159 6.838s-1.955-4.346-4.554-6.617-12.07-10.235-16.448-22.762c0 0-7.49-17.079.342-32.3 0 0 5.053-11.366 11.175-14.5.9-.464 1.577.016 2.194.495.029-1.912-2.271-5.427-2.271-5.427l.171-.293c.756.124.99-.1.99-.1 1.372.711 2.366 4.484 2.781 6.365z" fill="#b3df7f"/><path data-name="パス 9414" d="M587.063 8.174a.833.833 0 0 1-.044-.093s.288-.956-1.426-2.075c-1.188-.777-25.1-5.365-40.72 5.488-22.524 15.648-25.524 28.702-27.956 40.123s-1.144 13.219-2.136 19.025a30.69 30.69 0 0 1-3.153 9.32s6.012-2.914 10.751-3.242 21.719-1.2 37.781-10.551c0 0 23.43-11.6 29.636-32.963 0 0 5.437-15.338 2.15-23.159-.474-1.151-1.61-1.181-2.68-1.164 1.745-1.958 7.335-3.768 7.335-3.768l.1-.426c-.877-.452-.908-.85-.908-.85-2.054-.321-6.565 2.744-8.73 4.335z" fill="#b3df7f"/><path data-name="パス 9415" d="M620.18-16.086l-7.685 5.922-6.55 6.694-3.987 5.149-5.124 4.12h-1.993l.854-2.06 4.269-2.832 3.7-5.149 6.548-6.695 3.132-2.831z" fill="#a0642f"/></g><g data-name="グループ化 2452"><path data-name="パス 9416" d="M642.453-2.738s-.581.348-.134.747l5.888 1.466s-.511.374.153 1.96c1.481 3.565 3.4 6.177 4.012 7.779s4.43 11.457 11.651 14.781c0 0 13.938 9.58 21.585 9.793 0 0 7.508.158 8.025 1.136 0 0 2.5-7.483-.032-13.96s-2.239-10.193-7.4-16.327-18.513-8.975-22.625-8.832-10.863-1.279-15.17 2.4a4.459 4.459 0 0 1-2.286-.681 5.613 5.613 0 0 0-3.1-.652.744.744 0 0 0-.567.39z" fill="#b3df7f"/><path data-name="パス 9417" d="M637.016-1.9a.217.217 0 0 1-.023-.047s.146-.49-.735-1.064c-.6-.4-12.864-2.751-20.871 2.813-11.549 8.019-13.083 14.719-14.331 20.569s-.586 6.776-1.093 9.752a15.778 15.778 0 0 1-1.619 4.778 18.577 18.577 0 0 1 5.509-1.663c2.426-.164 11.136-.612 19.37-5.409 0 0 12.011-5.946 15.191-16.9 0 0 2.786-7.861 1.1-11.871-.239-.59-.824-.606-1.375-.6.9-1 3.764-1.932 3.764-1.932l.049-.218c-.449-.231-.466-.436-.466-.436-1.048-.157-3.362 1.414-4.47 2.228z" fill="#b3df7f"/><path data-name="パス 9418" d="M645.422 17.535c-.021-.015-.039-.024-.062-.042 0 0-.221-.677-1.726-.775-1.036-.071-17.447 5.228-22.437 17.1-7.2 17.116-3.626 26.052-.38 33.8s4.774 8.407 6.571 12.267a21.641 21.641 0 0 1 1.935 6.722 22.455 22.455 0 0 1 5.186-5.6c2.737-1.791 12.687-8.067 18.566-19.175 0 0 9.425-14.965 4.36-30.026 0 0-3.043-11.144-8.274-14.781-.763-.539-1.466-.172-2.107.2.251-1.778 2.9-4.768 2.9-4.768l-.12-.292c-.717.022-.9-.209-.9-.209-1.379.498-2.853 3.882-3.512 5.579z" fill="#80c41c"/></g><g data-name="グループ化 2453"><path data-name="パス 9419" d="M297.105-7.206a.555.555 0 0 0-.807-.3l-3.02 5.08s-.3-.557-2.24-.323c-4.351.54-7.735 1.7-9.679 1.885S267.448.551 262.027 6.415c0 0-14.012 10.589-16.027 17.568 0 0-1.923 6.873-3.146 7.12 0 0 7.834 4.039 15.7 3.22s11.986.311 20.081-3.012 14.4-14.941 15.194-18.753 3.963-9.7.835-14.513a3.756 3.756 0 0 1 1.292-1.943 4.574 4.574 0 0 0 1.451-2.7.692.692 0 0 0-.302-.608z" fill="#b3df7f"/><path data-name="パス 9420" d="M296.815 6.708c-.024-.007-.048 0-.072-.011 0 0-.458-.462-1.694-.019-.857.306-11.63 10.175-10.57 21.313 1.521 16.058 8.135 21.905 13.981 26.932s7.339 5.02 10.4 7.456a21.183 21.183 0 0 1 4.379 4.661 17.766 17.766 0 0 1 1.741-6.231c1.413-2.37 6.652-10.786 6.622-21.623 0 0 1.145-15.123-9.234-25.315 0 0-7.12-7.786-12.8-8.863-.833-.159-1.235.372-1.587.885-.555-1.5.282-4.779.282-4.779l-.219-.191c-.56.267-.805.149-.805.149-.881.872-.619 4.063-.424 5.636z" fill="#b3df7f"/><path data-name="パス 9421" d="M302.362-2.752c-.015.016-.02.034-.034.048s-.574.165-.628 1.218c-.037.73 4.82 12.06 15.044 15.3 14.738 4.667 22.283 1.989 28.828-.433s7.073-3.5 10.326-4.835a21.581 21.581 0 0 1 5.695-1.489 18.611 18.611 0 0 1-4.887-3.5 42.882 42.882 0 0 0-16.731-12.554s-12.959-6.26-25.7-2.42c0 0-9.441 2.351-12.432 6.07-.441.547-.117 1.026.211 1.467-1.52-.137-4.122-1.921-4.122-1.921l-.247.089c.035.5-.159.635-.159.635.458.946 3.378 1.901 4.836 2.325z" fill="#b3df7f"/><path data-name="パス 9422" d="M295.658-14.865l2.468 6.351v6.867l-.134 3.923-1.386.368v-3.26l-.568-8.068-1.517-5.835z" fill="#a0642f"/></g><g data-name="グループ化 2454"><path data-name="パス 9423" d="M364.712 8.763a.722.722 0 0 0-1.05-.388l-3.934 6.614s-.391-.726-2.919-.422c-5.666.7-10.073 2.214-12.606 2.454s-18.118 1.842-25.184 9.479c0 0-18.252 13.793-20.877 22.883 0 0-2.5 8.954-4.1 9.275 0 0 10.2 5.262 20.454 4.192s15.614.407 26.156-3.921 18.76-19.466 19.799-24.427 5.163-12.632 1.089-18.9a4.889 4.889 0 0 1 1.679-2.539 5.975 5.975 0 0 0 1.89-3.521.9.9 0 0 0-.397-.779z" fill="#b3df7f"/><path data-name="パス 9424" d="M364.335 26.882c-.034-.008-.061 0-.094-.012 0 0-.6-.6-2.207-.027-1.115.4-15.147 13.255-13.768 27.762 1.982 20.915 10.6 28.533 18.211 35.079s9.56 6.539 13.541 9.712a27.566 27.566 0 0 1 5.7 6.072s.435-5.028 2.268-8.118 8.665-14.048 8.626-28.165c0 0 1.49-19.7-12.029-32.974 0 0-9.276-10.141-16.674-11.542-1.088-.206-1.61.485-2.068 1.152-.725-1.949.366-6.225.366-6.225l-.282-.249c-.733.349-1.05.194-1.05.194-1.138 1.138-.796 5.292-.54 7.341z" fill="#80c41c"/><path data-name="パス 9425" d="M371.562 14.56a.5.5 0 0 1-.045.063s-.747.215-.819 1.586c-.049.95 6.279 15.709 19.6 19.927 19.2 6.079 29.023 2.59 37.546-.563s9.216-4.56 13.452-6.3a28.13 28.13 0 0 1 7.417-1.94s-4.3-2.123-6.363-4.561a55.842 55.842 0 0 0-21.796-16.35s-16.881-8.153-33.473-3.15c0 0-12.3 3.062-16.193 7.906-.57.713-.149 1.336.277 1.911-1.978-.178-5.367-2.5-5.367-2.5l-.323.115c.045.655-.208.828-.208.828.592 1.231 4.393 2.476 6.295 3.028z" fill="#b3df7f"/><path data-name="パス 9426" d="M362.83-1.217l3.212 8.276v8.94l-.175 5.109-1.806.48V17.34l-.74-10.508-1.978-7.6z" fill="#a0642f"/></g><g data-name="グループ化 2455"><path data-name="パス 9427" d="M835.492 3.304a.7.7 0 0 0-1.024-.378L830.64 9.37s-.382-.708-2.844-.411c-5.52.684-9.812 2.156-12.277 2.39s-17.648 1.8-24.524 9.235c0 0-17.776 13.431-20.332 22.285 0 0-2.437 8.719-3.99 9.033 0 0 9.939 5.123 19.922 4.082s15.2.4 25.472-3.819 18.265-18.955 19.275-23.795 5.027-12.3 1.062-18.411a4.764 4.764 0 0 1 1.635-2.465 5.79 5.79 0 0 0 1.842-3.424.876.876 0 0 0-.389-.766z" fill="#b3df7f"/><path data-name="パス 9428" d="M835.126 20.954c-.033-.008-.061-.006-.092-.012 0 0-.579-.588-2.147-.026-1.087.388-14.754 12.909-13.411 27.036 1.931 20.371 10.316 27.788 17.738 34.164s9.305 6.37 13.186 9.459a26.838 26.838 0 0 1 5.556 5.913s.421-4.9 2.207-7.905 8.438-13.682 8.4-27.43c0 0 1.454-19.183-11.714-32.112 0 0-9.032-9.878-16.239-11.243-1.059-.2-1.565.473-2.013 1.123-.706-1.9.356-6.062.356-6.062l-.278-.242c-.71.338-1.019.188-1.019.188-1.112 1.106-.777 5.153-.53 7.149z" fill="#80c41c"/><path data-name="パス 9429" d="M842.165 8.953c-.021.021-.027.042-.044.061 0 0-.729.21-.8 1.544-.048.926 6.114 15.3 19.084 19.408 18.694 5.92 28.269 2.524 36.569-.547s8.976-4.44 13.1-6.135a27.347 27.347 0 0 1 7.222-1.888s-4.182-2.069-6.2-4.443A54.43 54.43 0 0 0 889.88 1.027s-16.439-7.941-32.6-3.068c0 0-11.977 2.983-15.77 7.7-.557.695-.148 1.3.267 1.859-1.927-.173-5.229-2.437-5.229-2.437l-.312.113c.044.637-.2.806-.2.806.573 1.203 4.274 2.414 6.129 2.953z" fill="#b3df7f"/><path data-name="パス 9430" d="M833.661-6.412l3.126 8.055v8.711l-.17 4.975-1.755.467V11.66l-.728-10.234-1.923-7.4z" fill="#a0642f"/></g></g></svg>